# This file uses centimeters as units for non-parametric coordinates.

v 0.614369 1.352825 -1.064118
v -0.614369 1.352825 -1.064118
v -1.228738 1.352825 0.000000
v -0.614369 1.352825 1.064118
v 0.614369 1.352825 1.064118
v 1.228738 1.352825 0.000000
v 0.813453 2.802055 -1.408940
v -0.813452 2.802055 -1.408941
v -1.626904 2.802055 0.000000
v -0.813452 2.802055 1.408940
v 0.813452 2.802055 1.408940
v 1.626904 2.802055 0.000000
v 0.652338 4.107767 -1.129882
v -0.652338 4.107767 -1.129883
v -1.304676 4.107767 0.000000
v -0.652338 4.107767 1.129883
v 0.652338 4.107767 1.129883
v 1.304676 4.107767 0.000000
v 0.362020 5.011348 -0.627037
v -0.362020 5.011348 -0.627038
v -0.724041 5.011348 0.000000
v -0.362020 5.011348 0.627038
v 0.362020 5.011348 0.627038
v 0.724041 5.011348 0.000000
v 0.000000 5.333832 0.000000
v 0.614369 1.352825 -1.064118
v 0.614369 1.352825 -1.064118
v -0.614369 1.352825 -1.064118
v -0.614369 1.352825 -1.064118
v -1.228738 1.352825 0.000000
v -1.228738 1.352825 0.000000
v -0.614369 1.352825 1.064118
v -0.614369 1.352825 1.064118
v 0.614369 1.352825 1.064118
v 0.614369 1.352825 1.064118
v 1.228738 1.352825 0.000000
v 1.228738 1.352825 0.000000
v 0.813453 2.802055 -1.408940
v 0.813453 2.802055 -1.408940
v 0.813453 2.802055 -1.408940
v 0.813453 2.802055 -1.408940
v 0.813453 2.802055 -1.408940
v -0.813452 2.802055 -1.408941
v -0.813452 2.802055 -1.408941
v -0.813452 2.802055 -1.408941
v -0.813452 2.802055 -1.408941
v -0.813452 2.802055 -1.408941
v -1.626904 2.802055 0.000000
v -1.626904 2.802055 0.000000
v -1.626904 2.802055 0.000000
v -1.626904 2.802055 0.000000
v -1.626904 2.802055 0.000000
v -0.813452 2.802055 1.408940
v -0.813452 2.802055 1.408940
v -0.813452 2.802055 1.408940
v -0.813452 2.802055 1.408940
v -0.813452 2.802055 1.408940
v 0.813452 2.802055 1.408940
v 0.813452 2.802055 1.408940
v 0.813452 2.802055 1.408940
v 0.813452 2.802055 1.408940
v 0.813452 2.802055 1.408940
v 1.626904 2.802055 0.000000
v 1.626904 2.802055 0.000000
v 1.626904 2.802055 0.000000
v 1.626904 2.802055 0.000000
v 1.626904 2.802055 0.000000
v 0.652338 4.107767 -1.129882
v 0.652338 4.107767 -1.129882
v 0.652338 4.107767 -1.129882
v 0.652338 4.107767 -1.129882
v 0.652338 4.107767 -1.129882
v -0.652338 4.107767 -1.129883
v -0.652338 4.107767 -1.129883
v -0.652338 4.107767 -1.129883
v -0.652338 4.107767 -1.129883
v -0.652338 4.107767 -1.129883
v -1.304676 4.107767 0.000000
v -1.304676 4.107767 0.000000
v -1.304676 4.107767 0.000000
v -1.304676 4.107767 0.000000
v -1.304676 4.107767 0.000000
v -0.652338 4.107767 1.129883
v -0.652338 4.107767 1.129883
v -0.652338 4.107767 1.129883
v -0.652338 4.107767 1.129883
v -0.652338 4.107767 1.129883
v 0.652338 4.107767 1.129883
v 0.652338 4.107767 1.129883
v 0.652338 4.107767 1.129883
v 0.652338 4.107767 1.129883
v 0.652338 4.107767 1.129883
v 1.304676 4.107767 0.000000
v 1.304676 4.107767 0.000000
v 1.304676 4.107767 0.000000
v 1.304676 4.107767 0.000000
v 1.304676 4.107767 0.000000
v 0.362020 5.011348 -0.627037
v 0.362020 5.011348 -0.627037
v 0.362020 5.011348 -0.627037
v 0.362020 5.011348 -0.627037
v -0.362020 5.011348 -0.627038
v -0.362020 5.011348 -0.627038
v -0.362020 5.011348 -0.627038
v -0.362020 5.011348 -0.627038
v -0.724041 5.011348 0.000000
v -0.724041 5.011348 0.000000
v -0.724041 5.011348 0.000000
v -0.724041 5.011348 0.000000
v -0.362020 5.011348 0.627038
v -0.362020 5.011348 0.627038
v -0.362020 5.011348 0.627038
v -0.362020 5.011348 0.627038
v 0.362020 5.011348 0.627038
v 0.362020 5.011348 0.627038
v 0.362020 5.011348 0.627038
v 0.362020 5.011348 0.627038
v 0.724041 5.011348 0.000000
v 0.724041 5.011348 0.000000
v 0.724041 5.011348 0.000000
v 0.724041 5.011348 0.000000
v 0.000000 5.333832 0.000000
v 0.000000 5.333832 0.000000
v 0.000000 5.333832 0.000000
v 0.000000 5.333832 0.000000
v 0.000000 5.333832 0.000000
vt 0.000000 0.428571
vt 0.166667 0.428571
vt 0.166667 0.571429
vt 0.333333 0.428571
vt 0.333333 0.571429
vt 0.500000 0.428571
vt 0.500000 0.571429
vt 0.666667 0.428571
vt 0.666667 0.571429
vt 0.833333 0.428571
vt 0.833333 0.571429
vt 1.000000 0.571429
vt 0.166667 0.714286
vt 0.333333 0.714286
vt 0.500000 0.714286
vt 0.666667 0.714286
vt 0.833333 0.714286
vt 1.000000 0.714286
vt 0.166667 0.857143
vt 0.000000 0.857143
vt 0.333333 0.857143
vt 0.500000 0.857143
vt 0.666667 0.857143
vt 0.833333 0.857143
vt 0.750000 1.000000
vt 1.000000 0.428571
vt 1.000000 0.428571
vt 0.166667 0.428571
vt 0.166667 0.428571
vt 0.333333 0.428571
vt 0.333333 0.428571
vt 0.500000 0.428571
vt 0.500000 0.428571
vt 0.666667 0.428571
vt 0.666667 0.428571
vt 0.833333 0.428571
vt 0.833333 0.428571
vt 1.000000 0.571429
vt 0.000000 0.571429
vt 0.000000 0.571429
vt 0.000000 0.571429
vt 1.000000 0.571429
vt 0.166667 0.571429
vt 0.166667 0.571429
vt 0.166667 0.571429
vt 0.166667 0.571429
vt 0.166667 0.571429
vt 0.333333 0.571429
vt 0.333333 0.571429
vt 0.333333 0.571429
vt 0.333333 0.571429
vt 0.333333 0.571429
vt 0.500000 0.571429
vt 0.500000 0.571429
vt 0.500000 0.571429
vt 0.500000 0.571429
vt 0.500000 0.571429
vt 0.666667 0.571429
vt 0.666667 0.571429
vt 0.666667 0.571429
vt 0.666667 0.571429
vt 0.666667 0.571429
vt 0.833333 0.571429
vt 0.833333 0.571429
vt 0.833333 0.571429
vt 0.833333 0.571429
vt 0.833333 0.571429
vt 1.000000 0.714286
vt 0.000000 0.714286
vt 0.000000 0.714286
vt 0.000000 0.714286
vt 1.000000 0.714286
vt 0.166667 0.714286
vt 0.166667 0.714286
vt 0.166667 0.714286
vt 0.166667 0.714286
vt 0.166667 0.714286
vt 0.333333 0.714286
vt 0.333333 0.714286
vt 0.333333 0.714286
vt 0.333333 0.714286
vt 0.333333 0.714286
vt 0.500000 0.714286
vt 0.500000 0.714286
vt 0.500000 0.714286
vt 0.500000 0.714286
vt 0.500000 0.714286
vt 0.666667 0.714286
vt 0.666667 0.714286
vt 0.666667 0.714286
vt 0.666667 0.714286
vt 0.666667 0.714286
vt 0.833333 0.714286
vt 0.833333 0.714286
vt 0.833333 0.714286
vt 0.833333 0.714286
vt 0.833333 0.714286
vt 0.000000 0.857143
vt 0.000000 0.857143
vt 1.000000 0.857143
vt 1.000000 0.857143
vt 0.166667 0.857143
vt 0.166667 0.857143
vt 0.166667 0.857143
vt 0.166667 0.857143
vt 0.333333 0.857143
vt 0.333333 0.857143
vt 0.333333 0.857143
vt 0.333333 0.857143
vt 0.500000 0.857143
vt 0.500000 0.857143
vt 0.500000 0.857143
vt 0.500000 0.857143
vt 0.666667 0.857143
vt 0.666667 0.857143
vt 0.666667 0.857143
vt 0.666667 0.857143
vt 0.833333 0.857143
vt 0.833333 0.857143
vt 0.833333 0.857143
vt 0.833333 0.857143
vt 0.916667 1.000000
vt 0.083333 1.000000
vt 0.250000 1.000000
vt 0.416667 1.000000
vt 0.583333 1.000000
vn 0.000000 -0.231473 -0.972841
vn 0.000000 -0.231473 -0.972841
vn 0.000000 -0.231473 -0.972841
vn 0.000000 -0.231473 -0.972841
vn 0.000000 -0.231473 -0.972841
vn 0.000000 -0.231473 -0.972841
vn -0.842505 -0.231473 -0.486421
vn -0.842505 -0.231473 -0.486421
vn -0.842505 -0.231473 -0.486421
vn -0.842505 -0.231473 -0.486421
vn -0.842505 -0.231473 -0.486421
vn -0.842505 -0.231473 -0.486421
vn -0.842505 -0.231473 0.486421
vn -0.842505 -0.231473 0.486421
vn -0.842505 -0.231473 0.486421
vn -0.842505 -0.231473 0.486421
vn -0.842505 -0.231473 0.486421
vn -0.842505 -0.231473 0.486421
vn 0.000000 -0.231473 0.972841
vn 0.000000 -0.231473 0.972841
vn 0.000000 -0.231473 0.972841
vn 0.000000 -0.231473 0.972841
vn 0.000000 -0.231473 0.972841
vn 0.000000 -0.231473 0.972841
vn 0.842505 -0.231473 0.486421
vn 0.842505 -0.231473 0.486421
vn 0.842505 -0.231473 0.486421
vn 0.842505 -0.231473 0.486421
vn 0.842505 -0.231473 0.486421
vn 0.842505 -0.231473 0.486421
vn 0.842506 -0.231473 -0.486420
vn 0.842506 -0.231473 -0.486420
vn 0.842505 -0.231473 -0.486421
vn 0.842505 -0.231473 -0.486421
vn 0.842506 -0.231473 -0.486420
vn 0.842505 -0.231473 -0.486421
vn 0.000000 0.209001 -0.977915
vn 0.000000 0.209001 -0.977915
vn 0.000000 0.209001 -0.977915
vn 0.000000 0.209001 -0.977915
vn 0.000000 0.209001 -0.977915
vn 0.000000 0.209001 -0.977915
vn -0.846900 0.209001 -0.488958
vn -0.846900 0.209001 -0.488958
vn -0.846899 0.209001 -0.488958
vn -0.846899 0.209001 -0.488958
vn -0.846900 0.209001 -0.488958
vn -0.846899 0.209001 -0.488958
vn -0.846900 0.209001 0.488958
vn -0.846900 0.209001 0.488958
vn -0.846900 0.209001 0.488958
vn -0.846900 0.209001 0.488958
vn -0.846900 0.209001 0.488958
vn -0.846900 0.209001 0.488958
vn 0.000000 0.209001 0.977916
vn 0.000000 0.209001 0.977916
vn 0.000000 0.209001 0.977915
vn 0.000000 0.209001 0.977915
vn 0.000000 0.209001 0.977916
vn 0.000000 0.209001 0.977915
vn 0.846900 0.209001 0.488958
vn 0.846900 0.209001 0.488958
vn 0.846900 0.209001 0.488958
vn 0.846900 0.209001 0.488958
vn 0.846900 0.209001 0.488958
vn 0.846900 0.209001 0.488958
vn 0.846900 0.209001 -0.488958
vn 0.846900 0.209001 -0.488958
vn 0.846900 0.209001 -0.488958
vn 0.846900 0.209001 -0.488958
vn 0.846900 0.209001 -0.488958
vn 0.846900 0.209001 -0.488958
vn 0.000000 0.486275 -0.873806
vn 0.000000 0.486275 -0.873806
vn 0.000000 0.486275 -0.873806
vn 0.000000 0.486275 -0.873806
vn 0.000000 0.486275 -0.873806
vn 0.000000 0.486275 -0.873806
vn -0.756738 0.486275 -0.436903
vn -0.756738 0.486275 -0.436903
vn -0.756738 0.486275 -0.436903
vn -0.756738 0.486275 -0.436903
vn -0.756738 0.486275 -0.436903
vn -0.756738 0.486275 -0.436903
vn -0.756738 0.486275 0.436903
vn -0.756738 0.486275 0.436903
vn -0.756738 0.486275 0.436903
vn -0.756738 0.486275 0.436903
vn -0.756738 0.486275 0.436903
vn -0.756738 0.486275 0.436903
vn 0.000000 0.486275 0.873806
vn 0.000000 0.486275 0.873806
vn 0.000000 0.486275 0.873806
vn 0.000000 0.486275 0.873806
vn 0.000000 0.486275 0.873806
vn 0.000000 0.486275 0.873806
vn 0.756738 0.486275 0.436903
vn 0.756738 0.486275 0.436903
vn 0.756738 0.486275 0.436903
vn 0.756738 0.486275 0.436903
vn 0.756738 0.486275 0.436903
vn 0.756738 0.486275 0.436903
vn 0.756738 0.486275 -0.436903
vn 0.756738 0.486275 -0.436903
vn 0.756738 0.486275 -0.436903
vn 0.756738 0.486275 -0.436903
vn 0.756738 0.486275 -0.436903
vn 0.756738 0.486275 -0.436903
vn 0.000000 0.889283 -0.457357
vn 0.000000 0.889283 -0.457357
vn 0.000000 0.889283 -0.457357
vn -0.396083 0.889283 -0.228678
vn -0.396083 0.889283 -0.228678
vn -0.396083 0.889283 -0.228678
vn -0.396083 0.889283 0.228678
vn -0.396083 0.889283 0.228678
vn -0.396083 0.889283 0.228678
vn 0.000000 0.889284 0.457356
vn 0.000000 0.889284 0.457356
vn 0.000000 0.889284 0.457356
vn 0.396083 0.889283 0.228678
vn 0.396083 0.889283 0.228678
vn 0.396083 0.889283 0.228678
vn 0.396083 0.889283 -0.228678
vn 0.396083 0.889283 -0.228678
vn 0.396083 0.889283 -0.228678
f 1/1/1 29/29/2 40/39/3
f 41/40/4 28/28/5 44/43/6
f 2/2/7 31/31/8 45/44/9
f 46/45/10 30/30/11 49/48/12
f 3/4/13 33/33/14 50/49/15
f 51/50/16 32/32/17 54/53/18
f 4/6/19 35/35/20 55/54/21
f 56/55/22 34/34/23 59/58/24
f 5/8/25 37/37/26 60/59/27
f 61/60/28 36/36/29 64/63/30
f 6/10/31 27/27/32 65/64/33
f 66/65/34 26/26/35 39/38/36
f 42/41/37 8/3/38 70/69/39
f 71/70/40 43/46/41 74/73/42
f 47/47/43 9/5/44 75/74/45
f 76/75/46 48/51/47 79/78/48
f 52/52/49 10/7/50 80/79/51
f 81/80/52 53/56/53 84/83/54
f 57/57/55 11/9/56 85/84/57
f 86/85/58 58/61/59 89/88/60
f 62/62/61 12/11/62 90/89/63
f 91/90/64 63/66/65 94/93/66
f 67/67/67 7/12/68 95/94/69
f 96/95/70 38/42/71 69/68/72
f 72/71/73 14/13/74 19/20/75
f 98/98/76 73/76/77 105/105/78
f 77/77/79 15/14/80 20/19/81
f 102/102/82 78/81/83 109/109/84
f 82/82/85 16/15/86 21/21/87
f 106/106/88 83/86/89 113/113/90
f 87/87/91 17/16/92 22/22/93
f 110/110/94 88/91/95 117/117/96
f 92/92/97 18/17/98 23/23/99
f 114/114/100 93/96/101 121/121/102
f 97/97/103 13/18/104 24/24/105
f 118/118/106 68/72/107 101/101/108
f 99/99/109 104/104/110 123/123/111
f 103/103/112 108/108/113 124/124/114
f 107/107/115 112/112/116 125/125/117
f 111/111/118 116/116/119 126/126/120
f 115/115/121 120/120/122 25/25/123
f 119/119/124 100/100/125 122/122/126
