# This file uses centimeters as units for non-parametric coordinates.

v -0.106956 8.689801 -3.665236
v 2.545234 10.616730 -1.639143
v -1.120002 11.807637 -1.639143
v -3.385243 8.689801 -1.639143
v -1.120002 5.571966 -1.639143
v 2.545234 6.762873 -1.639143
v 3.171331 8.689801 1.639143
v 0.906090 11.807637 1.639143
v -2.759146 10.616730 1.639143
v -2.759145 6.762872 1.639143
v 0.906091 5.571966 1.639143
v -0.106956 8.689801 3.665236
v -0.106956 8.689801 -3.665236
v -0.106956 8.689801 -3.665236
v -0.106956 8.689801 -3.665236
v -0.106956 8.689801 -3.665236
v 2.545234 10.616730 -1.639143
v 2.545234 10.616730 -1.639143
v 2.545234 10.616730 -1.639143
v 2.545234 10.616730 -1.639143
v -1.120002 11.807637 -1.639143
v -1.120002 11.807637 -1.639143
v -1.120002 11.807637 -1.639143
v -1.120002 11.807637 -1.639143
v -3.385243 8.689801 -1.639143
v -3.385243 8.689801 -1.639143
v -3.385243 8.689801 -1.639143
v -3.385243 8.689801 -1.639143
v -1.120002 5.571966 -1.639143
v -1.120002 5.571966 -1.639143
v -1.120002 5.571966 -1.639143
v -1.120002 5.571966 -1.639143
v 2.545234 6.762873 -1.639143
v 2.545234 6.762873 -1.639143
v 2.545234 6.762873 -1.639143
v 2.545234 6.762873 -1.639143
v 3.171331 8.689801 1.639143
v 3.171331 8.689801 1.639143
v 3.171331 8.689801 1.639143
v 3.171331 8.689801 1.639143
v 0.906090 11.807637 1.639143
v 0.906090 11.807637 1.639143
v 0.906090 11.807637 1.639143
v 0.906090 11.807637 1.639143
v -2.759146 10.616730 1.639143
v -2.759146 10.616730 1.639143
v -2.759146 10.616730 1.639143
v -2.759146 10.616730 1.639143
v -2.759145 6.762872 1.639143
v -2.759145 6.762872 1.639143
v -2.759145 6.762872 1.639143
v -2.759145 6.762872 1.639143
v 0.906091 5.571966 1.639143
v 0.906091 5.571966 1.639143
v 0.906091 5.571966 1.639143
v 0.906091 5.571966 1.639143
v -0.106956 8.689801 3.665236
v -0.106956 8.689801 3.665236
v -0.106956 8.689801 3.665236
v -0.106956 8.689801 3.665236
vt 1.000000 0.500000
vt 0.838104 0.676208
vt 1.088104 0.176208
vt 0.838104 0.323792
vt 0.588104 0.823792
vt 0.088104 0.823792
vt 0.176208 0.500000
vt 0.338104 0.676208
vt 0.338104 0.323792
vt 0.588104 0.176208
vt 0.676208 0.500000
vt 0.500000 0.500000
vt 1.000000 0.500000
vt 1.000000 0.500000
vt 1.000000 0.500000
vt 1.000000 0.500000
vt 0.838104 0.676208
vt 0.838104 0.676208
vt 0.838104 0.676208
vt 0.838104 0.676208
vt 0.088104 0.823792
vt 1.088104 0.823792
vt 1.088104 0.823792
vt 1.088104 0.823792
vt 0.176208 0.500000
vt 0.176208 0.500000
vt 1.176208 0.500000
vt 1.176208 0.500000
vt 0.088104 0.176208
vt 0.088104 0.176208
vt 1.088104 0.176208
vt 1.088104 0.176208
vt 0.838104 0.323792
vt 0.838104 0.323792
vt 0.838104 0.323792
vt 0.838104 0.323792
vt 0.676208 0.500000
vt 0.676208 0.500000
vt 0.676208 0.500000
vt 0.676208 0.500000
vt 0.588104 0.823792
vt 0.588104 0.823792
vt 0.588104 0.823792
vt 0.588104 0.823792
vt 0.338104 0.676208
vt 0.338104 0.676208
vt 0.338104 0.676208
vt 0.338104 0.676208
vt 0.338104 0.323792
vt 0.338104 0.323792
vt 0.338104 0.323792
vt 0.338104 0.323792
vt 0.588104 0.176208
vt 0.588104 0.176208
vt 0.588104 0.176208
vt 0.588104 0.176208
vt 0.500000 0.500000
vt 0.500000 0.500000
vt 0.500000 0.500000
vt 0.500000 0.500000
vn 0.187593 0.577350 -0.794655
vn 0.187593 0.577350 -0.794654
vn 0.187593 0.577350 -0.794655
vn -0.491123 0.356822 -0.794654
vn -0.491123 0.356822 -0.794655
vn -0.491123 0.356822 -0.794655
vn -0.491123 -0.356822 -0.794655
vn -0.491123 -0.356822 -0.794655
vn -0.491123 -0.356822 -0.794655
vn 0.187592 -0.577350 -0.794654
vn 0.187592 -0.577350 -0.794654
vn 0.187592 -0.577350 -0.794654
vn 0.607062 0.000000 -0.794654
vn 0.607062 0.000000 -0.794654
vn 0.607062 0.000000 -0.794654
vn 0.303531 0.934172 -0.187593
vn 0.303531 0.934172 -0.187593
vn 0.303531 0.934172 -0.187593
vn -0.794655 0.577350 -0.187592
vn -0.794655 0.577350 -0.187592
vn -0.794655 0.577350 -0.187592
vn -0.794654 -0.577350 -0.187592
vn -0.794654 -0.577350 -0.187592
vn -0.794654 -0.577350 -0.187592
vn 0.303531 -0.934172 -0.187593
vn 0.303531 -0.934172 -0.187593
vn 0.303531 -0.934172 -0.187593
vn 0.982247 0.000000 -0.187593
vn 0.982247 0.000000 -0.187593
vn 0.982247 0.000000 -0.187593
vn 0.794654 0.577350 0.187592
vn 0.794655 0.577350 0.187592
vn 0.794654 0.577350 0.187592
vn -0.303531 0.934172 0.187593
vn -0.303531 0.934172 0.187593
vn -0.303531 0.934172 0.187593
vn -0.982247 0.000000 0.187593
vn -0.982247 0.000000 0.187593
vn -0.982247 0.000000 0.187593
vn -0.303531 -0.934172 0.187592
vn -0.303531 -0.934172 0.187592
vn -0.303531 -0.934172 0.187592
vn 0.794654 -0.577350 0.187592
vn 0.794654 -0.577350 0.187592
vn 0.794655 -0.577350 0.187592
vn 0.491123 0.356822 0.794655
vn 0.491123 0.356822 0.794655
vn 0.491123 0.356822 0.794654
vn -0.187592 0.577350 0.794654
vn -0.187593 0.577350 0.794654
vn -0.187593 0.577350 0.794654
vn -0.607062 0.000000 0.794655
vn -0.607062 0.000000 0.794654
vn -0.607062 0.000000 0.794655
vn -0.187592 -0.577350 0.794655
vn -0.187592 -0.577350 0.794655
vn -0.187592 -0.577350 0.794655
vn 0.491123 -0.356822 0.794655
vn 0.491123 -0.356822 0.794655
vn 0.491123 -0.356822 0.794655
f 16/15/1 23/23/2 19/18/3
f 15/14/4 27/27/5 24/24/6
f 14/13/7 31/31/8 28/28/9
f 1/1/10 35/35/11 32/32/12
f 13/16/13 18/17/14 36/36/15
f 20/19/16 22/22/17 43/42/18
f 3/6/19 26/26/20 47/46/21
f 4/7/22 30/30/23 51/50/24
f 5/3/25 34/34/26 55/54/27
f 6/4/28 2/2/29 39/39/30
f 17/20/31 42/41/32 40/40/33
f 21/21/34 46/45/35 44/43/36
f 25/25/37 50/49/38 48/47/39
f 29/29/40 54/53/41 52/51/42
f 33/33/43 38/38/44 56/55/45
f 7/11/46 8/5/47 58/58/48
f 41/44/49 9/8/50 59/59/51
f 45/48/52 10/9/53 60/60/54
f 49/52/55 11/10/56 12/12/57
f 53/56/58 37/37/59 57/57/60
