# This file uses centimeters as units for non-parametric coordinates.

v 0.986885 -0.031414 -1.581524
v -0.943229 -0.037840 -1.725805
v -1.935057 0.037172 -0.030116
v -1.056403 -0.041636 1.581301
v 1.058205 0.012008 1.619986
v 1.940195 -0.037840 -0.061060
v 0.500000 6.462498 -0.866025
v -0.500000 6.462498 -0.866026
v -1.000000 6.462498 -0.000000
v -0.486459 6.462498 0.859479
v 0.500000 6.462498 0.866025
v 1.000000 6.462498 0.000000
v 0.986885 -0.031414 -1.581524
v 0.986885 -0.031414 -1.581524
v -0.943229 -0.037840 -1.725805
v -0.943229 -0.037840 -1.725805
v -1.922283 0.045347 -0.000000
v -1.922283 0.045347 -0.000000
v -1.056403 -0.041636 1.581301
v -1.056403 -0.041636 1.581301
v 1.058205 0.012008 1.619986
v 1.058205 0.012008 1.619986
v 1.940195 -0.037840 -0.061060
v 1.940195 -0.037840 -0.061060
v 0.500000 6.462498 -0.866025
v 0.500000 6.462498 -0.866025
v -0.500000 6.462498 -0.866026
v -0.500000 6.462498 -0.866026
v -1.000000 6.462498 -0.000000
v -1.000000 6.462498 -0.000000
v -0.486459 6.462498 0.859479
v -0.486459 6.462498 0.859479
v 0.500000 6.462498 0.866025
v 0.500000 6.462498 0.866025
v 1.000000 6.462498 0.000000
v 1.000000 6.462498 0.000000
vt 0.375000 0.312500
vt 0.416667 0.312500
vt 0.458333 0.312500
vt 0.500000 0.312500
vt 0.541667 0.312500
vt 0.583333 0.312500
vt 0.416667 0.688440
vt 0.458333 0.688440
vt 0.500000 0.688440
vt 0.541667 0.688440
vt 0.583333 0.688440
vt 0.625000 0.688440
vt 0.625000 0.312500
vt 0.625000 0.312500
vt 0.416667 0.312500
vt 0.416667 0.312500
vt 0.458333 0.312500
vt 0.458333 0.312500
vt 0.500000 0.312500
vt 0.500000 0.312500
vt 0.541667 0.312500
vt 0.541667 0.312500
vt 0.583333 0.312500
vt 0.583333 0.312500
vt 0.375000 0.688440
vt 0.375000 0.688440
vt 0.416667 0.688440
vt 0.416667 0.688440
vt 0.458333 0.688440
vt 0.458333 0.688440
vt 0.500000 0.688440
vt 0.500000 0.688440
vt 0.541667 0.688440
vt 0.541667 0.688440
vt 0.583333 0.688440
vt 0.583333 0.688440
vn 0.073673 0.114675 -0.990667
vn 0.073673 0.114675 -0.990667
vn 0.073673 0.114675 -0.990667
vn 0.000000 0.131125 -0.991366
vn 0.000000 0.131125 -0.991366
vn 0.000000 0.131125 -0.991366
vn -0.860491 0.124031 -0.494137
vn -0.860491 0.124031 -0.494137
vn -0.860491 0.124031 -0.494137
vn -0.859394 0.123513 -0.496172
vn -0.859394 0.123513 -0.496172
vn -0.859394 0.123513 -0.496172
vn -0.868607 0.124157 0.479695
vn -0.868607 0.124157 0.479695
vn -0.868607 0.124157 0.479695
vn -0.851039 0.131007 0.508498
vn -0.851039 0.131007 0.508498
vn -0.851039 0.131007 0.508498
vn -0.021019 0.112097 0.993475
vn -0.021019 0.112097 0.993475
vn -0.021019 0.112097 0.993475
vn -0.006591 0.115529 0.993282
vn -0.006591 0.115529 0.993282
vn -0.006591 0.115529 0.993282
vn 0.879625 0.129614 0.457667
vn 0.879625 0.129614 0.457667
vn 0.879625 0.129614 0.457667
vn 0.859799 0.119697 0.496405
vn 0.859799 0.119697 0.496405
vn 0.859799 0.119697 0.496405
vn 0.840671 0.126539 -0.526554
vn 0.840671 0.126539 -0.526554
vn 0.840671 0.126539 -0.526554
vn 0.859854 0.119165 -0.496437
vn 0.859854 0.119165 -0.496437
vn 0.859855 0.119165 -0.496437
f 1/1/1 16/16/2 25/25/3
f 26/26/4 15/15/5 8/7/6
f 2/2/7 18/18/8 27/27/9
f 28/28/10 17/17/11 9/8/12
f 3/3/13 20/20/14 29/29/15
f 30/30/16 19/19/17 10/9/18
f 4/4/19 22/22/20 31/31/21
f 32/32/22 21/21/23 11/10/24
f 5/5/25 24/24/26 33/33/27
f 34/34/28 23/23/29 12/11/30
f 6/6/31 14/14/32 35/35/33
f 36/36/34 13/13/35 7/12/36
