# This file uses centimeters as units for non-parametric coordinates.

v 0.156900 0.502249 0.217489
v 0.244229 0.479664 0.153518
v 0.150012 0.519338 0.202053
v 0.237340 0.496752 0.138082
v 0.014934 0.381879 0.206402
v 0.253723 0.320122 0.031482
v -0.022261 0.232449 0.035964
v 0.044706 0.215129 -0.013092
v -0.018420 0.222918 0.044573
v 0.048548 0.205599 -0.004482
v 0.021822 0.364790 0.221839
v 0.260611 0.303034 0.046918
v 0.019668 0.202149 0.039914
v 0.143786 0.322329 0.155738
v 0.204928 0.478909 0.205549
v 0.198039 0.495998 0.190112
v 0.136898 0.339417 0.140301
v 0.015827 0.211679 0.031305
v 0.156900 0.502249 0.217489
v 0.156900 0.502249 0.217489
v 0.156900 0.502249 0.217489
v 0.156900 0.502249 0.217489
v 0.156900 0.502249 0.217489
v 0.244229 0.479664 0.153518
v 0.244229 0.479664 0.153518
v 0.244229 0.479664 0.153518
v 0.244229 0.479664 0.153518
v 0.244229 0.479664 0.153518
v 0.150012 0.519338 0.202053
v 0.150012 0.519338 0.202053
v 0.150012 0.519338 0.202053
v 0.237340 0.496752 0.138082
v 0.237340 0.496752 0.138082
v 0.237340 0.496752 0.138082
v 0.014934 0.381879 0.206402
v 0.014934 0.381879 0.206402
v 0.014934 0.381879 0.206402
v 0.014934 0.381879 0.206402
v 0.014934 0.381879 0.206402
v 0.253723 0.320122 0.031482
v 0.253723 0.320122 0.031482
v 0.253723 0.320122 0.031482
v 0.253723 0.320122 0.031482
v 0.253723 0.320122 0.031482
v -0.022261 0.232449 0.035964
v -0.022261 0.232449 0.035964
v 0.044706 0.215129 -0.013092
v 0.044706 0.215129 -0.013092
v -0.018420 0.222918 0.044573
v -0.018420 0.222918 0.044573
v -0.018420 0.222918 0.044573
v 0.048548 0.205599 -0.004482
v 0.048548 0.205599 -0.004482
v 0.048548 0.205599 -0.004482
v 0.021822 0.364790 0.221839
v 0.021822 0.364790 0.221839
v 0.021822 0.364790 0.221839
v 0.260611 0.303034 0.046918
v 0.260611 0.303034 0.046918
v 0.260611 0.303034 0.046918
v 0.019668 0.202149 0.039914
v 0.143786 0.322329 0.155738
v 0.143786 0.322329 0.155738
v 0.143786 0.322329 0.155738
v 0.143786 0.322329 0.155738
v 0.143786 0.322329 0.155738
v 0.143786 0.322329 0.155738
v 0.143786 0.322329 0.155738
v 0.204928 0.478909 0.205549
v 0.204928 0.478909 0.205549
v 0.204928 0.478909 0.205549
v 0.198039 0.495998 0.190112
v 0.198039 0.495998 0.190112
v 0.198039 0.495998 0.190112
v 0.198039 0.495998 0.190112
v 0.198039 0.495998 0.190112
v 0.136898 0.339417 0.140301
v 0.136898 0.339417 0.140301
v 0.136898 0.339417 0.140301
v 0.136898 0.339417 0.140301
v 0.136898 0.339417 0.140301
v 0.136898 0.339417 0.140301
v 0.136898 0.339417 0.140301
v 0.015827 0.211679 0.031305
vt 0.375000 0.000000
vt 0.497039 0.250000
vt 0.375000 0.250000
vt 0.497039 0.333333
vt 0.497039 0.416667
vt 0.375000 0.833333
vt 0.497039 0.833333
vt 0.497039 0.916667
vt 0.497039 1.000000
vt 0.791667 0.000000
vt 0.708333 0.250000
vt 0.625000 0.000000
vt 0.625000 0.250000
vt 0.291667 0.000000
vt 0.291667 0.250000
vt 0.208333 0.250000
vt 0.625000 0.916667
vt 0.625000 0.416667
vt 0.375000 1.000000
vt 0.375000 1.000000
vt 0.375000 0.000000
vt 0.375000 0.000000
vt 0.375000 0.000000
vt 0.625000 1.000000
vt 0.625000 1.000000
vt 0.625000 0.000000
vt 0.625000 0.000000
vt 0.625000 0.000000
vt 0.375000 0.250000
vt 0.375000 0.250000
vt 0.375000 0.250000
vt 0.625000 0.250000
vt 0.625000 0.250000
vt 0.625000 0.250000
vt 0.291667 0.250000
vt 0.375000 0.333333
vt 0.375000 0.333333
vt 0.291667 0.250000
vt 0.291667 0.250000
vt 0.708333 0.250000
vt 0.708333 0.250000
vt 0.625000 0.333333
vt 0.708333 0.250000
vt 0.625000 0.333333
vt 0.375000 0.416667
vt 0.375000 0.416667
vt 0.625000 0.416667
vt 0.791667 0.250000
vt 0.375000 0.833333
vt 0.208333 0.000000
vt 0.208333 0.000000
vt 0.791667 0.000000
vt 0.625000 0.833333
vt 0.625000 0.833333
vt 0.375000 0.916667
vt 0.375000 0.916667
vt 0.291667 0.000000
vt 0.708333 0.000000
vt 0.708333 0.000000
vt 0.625000 0.916667
vt 0.497039 0.833333
vt 0.497039 0.916667
vt 0.497039 0.916667
vt 0.497039 0.916667
vt 0.497039 0.916667
vt 0.497039 0.916667
vt 0.497039 0.916667
vt 0.497039 0.916667
vt 0.497039 0.000000
vt 0.497039 0.000000
vt 0.497039 1.000000
vt 0.497039 0.250000
vt 0.497039 0.250000
vt 0.497039 0.250000
vt 0.497039 0.250000
vt 0.497039 0.250000
vt 0.497039 0.333333
vt 0.497039 0.333333
vt 0.497039 0.333333
vt 0.497039 0.333333
vt 0.497039 0.333333
vt 0.497039 0.333333
vt 0.497039 0.333333
vt 0.497039 0.416667
vn 0.548170 0.671444 0.498671
vn 0.541659 0.673149 0.503464
vn 0.471528 0.688191 0.551411
vn 0.471528 0.688191 0.551411
vn 0.541659 0.673149 0.503464
vn 0.471529 0.688191 0.551411
vn -0.479766 0.373204 -0.794068
vn -0.342452 0.650690 -0.677738
vn -0.285519 0.329665 -0.899889
vn -0.285519 0.329665 -0.899889
vn -0.342452 0.650690 -0.677738
vn -0.174996 0.519179 -0.836558
vn -0.174996 0.519179 -0.836558
vn -0.342452 0.650690 -0.677738
vn -0.024910 0.716779 -0.696856
vn -0.024910 0.716779 -0.696856
vn -0.342452 0.650690 -0.677738
vn -0.213951 0.789859 -0.574759
vn 0.185043 -0.817565 0.545295
vn 0.338201 -0.658062 0.672737
vn 0.000133 -0.745513 0.666491
vn 0.000133 -0.745513 0.666491
vn 0.338201 -0.658062 0.672737
vn 0.154376 -0.551282 0.819912
vn 0.154376 -0.551282 0.819912
vn 0.338201 -0.658062 0.672737
vn 0.285519 -0.329665 0.899889
vn 0.285519 -0.329665 0.899889
vn 0.338201 -0.658062 0.672737
vn 0.479766 -0.373204 0.794068
vn 0.675746 -0.325192 -0.661527
vn 0.416968 -0.510964 -0.751700
vn 0.862878 -0.099752 -0.495471
vn 0.862878 -0.099752 -0.495471
vn 0.416968 -0.510964 -0.751700
vn 0.416968 -0.510964 -0.751700
vn 0.675746 -0.325192 -0.661527
vn 0.862878 -0.099752 -0.495471
vn 0.958032 0.207943 -0.197316
vn 0.958032 0.207943 -0.197316
vn 0.862878 -0.099752 -0.495471
vn 0.958032 0.207943 -0.197316
vn -0.881375 0.067139 0.467623
vn -0.740380 0.261090 0.619410
vn -0.947039 -0.108849 0.302108
vn -0.947039 -0.108849 0.302108
vn -0.740380 0.261090 0.619410
vn -0.947039 -0.108849 0.302108
vn -0.881375 0.067139 0.467623
vn -0.466541 0.481927 0.741678
vn -0.740380 0.261090 0.619410
vn -0.740380 0.261090 0.619410
vn -0.466541 0.481927 0.741678
vn -0.466541 0.481927 0.741678
vn 0.185043 -0.817565 0.545295
vn 0.341652 -0.844588 0.412245
vn 0.338201 -0.658062 0.672737
vn 0.338201 -0.658062 0.672737
vn 0.341652 -0.844588 0.412245
vn 0.517604 -0.640088 0.567779
vn 0.479766 -0.373204 0.794068
vn 0.338201 -0.658062 0.672737
vn 0.635535 -0.396376 0.662557
vn 0.635535 -0.396376 0.662557
vn 0.338201 -0.658062 0.672737
vn 0.517604 -0.640088 0.567779
vn 0.548170 0.671444 0.498671
vn 0.597125 0.656752 0.460562
vn 0.541659 0.673149 0.503464
vn 0.541659 0.673149 0.503464
vn 0.597125 0.656752 0.460562
vn 0.597125 0.656752 0.460562
vn -0.479766 0.373204 -0.794068
vn -0.635535 0.396376 -0.662557
vn -0.342452 0.650690 -0.677738
vn -0.342452 0.650690 -0.677738
vn -0.635535 0.396376 -0.662557
vn -0.539072 0.605731 -0.585227
vn -0.213951 0.789859 -0.574759
vn -0.342452 0.650690 -0.677738
vn -0.372452 0.817782 -0.438763
vn -0.372452 0.817782 -0.438763
vn -0.342452 0.650690 -0.677738
vn -0.539072 0.605731 -0.585227
f 70/70/1 76/76/2 22/21/3
f 23/22/4 75/75/5 31/31/6
f 74/74/7 81/80/8 3/3/9
f 29/29/10 80/79/11 36/36/12
f 37/37/13 79/78/14 45/45/15
f 46/46/16 78/77/17 18/5/18
f 61/61/19 66/65/20 9/6/21
f 49/49/22 65/64/23 56/55/24
f 57/56/25 64/63/26 20/19/27
f 21/20/28 63/62/29 71/71/30
f 59/58/31 52/52/32 41/40/33
f 42/41/34 10/10/35 48/48/36
f 60/59/37 6/11/38 27/26/39
f 28/27/40 40/43/41 34/33/42
f 11/14/43 39/39/44 50/50/45
f 51/51/46 38/38/47 7/16/48
f 55/57/49 1/1/50 5/15/51
f 35/35/52 19/23/53 30/30/54
f 13/7/55 54/54/56 67/66/57
f 68/67/58 53/53/59 12/17/60
f 15/9/61 14/8/62 25/24/63
f 26/25/64 62/68/65 58/60/66
f 69/69/67 2/12/68 16/2/69
f 72/72/70 24/28/71 33/32/72
f 73/73/73 4/13/74 82/81/75
f 83/82/76 32/34/77 44/44/78
f 84/84/79 17/4/80 8/18/81
f 47/47/82 77/83/83 43/42/84
