# This file uses centimeters as units for non-parametric coordinates.

v 0.106103 0.522224 -0.133708
v -0.023773 0.529730 -0.183796
v -0.120425 0.603911 -0.116056
v -0.087200 0.670586 0.001772
v 0.042677 0.663081 0.051860
v 0.139328 0.588900 -0.015880
v 0.093023 0.593121 -0.145985
v 0.001186 0.598428 -0.181403
v -0.067157 0.650882 -0.133503
v -0.043663 0.698029 -0.050186
v 0.048173 0.692721 -0.014768
v 0.116516 0.640267 -0.062668
v 0.030987 0.665941 -0.111389
v 0.106103 0.522224 -0.133708
v 0.106103 0.522224 -0.133708
v -0.023773 0.529730 -0.183796
v -0.023773 0.529730 -0.183796
v -0.120425 0.603911 -0.116056
v -0.120425 0.603911 -0.116056
v -0.087200 0.670586 0.001772
v -0.087200 0.670586 0.001772
v 0.042677 0.663081 0.051860
v 0.042677 0.663081 0.051860
v 0.139328 0.588900 -0.015880
v 0.139328 0.588900 -0.015880
v 0.093023 0.593121 -0.145985
v 0.093023 0.593121 -0.145985
v 0.093023 0.593121 -0.145985
v 0.093023 0.593121 -0.145985
v 0.001186 0.598428 -0.181403
v 0.001186 0.598428 -0.181403
v 0.001186 0.598428 -0.181403
v 0.001186 0.598428 -0.181403
v -0.067157 0.650882 -0.133503
v -0.067157 0.650882 -0.133503
v -0.067157 0.650882 -0.133503
v -0.067157 0.650882 -0.133503
v -0.043663 0.698029 -0.050186
v -0.043663 0.698029 -0.050186
v -0.043663 0.698029 -0.050186
v -0.043663 0.698029 -0.050186
v 0.048173 0.692721 -0.014768
v 0.048173 0.692721 -0.014768
v 0.048173 0.692721 -0.014768
v 0.048173 0.692721 -0.014768
v 0.116516 0.640267 -0.062668
v 0.116516 0.640267 -0.062668
v 0.116516 0.640267 -0.062668
v 0.116516 0.640267 -0.062668
v 0.030987 0.665941 -0.111389
v 0.030987 0.665941 -0.111389
v 0.030987 0.665941 -0.111389
v 0.030987 0.665941 -0.111389
v 0.030987 0.665941 -0.111389
vt 0.000000 0.500000
vt 0.166667 0.500000
vt 0.166667 0.750000
vt 0.000000 0.750000
vt 0.333333 0.500000
vt 0.333333 0.750000
vt 0.500000 0.500000
vt 0.500000 0.750000
vt 0.666667 0.500000
vt 0.666667 0.750000
vt 0.833333 0.500000
vt 0.833333 0.750000
vt 0.750000 1.000000
vt 1.000000 0.500000
vt 1.000000 0.500000
vt 0.166667 0.500000
vt 0.166667 0.500000
vt 0.333333 0.500000
vt 0.333333 0.500000
vt 0.500000 0.500000
vt 0.500000 0.500000
vt 0.666667 0.500000
vt 0.666667 0.500000
vt 0.833333 0.500000
vt 0.833333 0.500000
vt 0.000000 0.750000
vt 0.000000 0.750000
vt 1.000000 0.750000
vt 1.000000 0.750000
vt 0.166667 0.750000
vt 0.166667 0.750000
vt 0.166667 0.750000
vt 0.166667 0.750000
vt 0.333333 0.750000
vt 0.333333 0.750000
vt 0.333333 0.750000
vt 0.333333 0.750000
vt 0.500000 0.750000
vt 0.500000 0.750000
vt 0.500000 0.750000
vt 0.500000 0.750000
vt 0.666667 0.750000
vt 0.666667 0.750000
vt 0.666667 0.750000
vt 0.666667 0.750000
vt 0.833333 0.750000
vt 0.833333 0.750000
vt 0.833333 0.750000
vt 0.833333 0.750000
vt 0.916667 1.000000
vt 0.083333 1.000000
vt 0.250000 1.000000
vt 0.416667 1.000000
vt 0.583333 1.000000
vn 0.353338 -0.095951 -0.930562
vn 0.353338 -0.095951 -0.930562
vn 0.353338 -0.095950 -0.930562
vn 0.353338 -0.095950 -0.930562
vn 0.353338 -0.095951 -0.930562
vn 0.353338 -0.095950 -0.930562
vn -0.457236 0.196346 -0.867400
vn -0.457236 0.196346 -0.867400
vn -0.457236 0.196346 -0.867400
vn -0.457236 0.196346 -0.867400
vn -0.457236 0.196346 -0.867400
vn -0.457236 0.196346 -0.867400
vn -0.684192 0.700367 -0.203390
vn -0.684192 0.700367 -0.203390
vn -0.684192 0.700367 -0.203390
vn -0.684192 0.700367 -0.203390
vn -0.684192 0.700367 -0.203390
vn -0.684192 0.700367 -0.203390
vn -0.100574 0.912092 0.397459
vn -0.100574 0.912092 0.397459
vn -0.100574 0.912092 0.397459
vn -0.100574 0.912092 0.397459
vn -0.100574 0.912092 0.397459
vn -0.100574 0.912092 0.397459
vn 0.709999 0.619796 0.334297
vn 0.709999 0.619796 0.334297
vn 0.709999 0.619796 0.334297
vn 0.709999 0.619796 0.334297
vn 0.709999 0.619796 0.334297
vn 0.709999 0.619796 0.334297
vn 0.936955 0.115774 -0.329714
vn 0.936955 0.115774 -0.329714
vn 0.936955 0.115774 -0.329714
vn 0.936955 0.115774 -0.329714
vn 0.936955 0.115774 -0.329714
vn 0.936955 0.115774 -0.329714
vn 0.314959 0.612680 -0.724861
vn 0.314959 0.612680 -0.724862
vn 0.314959 0.612680 -0.724861
vn 0.050007 0.708223 -0.704216
vn 0.050007 0.708223 -0.704216
vn 0.050007 0.708223 -0.704216
vn -0.024178 0.872972 -0.487171
vn -0.024178 0.872972 -0.487171
vn -0.024178 0.872972 -0.487171
vn 0.166589 0.942178 -0.290772
vn 0.166589 0.942178 -0.290772
vn 0.166589 0.942178 -0.290772
vn 0.431540 0.846636 -0.311418
vn 0.431540 0.846636 -0.311418
vn 0.431540 0.846636 -0.311418
vn 0.505725 0.681886 -0.528463
vn 0.505725 0.681886 -0.528463
vn 0.505725 0.681886 -0.528463
f 1/1/1 17/17/2 7/4/3
f 26/26/4 16/16/5 33/33/6
f 2/2/7 19/19/8 8/3/9
f 30/30/10 18/18/11 37/37/12
f 3/5/13 21/21/14 9/6/15
f 34/34/16 20/20/17 41/41/18
f 4/7/19 23/23/20 10/8/21
f 38/38/22 22/22/23 45/45/24
f 5/9/25 25/25/26 11/10/27
f 42/42/28 24/24/29 49/49/30
f 6/11/31 15/15/32 12/12/33
f 46/46/34 14/14/35 29/29/36
f 27/27/37 32/32/38 51/51/39
f 31/31/40 36/36/41 52/52/42
f 35/35/43 40/40/44 53/53/45
f 39/39/46 44/44/47 54/54/48
f 43/43/49 48/48/50 13/13/51
f 47/47/52 28/28/53 50/50/54
