# This file uses centimeters as units for non-parametric coordinates.

v 0.195082 -0.007452 -0.600400
v -0.510731 -0.007452 -0.371068
v -0.510731 -0.007452 0.371068
v 0.195082 -0.007452 0.600400
v 0.631298 -0.007452 0.000000
v 0.641427 3.569449 -0.713622
v -0.064386 3.569449 -0.484290
v -0.064386 3.569449 0.257845
v 0.641427 3.569449 0.487178
v 1.077643 3.569449 -0.113222
v 0.000000 -0.007452 0.000000
v 0.446345 3.569449 -0.113222
v 0.195082 1.862671 0.600400
v -0.510731 1.862671 0.371068
v -0.510731 1.862671 -0.371068
v 0.195082 1.862671 -0.600400
v 0.631298 1.862671 0.000000
v 0.354780 3.569449 -0.620485
v -0.091565 1.862671 -0.507263
v -0.091565 -0.007452 -0.507263
v 0.195082 -0.007452 -0.600400
v 0.195082 -0.007452 -0.600400
v 0.195082 -0.007452 -0.600400
v 0.195082 -0.007452 -0.600400
v -0.510731 -0.007452 -0.371068
v -0.510731 -0.007452 -0.371068
v -0.510731 -0.007452 -0.371068
v -0.510731 -0.007452 -0.371068
v -0.510731 -0.007452 0.371068
v -0.510731 -0.007452 0.371068
v -0.510731 -0.007452 0.371068
v -0.510731 -0.007452 0.371068
v 0.195082 -0.007452 0.600400
v 0.195082 -0.007452 0.600400
v 0.195082 -0.007452 0.600400
v 0.195082 -0.007452 0.600400
v 0.631298 -0.007452 0.000000
v 0.631298 -0.007452 0.000000
v 0.631298 -0.007452 0.000000
v 0.631298 -0.007452 0.000000
v 0.641427 3.569449 -0.713622
v 0.641427 3.569449 -0.713622
v 0.641427 3.569449 -0.713622
v 0.641427 3.569449 -0.713622
v -0.064386 3.569449 -0.484290
v -0.064386 3.569449 -0.484290
v -0.064386 3.569449 -0.484290
v -0.064386 3.569449 -0.484290
v -0.064386 3.569449 0.257845
v -0.064386 3.569449 0.257845
v -0.064386 3.569449 0.257845
v -0.064386 3.569449 0.257845
v -0.064386 3.569449 0.257845
v 0.641427 3.569449 0.487178
v 0.641427 3.569449 0.487178
v 0.641427 3.569449 0.487178
v 0.641427 3.569449 0.487178
v 1.077643 3.569449 -0.113222
v 1.077643 3.569449 -0.113222
v 1.077643 3.569449 -0.113222
v 0.000000 -0.007452 0.000000
v 0.000000 -0.007452 0.000000
v 0.000000 -0.007452 0.000000
v 0.000000 -0.007452 0.000000
v 0.000000 -0.007452 0.000000
v 0.446345 3.569449 -0.113222
v 0.446345 3.569449 -0.113222
v 0.446345 3.569449 -0.113222
v 0.446345 3.569449 -0.113222
v 0.446345 3.569449 -0.113222
v 0.195082 1.862671 0.600400
v 0.195082 1.862671 0.600400
v 0.195082 1.862671 0.600400
v 0.195082 1.862671 0.600400
v 0.195082 1.862671 0.600400
v -0.510731 1.862671 0.371068
v -0.510731 1.862671 0.371068
v -0.510731 1.862671 0.371068
v -0.510731 1.862671 0.371068
v -0.510731 1.862671 -0.371068
v -0.510731 1.862671 -0.371068
v -0.510731 1.862671 -0.371068
v -0.510731 1.862671 -0.371068
v -0.510731 1.862671 -0.371068
v 0.195082 1.862671 -0.600400
v 0.195082 1.862671 -0.600400
v 0.195082 1.862671 -0.600400
v 0.195082 1.862671 -0.600400
v 0.195082 1.862671 -0.600400
v 0.631298 1.862671 0.000000
v 0.631298 1.862671 0.000000
v 0.631298 1.862671 0.000000
v 0.631298 1.862671 0.000000
v 0.631298 1.862671 0.000000
v 0.631298 1.862671 0.000000
v 0.354780 3.569449 -0.620485
v 0.354780 3.569449 -0.620485
v 0.354780 3.569449 -0.620485
v 0.354780 3.569449 -0.620485
v -0.091565 1.862671 -0.507263
v -0.091565 1.862671 -0.507263
v -0.091565 1.862671 -0.507263
v -0.091565 1.862671 -0.507263
v -0.091565 1.862671 -0.507263
v -0.091565 -0.007452 -0.507263
v -0.091565 -0.007452 -0.507263
v -0.091565 -0.007452 -0.507263
v -0.091565 -0.007452 -0.507263
vt 0.395306 0.312500
vt 0.425000 0.312500
vt 0.425000 0.522038
vt 0.395306 0.522038
vt 0.475000 0.312500
vt 0.475000 0.522038
vt 0.525000 0.312500
vt 0.525000 0.522038
vt 0.575000 0.312500
vt 0.575000 0.522038
vt 0.625000 0.312500
vt 0.500000 0.150000
vt 0.500000 0.837500
vt 0.525000 0.688440
vt 0.475000 0.688440
vt 0.425000 0.688440
vt 0.395306 0.688440
vt 0.625000 0.688440
vt 0.575000 0.688440
vt 0.375000 0.522038
vt 0.548284 0.007647
vt 0.548284 0.007647
vt 0.625000 0.312500
vt 0.375000 0.312500
vt 0.373591 0.064409
vt 0.373591 0.064409
vt 0.425000 0.312500
vt 0.425000 0.312500
vt 0.373591 0.248091
vt 0.373591 0.248091
vt 0.475000 0.312500
vt 0.475000 0.312500
vt 0.548284 0.304853
vt 0.548284 0.304853
vt 0.525000 0.312500
vt 0.525000 0.312500
vt 0.656250 0.156250
vt 0.656250 0.156250
vt 0.575000 0.312500
vt 0.575000 0.312500
vt 0.375000 0.688440
vt 0.548284 0.992353
vt 0.548284 0.992353
vt 0.625000 0.688440
vt 0.425000 0.688440
vt 0.373591 0.935591
vt 0.373591 0.935591
vt 0.425000 0.688440
vt 0.475000 0.688440
vt 0.475000 0.688440
vt 0.373591 0.751909
vt 0.373591 0.751909
vt 0.475000 0.688440
vt 0.525000 0.688440
vt 0.548284 0.695147
vt 0.548284 0.695147
vt 0.525000 0.688440
vt 0.656250 0.843750
vt 0.656250 0.843750
vt 0.575000 0.688440
vt 0.500000 0.150000
vt 0.500000 0.150000
vt 0.500000 0.150000
vt 0.500000 0.150000
vt 0.500000 0.150000
vt 0.500000 0.837500
vt 0.500000 0.837500
vt 0.500000 0.837500
vt 0.500000 0.837500
vt 0.500000 0.837500
vt 0.525000 0.522038
vt 0.525000 0.522038
vt 0.525000 0.522038
vt 0.525000 0.522038
vt 0.525000 0.522038
vt 0.475000 0.522038
vt 0.475000 0.522038
vt 0.475000 0.522038
vt 0.475000 0.522038
vt 0.425000 0.522038
vt 0.425000 0.522038
vt 0.425000 0.522038
vt 0.425000 0.522038
vt 0.425000 0.522038
vt 0.375000 0.522038
vt 0.375000 0.522038
vt 0.375000 0.522038
vt 0.625000 0.522038
vt 0.625000 0.522038
vt 0.575000 0.522038
vt 0.575000 0.522038
vt 0.575000 0.522038
vt 0.575000 0.522038
vt 0.575000 0.522038
vt 0.575000 0.522038
vt 0.395306 0.688440
vt 0.477337 0.969301
vt 0.477337 0.969301
vt 0.395306 0.688440
vt 0.395306 0.522038
vt 0.395306 0.522038
vt 0.395306 0.522038
vt 0.395306 0.522038
vt 0.395306 0.522038
vt 0.477337 0.030699
vt 0.477337 0.030699
vt 0.395306 0.312500
vt 0.395306 0.312500
vn -0.309017 0.000000 -0.951057
vn -0.309017 0.000000 -0.951057
vn -0.309005 0.008773 -0.951020
vn -0.309005 0.008773 -0.951020
vn -0.309017 0.000000 -0.951057
vn -0.309011 0.006304 -0.951038
vn -1.000000 0.000000 -0.000000
vn -1.000000 0.000000 -0.000000
vn -0.991591 0.129409 -0.000000
vn -0.991591 0.129409 -0.000000
vn -1.000000 0.000000 -0.000000
vn -0.993047 0.117717 -0.000000
vn -0.309017 0.000000 0.951057
vn -0.309017 0.000000 0.951057
vn -0.308556 0.054618 0.949637
vn -0.308556 0.054618 0.949637
vn -0.309017 0.000000 0.951057
vn -0.308061 0.078606 0.948114
vn 0.809017 -0.000000 0.587785
vn 0.809017 -0.000000 0.587785
vn 0.807179 -0.067375 0.586450
vn 0.807179 -0.067375 0.586450
vn 0.809017 -0.000000 0.587785
vn 0.805503 -0.093097 0.585233
vn 0.809017 0.000000 -0.587785
vn 0.809017 0.000000 -0.587785
vn 0.802501 -0.126660 -0.583051
vn 0.802501 -0.126660 -0.583051
vn 0.809017 0.000000 -0.587785
vn 0.804142 -0.109614 -0.584243
vn 0.000000 -1.000000 0.000000
vn 0.000000 -1.000000 0.000000
vn 0.000000 -1.000000 0.000000
vn 0.000000 -1.000000 0.000000
vn 0.000000 -1.000000 0.000000
vn 0.000000 -1.000000 0.000000
vn 0.000000 -1.000000 0.000000
vn 0.000000 -1.000000 0.000000
vn 0.000000 -1.000000 0.000000
vn 0.000000 -1.000000 0.000000
vn 0.000000 -1.000000 0.000000
vn 0.000000 -1.000000 0.000000
vn 0.000000 -1.000000 0.000000
vn 0.000000 -1.000000 0.000000
vn 0.000000 -1.000000 0.000000
vn 0.000000 -1.000000 0.000000
vn 0.000000 -1.000000 0.000000
vn 0.000000 -1.000000 0.000000
vn 0.000000 1.000000 0.000000
vn 0.000000 1.000000 0.000000
vn 0.000000 1.000000 0.000000
vn 0.000000 1.000000 0.000000
vn 0.000000 1.000000 0.000000
vn 0.000000 1.000000 0.000000
vn 0.000000 1.000000 0.000000
vn 0.000000 1.000000 0.000000
vn 0.000000 1.000000 0.000000
vn 0.000000 1.000000 0.000000
vn 0.000000 1.000000 0.000000
vn 0.000000 1.000000 0.000000
vn 0.000000 1.000000 0.000000
vn 0.000000 1.000000 0.000000
vn 0.000000 1.000000 0.000000
vn 0.000000 1.000000 0.000000
vn 0.000000 1.000000 0.000000
vn 0.000000 1.000000 0.000000
vn -0.308556 0.054618 0.949637
vn -0.308061 0.078606 0.948114
vn -0.305866 0.142435 0.941360
vn -0.305866 0.142435 0.941360
vn -0.308061 0.078606 0.948114
vn -0.305866 0.142435 0.941360
vn -0.993047 0.117717 -0.000000
vn -0.967465 0.253005 -0.000000
vn -0.991591 0.129409 -0.000000
vn -0.991591 0.129409 -0.000000
vn -0.967465 0.253005 -0.000000
vn -0.967465 0.253005 -0.000000
vn -0.309011 0.006304 -0.951038
vn -0.308968 0.017719 -0.950907
vn -0.309005 0.008773 -0.951020
vn -0.309005 0.008773 -0.951020
vn -0.308968 0.017719 -0.950907
vn -0.308969 0.017719 -0.950907
vn 0.804142 -0.109614 -0.584243
vn 0.784758 -0.243047 -0.570160
vn 0.802501 -0.126660 -0.583051
vn 0.802501 -0.126660 -0.583051
vn 0.784758 -0.243047 -0.570160
vn 0.784758 -0.243047 -0.570160
vn 0.807179 -0.067375 0.586450
vn 0.805503 -0.093097 0.585233
vn 0.797232 -0.170063 0.579223
vn 0.797232 -0.170063 0.579223
vn 0.805503 -0.093097 0.585233
vn 0.797232 -0.170063 0.579223
vn -0.309005 0.008773 -0.951020
vn -0.308969 0.017719 -0.950907
vn -0.309002 0.009925 -0.951010
vn -0.309002 0.009925 -0.951010
vn -0.308969 0.017719 -0.950907
vn -0.308969 0.017719 -0.950907
vn -0.309017 0.000000 -0.951057
vn -0.309017 0.000000 -0.951057
vn -0.309002 0.009925 -0.951010
vn -0.309002 0.009925 -0.951010
vn -0.309017 0.000000 -0.951057
vn -0.309005 0.008773 -0.951020
f 108/107/1 2/2/2 103/103/3
f 104/104/4 25/27/5 82/82/6
f 28/28/7 3/5/8 83/83/9
f 84/84/10 29/31/11 79/79/12
f 32/32/13 4/7/14 14/6/15
f 76/76/16 33/35/17 72/71/18
f 36/36/19 5/9/20 73/72/21
f 74/73/22 37/39/23 91/90/24
f 40/40/25 1/11/26 92/91/27
f 93/92/28 21/23/29 89/89/30
f 26/25/31 107/106/32 11/12/33
f 61/61/34 106/105/35 23/22/36
f 30/29/37 27/26/38 65/65/39
f 34/33/40 31/30/41 64/64/42
f 38/37/43 35/34/44 63/63/45
f 22/21/46 39/38/47 62/62/48
f 43/42/49 99/98/50 12/13/51
f 66/66/52 98/97/53 48/47/54
f 47/46/55 53/52/56 67/67/57
f 52/51/58 56/56/59 68/68/60
f 55/55/61 60/59/62 69/69/63
f 59/58/64 44/43/65 70/70/66
f 77/77/67 13/8/68 50/49/69
f 51/50/70 71/74/71 57/57/72
f 78/78/73 8/15/74 15/3/75
f 80/80/76 49/53/77 46/45/78
f 81/81/79 7/16/80 19/4/81
f 100/100/82 45/48/83 97/96/84
f 88/88/85 6/18/86 94/93/87
f 95/94/88 41/44/89 10/19/90
f 75/75/91 17/10/92 9/14/93
f 54/54/94 90/95/95 58/60/96
f 101/101/97 18/17/98 86/86/99
f 87/87/100 96/99/101 42/41/102
f 24/24/103 20/1/104 16/20/105
f 85/85/106 105/108/107 102/102/108
