# This file uses centimeters as units for non-parametric coordinates.

v -9.200000 0.000000 -1.000000
v -8.476393 0.525731 -0.447214
v -9.476393 0.850651 -0.447214
v -10.094427 -0.000000 -0.447214
v -9.476393 -0.850651 -0.447214
v -8.476393 -0.525731 -0.447214
v -8.305573 0.000000 0.447214
v -8.976733 0.902713 0.402503
v -9.923607 0.525731 0.447214
v -9.923607 -0.525731 0.447214
v -8.923607 -0.850651 0.447214
v -9.200000 0.000000 1.000000
v -9.200000 0.000000 -1.000000
v -9.200000 0.000000 -1.000000
v -9.200000 0.000000 -1.000000
v -9.200000 0.000000 -1.000000
v -8.476393 0.525731 -0.447214
v -8.476393 0.525731 -0.447214
v -8.476393 0.525731 -0.447214
v -8.476393 0.525731 -0.447214
v -9.476393 0.850651 -0.447214
v -9.476393 0.850651 -0.447214
v -9.476393 0.850651 -0.447214
v -9.476393 0.850651 -0.447214
v -10.094427 -0.000000 -0.447214
v -10.094427 -0.000000 -0.447214
v -10.094427 -0.000000 -0.447214
v -10.094427 -0.000000 -0.447214
v -9.476393 -0.850651 -0.447214
v -9.476393 -0.850651 -0.447214
v -9.476393 -0.850651 -0.447214
v -9.476393 -0.850651 -0.447214
v -8.476393 -0.525731 -0.447214
v -8.476393 -0.525731 -0.447214
v -8.476393 -0.525731 -0.447214
v -8.476393 -0.525731 -0.447214
v -8.305573 0.000000 0.447214
v -8.305573 0.000000 0.447214
v -8.305573 0.000000 0.447214
v -8.305573 0.000000 0.447214
v -8.976733 0.902713 0.402503
v -8.976733 0.902713 0.402503
v -8.976733 0.902713 0.402503
v -8.976733 0.902713 0.402503
v -9.923607 0.525731 0.447214
v -9.923607 0.525731 0.447214
v -9.923607 0.525731 0.447214
v -9.923607 0.525731 0.447214
v -9.923607 -0.525731 0.447214
v -9.923607 -0.525731 0.447214
v -9.923607 -0.525731 0.447214
v -9.923607 -0.525731 0.447214
v -8.923607 -0.850651 0.447214
v -8.923607 -0.850651 0.447214
v -8.923607 -0.850651 0.447214
v -8.923607 -0.850651 0.447214
v -9.200000 0.000000 1.000000
v -9.200000 0.000000 1.000000
v -9.200000 0.000000 1.000000
v -9.200000 0.000000 1.000000
vt 1.000000 0.500000
vt 0.838104 0.676208
vt 0.088104 0.823792
vt 0.176208 0.500000
vt 0.838104 0.323792
vt 0.676208 0.500000
vt 0.588104 0.823792
vt 0.338104 0.676208
vt 0.338104 0.323792
vt 0.588104 0.176208
vt 0.500000 0.500000
vt 1.088104 0.176208
vt 1.000000 0.500000
vt 1.000000 0.500000
vt 1.000000 0.500000
vt 1.000000 0.500000
vt 0.838104 0.676208
vt 0.838104 0.676208
vt 0.838104 0.676208
vt 0.838104 0.676208
vt 0.088104 0.823792
vt 1.088104 0.823792
vt 1.088104 0.823792
vt 1.088104 0.823792
vt 0.176208 0.500000
vt 0.176208 0.500000
vt 1.176208 0.500000
vt 1.176208 0.500000
vt 0.088104 0.176208
vt 0.088104 0.176208
vt 1.088104 0.176208
vt 1.088104 0.176208
vt 0.838104 0.323792
vt 0.838104 0.323792
vt 0.838104 0.323792
vt 0.838104 0.323792
vt 0.676208 0.500000
vt 0.676208 0.500000
vt 0.676208 0.500000
vt 0.676208 0.500000
vt 0.588104 0.823792
vt 0.588104 0.823792
vt 0.588104 0.823792
vt 0.588104 0.823792
vt 0.338104 0.676208
vt 0.338104 0.676208
vt 0.338104 0.676208
vt 0.338104 0.676208
vt 0.338104 0.323792
vt 0.338104 0.323792
vt 0.338104 0.323792
vt 0.338104 0.323792
vt 0.588104 0.176208
vt 0.588104 0.176208
vt 0.588104 0.176208
vt 0.588104 0.176208
vt 0.500000 0.500000
vt 0.500000 0.500000
vt 0.500000 0.500000
vt 0.500000 0.500000
vn 0.187593 0.577350 -0.794654
vn 0.187593 0.577350 -0.794655
vn 0.187593 0.577350 -0.794654
vn -0.491124 0.356822 -0.794655
vn -0.491123 0.356822 -0.794654
vn -0.491124 0.356822 -0.794655
vn -0.491123 -0.356822 -0.794654
vn -0.491123 -0.356822 -0.794655
vn -0.491123 -0.356822 -0.794655
vn 0.187592 -0.577350 -0.794654
vn 0.187592 -0.577350 -0.794654
vn 0.187592 -0.577350 -0.794654
vn 0.607062 -0.000000 -0.794654
vn 0.607062 -0.000000 -0.794654
vn 0.607062 -0.000000 -0.794654
vn 0.300485 0.924799 -0.233357
vn 0.300485 0.924799 -0.233357
vn 0.300485 0.924799 -0.233357
vn -0.794655 0.577350 -0.187592
vn -0.794655 0.577350 -0.187592
vn -0.794655 0.577350 -0.187592
vn -0.794654 -0.577350 -0.187592
vn -0.794654 -0.577350 -0.187592
vn -0.794654 -0.577350 -0.187592
vn 0.303531 -0.934172 -0.187593
vn 0.303531 -0.934172 -0.187593
vn 0.303531 -0.934172 -0.187593
vn 0.982247 0.000000 -0.187593
vn 0.982247 0.000000 -0.187593
vn 0.982247 0.000000 -0.187593
vn 0.781866 0.591125 0.198131
vn 0.781866 0.591125 0.198131
vn 0.781866 0.591125 0.198131
vn -0.359119 0.920367 0.154783
vn -0.359119 0.920367 0.154783
vn -0.359119 0.920367 0.154783
vn -0.982247 0.000000 0.187593
vn -0.982247 0.000000 0.187593
vn -0.982247 0.000000 0.187593
vn -0.303531 -0.934172 0.187592
vn -0.303531 -0.934172 0.187592
vn -0.303531 -0.934172 0.187592
vn 0.794654 -0.577350 0.187592
vn 0.794654 -0.577350 0.187592
vn 0.794655 -0.577350 0.187592
vn 0.482444 0.397357 0.780612
vn 0.482444 0.397357 0.780612
vn 0.482444 0.397357 0.780612
vn -0.191012 0.574192 0.796127
vn -0.191012 0.574192 0.796127
vn -0.191012 0.574192 0.796127
vn -0.607062 -0.000000 0.794655
vn -0.607062 -0.000000 0.794655
vn -0.607062 -0.000000 0.794655
vn -0.187592 -0.577350 0.794654
vn -0.187592 -0.577350 0.794654
vn -0.187592 -0.577350 0.794654
vn 0.491123 -0.356822 0.794655
vn 0.491123 -0.356822 0.794655
vn 0.491123 -0.356822 0.794655
f 16/15/1 23/23/2 19/18/3
f 15/14/4 27/27/5 24/24/6
f 14/13/7 31/31/8 28/28/9
f 1/1/10 35/35/11 32/32/12
f 13/16/13 18/17/14 36/36/15
f 20/19/16 22/22/17 43/42/18
f 3/3/19 26/26/20 47/46/21
f 4/4/22 30/30/23 51/50/24
f 5/12/25 34/34/26 55/54/27
f 6/5/28 2/2/29 39/39/30
f 17/20/31 42/41/32 40/40/33
f 21/21/34 46/45/35 44/43/36
f 25/25/37 50/49/38 48/47/39
f 29/29/40 54/53/41 52/51/42
f 33/33/43 38/38/44 56/55/45
f 7/6/46 8/7/47 58/58/48
f 41/44/49 9/8/50 59/59/51
f 45/48/52 10/9/53 60/60/54
f 49/52/55 11/10/56 12/11/57
f 53/56/58 37/37/59 57/57/60
