# This file uses centimeters as units for non-parametric coordinates.

v 0.000000 -0.866025 11.894460
v -0.500000 -0.866025 12.394460
v -0.000000 -0.866025 12.894460
v 0.500000 -0.866025 12.394460
v 0.000000 -0.500000 11.528434
v -0.866025 -0.500000 12.394460
v -0.000000 -0.500000 13.260485
v 0.866025 -0.500000 12.394460
v 0.000000 0.000000 11.394460
v -1.000000 0.000000 12.394460
v -0.000000 0.000000 13.394460
v 1.000000 0.000000 12.394460
v 0.000000 0.500000 11.528434
v -0.866025 0.500000 12.394460
v -0.000000 0.500000 13.260485
v 0.866025 0.500000 12.394460
v 0.000000 0.866025 11.894460
v -0.500000 0.866025 12.394460
v -0.000000 0.866025 12.894460
v 0.500000 0.866025 12.394460
v 0.000000 -1.000000 12.394460
v 0.000000 1.000000 12.394460
v 0.000000 -0.866025 11.894460
v 0.000000 -0.866025 11.894460
v 0.000000 -0.866025 11.894460
v 0.000000 -0.866025 11.894460
v -0.500000 -0.866025 12.394460
v -0.500000 -0.866025 12.394460
v -0.500000 -0.866025 12.394460
v -0.500000 -0.866025 12.394460
v -0.000000 -0.866025 12.894460
v -0.000000 -0.866025 12.894460
v -0.000000 -0.866025 12.894460
v -0.000000 -0.866025 12.894460
v 0.500000 -0.866025 12.394460
v 0.500000 -0.866025 12.394460
v 0.500000 -0.866025 12.394460
v 0.500000 -0.866025 12.394460
v 0.000000 -0.500000 11.528434
v 0.000000 -0.500000 11.528434
v 0.000000 -0.500000 11.528434
v 0.000000 -0.500000 11.528434
v 0.000000 -0.500000 11.528434
v -0.866025 -0.500000 12.394460
v -0.866025 -0.500000 12.394460
v -0.866025 -0.500000 12.394460
v -0.866025 -0.500000 12.394460
v -0.866025 -0.500000 12.394460
v -0.000000 -0.500000 13.260485
v -0.000000 -0.500000 13.260485
v -0.000000 -0.500000 13.260485
v -0.000000 -0.500000 13.260485
v -0.000000 -0.500000 13.260485
v 0.866025 -0.500000 12.394460
v 0.866025 -0.500000 12.394460
v 0.866025 -0.500000 12.394460
v 0.866025 -0.500000 12.394460
v 0.866025 -0.500000 12.394460
v 0.000000 0.000000 11.394460
v 0.000000 0.000000 11.394460
v 0.000000 0.000000 11.394460
v 0.000000 0.000000 11.394460
v 0.000000 0.000000 11.394460
v -1.000000 0.000000 12.394460
v -1.000000 0.000000 12.394460
v -1.000000 0.000000 12.394460
v -1.000000 0.000000 12.394460
v -1.000000 0.000000 12.394460
v -0.000000 0.000000 13.394460
v -0.000000 0.000000 13.394460
v -0.000000 0.000000 13.394460
v -0.000000 0.000000 13.394460
v -0.000000 0.000000 13.394460
v 1.000000 0.000000 12.394460
v 1.000000 0.000000 12.394460
v 1.000000 0.000000 12.394460
v 1.000000 0.000000 12.394460
v 1.000000 0.000000 12.394460
v 0.000000 0.500000 11.528434
v 0.000000 0.500000 11.528434
v 0.000000 0.500000 11.528434
v 0.000000 0.500000 11.528434
v 0.000000 0.500000 11.528434
v -0.866025 0.500000 12.394460
v -0.866025 0.500000 12.394460
v -0.866025 0.500000 12.394460
v -0.866025 0.500000 12.394460
v -0.866025 0.500000 12.394460
v -0.000000 0.500000 13.260485
v -0.000000 0.500000 13.260485
v -0.000000 0.500000 13.260485
v -0.000000 0.500000 13.260485
v -0.000000 0.500000 13.260485
v 0.866025 0.500000 12.394460
v 0.866025 0.500000 12.394460
v 0.866025 0.500000 12.394460
v 0.866025 0.500000 12.394460
v 0.866025 0.500000 12.394460
v 0.000000 0.866025 11.894460
v 0.000000 0.866025 11.894460
v 0.000000 0.866025 11.894460
v 0.000000 0.866025 11.894460
v -0.500000 0.866025 12.394460
v -0.500000 0.866025 12.394460
v -0.500000 0.866025 12.394460
v -0.500000 0.866025 12.394460
v -0.000000 0.866025 12.894460
v -0.000000 0.866025 12.894460
v -0.000000 0.866025 12.894460
v -0.000000 0.866025 12.894460
v 0.500000 0.866025 12.394460
v 0.500000 0.866025 12.394460
v 0.500000 0.866025 12.394460
v 0.500000 0.866025 12.394460
v 0.000000 -1.000000 12.394460
v 0.000000 -1.000000 12.394460
v 0.000000 -1.000000 12.394460
v 0.000000 1.000000 12.394460
v 0.000000 1.000000 12.394460
v 0.000000 1.000000 12.394460
vt 0.250000 0.166667
vt 0.500000 0.166667
vt 0.750000 0.166667
vt 1.000000 0.166667
vt 0.250000 0.333333
vt 0.500000 0.333333
vt 0.750000 0.333333
vt 1.000000 0.333333
vt 0.250000 0.500000
vt 0.500000 0.500000
vt 0.750000 0.500000
vt 1.000000 0.500000
vt 0.250000 0.666667
vt 0.500000 0.666667
vt 0.750000 0.666667
vt 1.000000 0.666667
vt 0.000000 0.833333
vt 0.250000 0.833333
vt 0.500000 0.833333
vt 0.750000 0.833333
vt 0.625000 0.000000
vt 0.625000 1.000000
vt 1.000000 0.166667
vt 0.000000 0.166667
vt 1.000000 0.166667
vt 0.000000 0.166667
vt 0.250000 0.166667
vt 0.250000 0.166667
vt 0.250000 0.166667
vt 0.250000 0.166667
vt 0.500000 0.166667
vt 0.500000 0.166667
vt 0.500000 0.166667
vt 0.500000 0.166667
vt 0.750000 0.166667
vt 0.750000 0.166667
vt 0.750000 0.166667
vt 0.750000 0.166667
vt 1.000000 0.333333
vt 0.000000 0.333333
vt 0.000000 0.333333
vt 1.000000 0.333333
vt 0.000000 0.333333
vt 0.250000 0.333333
vt 0.250000 0.333333
vt 0.250000 0.333333
vt 0.250000 0.333333
vt 0.250000 0.333333
vt 0.500000 0.333333
vt 0.500000 0.333333
vt 0.500000 0.333333
vt 0.500000 0.333333
vt 0.500000 0.333333
vt 0.750000 0.333333
vt 0.750000 0.333333
vt 0.750000 0.333333
vt 0.750000 0.333333
vt 0.750000 0.333333
vt 1.000000 0.500000
vt 0.000000 0.500000
vt 0.000000 0.500000
vt 1.000000 0.500000
vt 0.000000 0.500000
vt 0.250000 0.500000
vt 0.250000 0.500000
vt 0.250000 0.500000
vt 0.250000 0.500000
vt 0.250000 0.500000
vt 0.500000 0.500000
vt 0.500000 0.500000
vt 0.500000 0.500000
vt 0.500000 0.500000
vt 0.500000 0.500000
vt 0.750000 0.500000
vt 0.750000 0.500000
vt 0.750000 0.500000
vt 0.750000 0.500000
vt 0.750000 0.500000
vt 1.000000 0.666667
vt 0.000000 0.666667
vt 0.000000 0.666667
vt 1.000000 0.666667
vt 0.000000 0.666667
vt 0.250000 0.666667
vt 0.250000 0.666667
vt 0.250000 0.666667
vt 0.250000 0.666667
vt 0.250000 0.666667
vt 0.500000 0.666667
vt 0.500000 0.666667
vt 0.500000 0.666667
vt 0.500000 0.666667
vt 0.500000 0.666667
vt 0.750000 0.666667
vt 0.750000 0.666667
vt 0.750000 0.666667
vt 0.750000 0.666667
vt 0.750000 0.666667
vt 0.000000 0.833333
vt 0.000000 0.833333
vt 1.000000 0.833333
vt 1.000000 0.833333
vt 0.250000 0.833333
vt 0.250000 0.833333
vt 0.250000 0.833333
vt 0.250000 0.833333
vt 0.500000 0.833333
vt 0.500000 0.833333
vt 0.500000 0.833333
vt 0.500000 0.833333
vt 0.750000 0.833333
vt 0.750000 0.833333
vt 0.750000 0.833333
vt 0.750000 0.833333
vt 0.375000 0.000000
vt 0.875000 0.000000
vt 0.125000 0.000000
vt 0.875000 1.000000
vt 0.125000 1.000000
vt 0.375000 1.000000
vn -0.577350 -0.577350 -0.577350
vn -0.577350 -0.577350 -0.577350
vn -0.577350 -0.577350 -0.577350
vn -0.577350 -0.577350 -0.577350
vn -0.577350 -0.577350 -0.577350
vn -0.577350 -0.577350 -0.577350
vn -0.577350 -0.577350 0.577350
vn -0.577350 -0.577350 0.577350
vn -0.577350 -0.577350 0.577350
vn -0.577350 -0.577350 0.577350
vn -0.577350 -0.577350 0.577350
vn -0.577350 -0.577350 0.577350
vn 0.577350 -0.577350 0.577350
vn 0.577350 -0.577350 0.577350
vn 0.577350 -0.577350 0.577350
vn 0.577350 -0.577350 0.577350
vn 0.577350 -0.577350 0.577350
vn 0.577350 -0.577350 0.577350
vn 0.577350 -0.577350 -0.577350
vn 0.577350 -0.577350 -0.577350
vn 0.577350 -0.577350 -0.577350
vn 0.577350 -0.577350 -0.577350
vn 0.577350 -0.577350 -0.577350
vn 0.577350 -0.577350 -0.577350
vn -0.694747 -0.186157 -0.694747
vn -0.694747 -0.186157 -0.694747
vn -0.694747 -0.186157 -0.694747
vn -0.694747 -0.186157 -0.694747
vn -0.694747 -0.186157 -0.694747
vn -0.694747 -0.186157 -0.694747
vn -0.694747 -0.186157 0.694747
vn -0.694747 -0.186157 0.694747
vn -0.694747 -0.186157 0.694747
vn -0.694747 -0.186157 0.694747
vn -0.694747 -0.186157 0.694747
vn -0.694747 -0.186157 0.694747
vn 0.694747 -0.186157 0.694747
vn 0.694747 -0.186157 0.694747
vn 0.694747 -0.186157 0.694747
vn 0.694747 -0.186157 0.694747
vn 0.694747 -0.186157 0.694747
vn 0.694747 -0.186157 0.694747
vn 0.694747 -0.186157 -0.694747
vn 0.694747 -0.186157 -0.694747
vn 0.694747 -0.186157 -0.694747
vn 0.694747 -0.186157 -0.694747
vn 0.694747 -0.186157 -0.694747
vn 0.694747 -0.186157 -0.694747
vn -0.694747 0.186157 -0.694747
vn -0.694747 0.186157 -0.694747
vn -0.694747 0.186157 -0.694747
vn -0.694747 0.186157 -0.694747
vn -0.694746 0.186157 -0.694747
vn -0.694746 0.186157 -0.694747
vn -0.694747 0.186157 0.694747
vn -0.694747 0.186157 0.694747
vn -0.694747 0.186157 0.694747
vn -0.694747 0.186157 0.694747
vn -0.694747 0.186157 0.694747
vn -0.694747 0.186157 0.694747
vn 0.694747 0.186157 0.694747
vn 0.694747 0.186157 0.694747
vn 0.694747 0.186157 0.694747
vn 0.694747 0.186157 0.694747
vn 0.694747 0.186157 0.694747
vn 0.694747 0.186157 0.694747
vn 0.694747 0.186157 -0.694747
vn 0.694747 0.186157 -0.694747
vn 0.694747 0.186157 -0.694747
vn 0.694747 0.186157 -0.694747
vn 0.694747 0.186157 -0.694747
vn 0.694747 0.186157 -0.694747
vn -0.577350 0.577350 -0.577350
vn -0.577350 0.577350 -0.577350
vn -0.577350 0.577350 -0.577350
vn -0.577350 0.577350 -0.577351
vn -0.577350 0.577350 -0.577351
vn -0.577350 0.577350 -0.577351
vn -0.577350 0.577350 0.577350
vn -0.577350 0.577350 0.577350
vn -0.577350 0.577350 0.577350
vn -0.577350 0.577350 0.577350
vn -0.577350 0.577350 0.577350
vn -0.577350 0.577350 0.577350
vn 0.577350 0.577350 0.577350
vn 0.577350 0.577350 0.577350
vn 0.577350 0.577350 0.577350
vn 0.577350 0.577350 0.577350
vn 0.577350 0.577350 0.577350
vn 0.577350 0.577350 0.577350
vn 0.577350 0.577350 -0.577350
vn 0.577350 0.577350 -0.577350
vn 0.577350 0.577350 -0.577350
vn 0.577350 0.577350 -0.577350
vn 0.577350 0.577350 -0.577350
vn 0.577350 0.577350 -0.577350
vn -0.250563 -0.935113 -0.250563
vn -0.250563 -0.935113 -0.250563
vn -0.250563 -0.935113 -0.250563
vn -0.250563 -0.935113 0.250563
vn -0.250563 -0.935113 0.250563
vn -0.250563 -0.935113 0.250563
vn 0.250563 -0.935113 0.250563
vn 0.250563 -0.935113 0.250563
vn 0.250563 -0.935113 0.250563
vn 0.250563 -0.935113 -0.250563
vn 0.250563 -0.935113 -0.250563
vn 0.250563 -0.935113 -0.250563
vn -0.250563 0.935113 -0.250563
vn -0.250563 0.935113 -0.250563
vn -0.250563 0.935113 -0.250563
vn -0.250563 0.935113 0.250563
vn -0.250563 0.935113 0.250563
vn -0.250563 0.935113 0.250563
vn 0.250563 0.935113 0.250563
vn 0.250563 0.935113 0.250563
vn 0.250563 0.935113 0.250563
vn 0.250563 0.935113 -0.250563
vn 0.250563 0.935113 -0.250563
vn 0.250563 0.935113 -0.250563
f 26/26/1 2/1/2 41/40/3
f 42/41/4 27/29/5 45/44/6
f 30/30/7 3/2/8 46/45/9
f 47/46/10 31/33/11 50/49/12
f 34/34/13 4/3/14 51/50/15
f 52/51/16 35/37/17 55/54/18
f 38/38/19 1/4/20 56/55/21
f 57/56/22 23/25/23 40/39/24
f 43/43/25 6/5/26 61/60/27
f 62/61/28 44/47/29 65/64/30
f 48/48/31 7/6/32 66/65/33
f 67/66/34 49/52/35 70/69/36
f 53/53/37 8/7/38 71/70/39
f 72/71/40 54/57/41 75/74/42
f 58/58/43 5/8/44 76/75/45
f 77/76/46 39/42/47 60/59/48
f 63/63/49 10/9/50 81/80/51
f 82/81/52 64/67/53 85/84/54
f 68/68/55 11/10/56 86/85/57
f 87/86/58 69/72/59 90/89/60
f 73/73/61 12/11/62 91/90/63
f 92/91/64 74/77/65 95/94/66
f 78/78/67 9/12/68 96/95/69
f 97/96/70 59/62/71 80/79/72
f 83/83/73 14/13/74 17/17/75
f 99/99/76 84/87/77 106/106/78
f 88/88/79 15/14/80 18/18/81
f 103/103/82 89/92/83 110/110/84
f 93/93/85 16/15/86 19/19/87
f 107/107/88 94/97/89 114/114/90
f 98/98/91 13/16/92 20/20/93
f 111/111/94 79/82/95 102/102/96
f 28/27/97 25/24/98 117/117/99
f 32/31/100 29/28/101 116/115/102
f 36/35/103 33/32/104 21/21/105
f 24/23/106 37/36/107 115/116/108
f 100/100/109 105/105/110 119/119/111
f 104/104/112 109/109/113 120/120/114
f 108/108/115 113/113/116 22/22/117
f 112/112/118 101/101/119 118/118/120
