# This file uses centimeters as units for non-parametric coordinates.

v -0.500000 -1.000000 -0.866026
v -0.500000 -1.000000 0.866025
v 1.000000 -1.000000 0.000000
v 0.000000 1.000000 0.000000
v -0.500000 -1.000000 -0.866026
v -0.500000 -1.000000 -0.866026
v -0.500000 -1.000000 0.866025
v -0.500000 -1.000000 0.866025
v 1.000000 -1.000000 0.000000
v 1.000000 -1.000000 0.000000
v 0.000000 1.000000 0.000000
v 0.000000 1.000000 0.000000
vt 0.416667 0.500000
vt 0.583333 0.500000
vt 0.750000 0.500000
vt 0.500000 1.000000
vt 0.250000 0.500000
vt 0.375000 0.033494
vt 0.416667 0.500000
vt 0.375000 0.466506
vt 0.583333 0.500000
vt 0.750000 0.250000
vt 0.500000 1.000000
vt 0.500000 1.000000
vn 0.000000 -1.000000 0.000000
vn 0.000000 -1.000000 0.000000
vn 0.000000 -1.000000 0.000000
vn -0.970143 0.242536 -0.000000
vn -0.970143 0.242536 -0.000000
vn -0.970143 0.242536 -0.000000
vn 0.485071 0.242536 0.840168
vn 0.485071 0.242536 0.840168
vn 0.485071 0.242536 0.840168
vn 0.485071 0.242536 -0.840168
vn 0.485071 0.242536 -0.840168
vn 0.485071 0.242536 -0.840168
f 6/6/1 10/10/2 8/8/3
f 5/5/4 2/1/5 12/12/6
f 7/7/7 3/2/8 4/4/9
f 9/9/10 1/3/11 11/11/12
