# This file uses centimeters as units for non-parametric coordinates.

v 9.600782 0.093843 -0.781831
v 10.446793 0.093843 -0.974928
v 11.125240 0.093843 -0.433884
v 11.125240 0.093843 0.433884
v 10.446793 0.093843 0.974928
v 9.600782 0.093843 0.781832
v 9.224272 0.093843 0.000000
v 10.224272 -1.906157 0.000000
v 10.847761 0.102637 -0.781831
v 10.001751 0.102637 -0.974928
v 9.323303 0.102637 -0.433884
v 9.323303 0.102637 0.433884
v 10.001751 0.102637 0.974928
v 10.847761 0.102637 0.781832
v 11.224272 0.102637 0.000000
v 10.224272 2.102637 0.000000
v 9.600782 0.093843 -0.781831
v 9.600782 0.093843 -0.781831
v 10.446793 0.093843 -0.974928
v 10.446793 0.093843 -0.974928
v 10.446793 0.093843 -0.974928
v 10.446793 0.093843 -0.974928
v 10.446793 0.093843 -0.974928
v 10.446793 0.093843 -0.974928
v 11.125240 0.093843 -0.433884
v 11.125240 0.093843 -0.433884
v 11.125240 0.093843 0.433884
v 11.125240 0.093843 0.433884
v 11.125240 0.093843 0.433884
v 10.446793 0.093843 0.974928
v 10.446793 0.093843 0.974928
v 10.446793 0.093843 0.974928
v 9.600782 0.093843 0.781832
v 9.600782 0.093843 0.781832
v 9.600782 0.093843 0.781832
v 9.224272 0.093843 0.000000
v 9.224272 0.093843 0.000000
v 9.224272 0.093843 0.000000
v 10.224272 -1.906157 0.000000
v 10.224272 -1.906157 0.000000
v 10.224272 -1.906157 0.000000
v 10.224272 -1.906157 0.000000
v 10.224272 -1.906157 0.000000
v 10.224272 -1.906157 0.000000
v 10.847761 0.102637 -0.781831
v 10.847761 0.102637 -0.781831
v 10.001751 0.102637 -0.974928
v 10.001751 0.102637 -0.974928
v 10.001751 0.102637 -0.974928
v 10.001751 0.102637 -0.974928
v 10.001751 0.102637 -0.974928
v 10.001751 0.102637 -0.974928
v 9.323303 0.102637 -0.433884
v 9.323303 0.102637 -0.433884
v 9.323303 0.102637 0.433884
v 9.323303 0.102637 0.433884
v 9.323303 0.102637 0.433884
v 10.001751 0.102637 0.974928
v 10.001751 0.102637 0.974928
v 10.001751 0.102637 0.974928
v 10.847761 0.102637 0.781832
v 10.847761 0.102637 0.781832
v 10.847761 0.102637 0.781832
v 11.224272 0.102637 0.000000
v 11.224272 0.102637 0.000000
v 11.224272 0.102637 0.000000
v 10.224272 2.102637 0.000000
v 10.224272 2.102637 0.000000
v 10.224272 2.102637 0.000000
v 10.224272 2.102637 0.000000
v 10.224272 2.102637 0.000000
v 10.224272 2.102637 0.000000
vt 0.444370 0.006268
vt 0.274758 0.358471
vt 0.444370 0.493732
vt 0.655872 0.445458
vt 0.750000 0.250000
vt 0.392857 0.500000
vt 0.750000 0.500000
vt 0.500000 1.000000
vt 0.750000 0.250000
vt 0.655872 0.445458
vt 0.444370 0.493732
vt 0.274758 0.358471
vt 0.444370 0.006268
vt 0.500000 1.000000
vt 0.392857 0.500000
vt 0.750000 0.500000
vt 0.250000 0.500000
vt 0.655872 0.054542
vt 0.444370 0.006268
vt 0.321429 0.500000
vt 0.321429 0.500000
vt 0.444370 0.006268
vt 0.444370 0.006268
vt 0.444370 0.006268
vt 0.392857 0.500000
vt 0.274758 0.141529
vt 0.464286 0.500000
vt 0.464286 0.500000
vt 0.274758 0.358471
vt 0.535714 0.500000
vt 0.535714 0.500000
vt 0.444370 0.493732
vt 0.607143 0.500000
vt 0.607143 0.500000
vt 0.655872 0.445458
vt 0.678571 0.500000
vt 0.678571 0.500000
vt 0.750000 0.250000
vt 0.500000 1.000000
vt 0.500000 1.000000
vt 0.500000 1.000000
vt 0.500000 1.000000
vt 0.500000 1.000000
vt 0.500000 1.000000
vt 0.250000 0.500000
vt 0.655872 0.054542
vt 0.444370 0.006268
vt 0.321429 0.500000
vt 0.321429 0.500000
vt 0.444370 0.006268
vt 0.444370 0.006268
vt 0.444370 0.006268
vt 0.392857 0.500000
vt 0.274758 0.141529
vt 0.464286 0.500000
vt 0.464286 0.500000
vt 0.274758 0.358471
vt 0.535714 0.500000
vt 0.535714 0.500000
vt 0.444370 0.493732
vt 0.607143 0.500000
vt 0.607143 0.500000
vt 0.655872 0.445458
vt 0.678571 0.500000
vt 0.678571 0.500000
vt 0.750000 0.250000
vt 0.500000 1.000000
vt 0.500000 1.000000
vt 0.500000 1.000000
vt 0.500000 1.000000
vt 0.500000 1.000000
vt 0.500000 1.000000
vn 0.000000 1.000000 0.000000
vn 0.000000 1.000000 0.000000
vn 0.000000 1.000000 0.000000
vn 0.000000 1.000000 0.000000
vn 0.000000 1.000000 0.000000
vn 0.000000 1.000000 0.000000
vn 0.000000 1.000000 0.000000
vn 0.000000 1.000000 0.000000
vn 0.000000 1.000000 0.000000
vn 0.000000 1.000000 0.000000
vn 0.000000 1.000000 0.000000
vn 0.000000 1.000000 0.000000
vn 0.000000 1.000000 0.000000
vn 0.000000 1.000000 0.000000
vn 0.000000 1.000000 0.000000
vn -0.202885 -0.410732 -0.888896
vn -0.202885 -0.410732 -0.888896
vn -0.202885 -0.410732 -0.888896
vn 0.568471 -0.410731 -0.712840
vn 0.568471 -0.410731 -0.712840
vn 0.568471 -0.410731 -0.712840
vn 0.911757 -0.410731 0.000000
vn 0.911757 -0.410731 0.000000
vn 0.911757 -0.410731 0.000000
vn 0.568471 -0.410732 0.712839
vn 0.568471 -0.410732 0.712839
vn 0.568471 -0.410732 0.712839
vn -0.202885 -0.410732 0.888896
vn -0.202885 -0.410732 0.888896
vn -0.202885 -0.410732 0.888896
vn -0.821464 -0.410732 0.395597
vn -0.821464 -0.410732 0.395597
vn -0.821464 -0.410732 0.395597
vn -0.821464 -0.410732 -0.395597
vn -0.821464 -0.410732 -0.395597
vn -0.821464 -0.410732 -0.395597
vn 0.000000 -1.000000 -0.000000
vn 0.000000 -1.000000 -0.000000
vn 0.000000 -1.000000 -0.000000
vn 0.000000 -1.000000 0.000000
vn 0.000000 -1.000000 0.000000
vn 0.000000 -1.000000 0.000000
vn 0.000000 -1.000000 0.000000
vn 0.000000 -1.000000 0.000000
vn 0.000000 -1.000000 0.000000
vn 0.000000 -1.000000 0.000000
vn 0.000000 -1.000000 0.000000
vn 0.000000 -1.000000 0.000000
vn 0.000000 -1.000000 0.000000
vn 0.000000 -1.000000 0.000000
vn 0.000000 -1.000000 0.000000
vn 0.202885 0.410732 -0.888896
vn 0.202885 0.410732 -0.888896
vn 0.202885 0.410732 -0.888896
vn -0.568471 0.410732 -0.712840
vn -0.568471 0.410732 -0.712839
vn -0.568471 0.410732 -0.712839
vn -0.911756 0.410732 0.000000
vn -0.911756 0.410732 0.000000
vn -0.911756 0.410732 0.000000
vn -0.568471 0.410732 0.712840
vn -0.568471 0.410732 0.712840
vn -0.568471 0.410732 0.712840
vn 0.202885 0.410731 0.888897
vn 0.202885 0.410731 0.888897
vn 0.202885 0.410731 0.888897
vn 0.821464 0.410732 0.395597
vn 0.821464 0.410732 0.395597
vn 0.821464 0.410732 0.395597
vn 0.821464 0.410732 -0.395597
vn 0.821464 0.410732 -0.395597
vn 0.821464 0.410732 -0.395597
f 18/18/1 7/5/2 22/22/3
f 36/38/4 6/4/5 23/23/6
f 33/35/7 5/3/8 24/24/9
f 30/32/10 4/2/11 2/1/12
f 27/29/13 26/26/14 19/19/15
f 17/17/16 21/21/17 40/40/18
f 20/20/19 3/6/20 41/41/21
f 25/25/22 29/28/23 42/42/24
f 28/27/25 32/31/26 43/43/27
f 31/30/28 35/34/29 44/44/30
f 34/33/31 38/37/32 8/8/33
f 37/36/34 1/7/35 39/39/36
f 46/46/37 15/9/38 50/50/39
f 64/66/40 14/10/41 51/51/42
f 61/63/43 13/11/44 52/52/45
f 58/60/46 12/12/47 10/13/48
f 55/57/49 54/54/50 47/47/51
f 45/45/52 49/49/53 68/68/54
f 48/48/55 11/15/56 69/69/57
f 53/53/58 57/56/59 70/70/60
f 56/55/61 60/59/62 71/71/63
f 59/58/64 63/62/65 72/72/66
f 62/61/67 66/65/68 16/14/69
f 65/64/70 9/16/71 67/67/72
