# This file uses centimeters as units for non-parametric coordinates.

v 2.060513 -1.562863 1.885598
v -0.129561 2.391179 2.123489
v -2.060513 1.562863 -1.885598
v 0.129561 -2.391179 -2.123489
v 2.017719 -1.896894 2.259126
v -0.415696 2.496486 2.523450
v -2.561198 1.576135 -1.931091
v -0.127783 -2.817246 -2.195415
v 2.518405 -1.910166 2.304620
v -0.158352 2.922553 2.595376
v -2.518405 1.910166 -2.304620
v 0.158352 -2.922553 -2.595376
v 2.561198 -1.576135 1.931091
v 0.127783 2.817246 2.195415
v -2.017719 1.896894 -2.259126
v 0.415696 -2.496486 -2.523450
v 2.060513 -1.562863 1.885598
v 2.060513 -1.562863 1.885598
v 2.060513 -1.562863 1.885598
v 2.060513 -1.562863 1.885598
v 2.060513 -1.562863 1.885598
v -0.129561 2.391179 2.123489
v -0.129561 2.391179 2.123489
v -0.129561 2.391179 2.123489
v -0.129561 2.391179 2.123489
v -0.129561 2.391179 2.123489
v -2.060513 1.562863 -1.885598
v -2.060513 1.562863 -1.885598
v -2.060513 1.562863 -1.885598
v -2.060513 1.562863 -1.885598
v -2.060513 1.562863 -1.885598
v 0.129561 -2.391179 -2.123489
v 0.129561 -2.391179 -2.123489
v 0.129561 -2.391179 -2.123489
v 0.129561 -2.391179 -2.123489
v 0.129561 -2.391179 -2.123489
v 2.017719 -1.896894 2.259126
v 2.017719 -1.896894 2.259126
v 2.017719 -1.896894 2.259126
v 2.017719 -1.896894 2.259126
v 2.017719 -1.896894 2.259126
v -0.415696 2.496486 2.523450
v -0.415696 2.496486 2.523450
v -0.415696 2.496486 2.523450
v -0.415696 2.496486 2.523450
v -0.415696 2.496486 2.523450
v -2.561198 1.576135 -1.931091
v -2.561198 1.576135 -1.931091
v -2.561198 1.576135 -1.931091
v -2.561198 1.576135 -1.931091
v -2.561198 1.576135 -1.931091
v -0.127783 -2.817246 -2.195415
v -0.127783 -2.817246 -2.195415
v -0.127783 -2.817246 -2.195415
v -0.127783 -2.817246 -2.195415
v -0.127783 -2.817246 -2.195415
v 2.518405 -1.910166 2.304620
v 2.518405 -1.910166 2.304620
v 2.518405 -1.910166 2.304620
v 2.518405 -1.910166 2.304620
v 2.518405 -1.910166 2.304620
v -0.158352 2.922553 2.595376
v -0.158352 2.922553 2.595376
v -0.158352 2.922553 2.595376
v -0.158352 2.922553 2.595376
v -0.158352 2.922553 2.595376
v -2.518405 1.910166 -2.304620
v -2.518405 1.910166 -2.304620
v -2.518405 1.910166 -2.304620
v -2.518405 1.910166 -2.304620
v -2.518405 1.910166 -2.304620
v 0.158352 -2.922553 -2.595376
v 0.158352 -2.922553 -2.595376
v 0.158352 -2.922553 -2.595376
v 0.158352 -2.922553 -2.595376
v 0.158352 -2.922553 -2.595376
v 2.561198 -1.576135 1.931091
v 2.561198 -1.576135 1.931091
v 2.561198 -1.576135 1.931091
v 2.561198 -1.576135 1.931091
v 2.561198 -1.576135 1.931091
v 0.127783 2.817246 2.195415
v 0.127783 2.817246 2.195415
v 0.127783 2.817246 2.195415
v 0.127783 2.817246 2.195415
v 0.127783 2.817246 2.195415
v -2.017719 1.896894 -2.259126
v -2.017719 1.896894 -2.259126
v -2.017719 1.896894 -2.259126
v -2.017719 1.896894 -2.259126
v -2.017719 1.896894 -2.259126
v 0.415696 -2.496486 -2.523450
v 0.415696 -2.496486 -2.523450
v 0.415696 -2.496486 -2.523450
v 0.415696 -2.496486 -2.523450
v 0.415696 -2.496486 -2.523450
vt 0.000000 0.750000
vt 0.250000 0.750000
vt 0.500000 0.750000
vt 0.750000 0.750000
vt 0.000000 0.500000
vt 0.250000 0.500000
vt 0.500000 0.500000
vt 0.750000 0.500000
vt 0.000000 0.250000
vt 0.250000 0.250000
vt 0.500000 0.250000
vt 0.750000 0.250000
vt 0.250000 0.000000
vt 0.500000 0.000000
vt 0.750000 0.000000
vt 1.000000 0.000000
vt 1.000000 0.000000
vt 1.000000 1.000000
vt 0.000000 1.000000
vt 0.000000 1.000000
vt 0.000000 0.000000
vt 0.250000 0.000000
vt 0.250000 1.000000
vt 0.250000 1.000000
vt 0.250000 1.000000
vt 0.250000 0.000000
vt 0.500000 0.000000
vt 0.500000 1.000000
vt 0.500000 1.000000
vt 0.500000 1.000000
vt 0.500000 0.000000
vt 0.750000 0.000000
vt 0.750000 1.000000
vt 0.750000 1.000000
vt 0.750000 1.000000
vt 0.750000 0.000000
vt 0.000000 0.750000
vt 1.000000 0.750000
vt 1.000000 0.750000
vt 0.000000 0.750000
vt 1.000000 0.750000
vt 0.250000 0.750000
vt 0.250000 0.750000
vt 0.250000 0.750000
vt 0.250000 0.750000
vt 0.250000 0.750000
vt 0.500000 0.750000
vt 0.500000 0.750000
vt 0.500000 0.750000
vt 0.500000 0.750000
vt 0.500000 0.750000
vt 0.750000 0.750000
vt 0.750000 0.750000
vt 0.750000 0.750000
vt 0.750000 0.750000
vt 0.750000 0.750000
vt 0.000000 0.500000
vt 1.000000 0.500000
vt 1.000000 0.500000
vt 0.000000 0.500000
vt 1.000000 0.500000
vt 0.250000 0.500000
vt 0.250000 0.500000
vt 0.250000 0.500000
vt 0.250000 0.500000
vt 0.250000 0.500000
vt 0.500000 0.500000
vt 0.500000 0.500000
vt 0.500000 0.500000
vt 0.500000 0.500000
vt 0.500000 0.500000
vt 0.750000 0.500000
vt 0.750000 0.500000
vt 0.750000 0.500000
vt 0.750000 0.500000
vt 0.750000 0.500000
vt 0.000000 0.250000
vt 1.000000 0.250000
vt 1.000000 0.250000
vt 0.000000 0.250000
vt 1.000000 0.250000
vt 0.250000 0.250000
vt 0.250000 0.250000
vt 0.250000 0.250000
vt 0.250000 0.250000
vt 0.250000 0.250000
vt 0.500000 0.250000
vt 0.500000 0.250000
vt 0.500000 0.250000
vt 0.500000 0.250000
vt 0.500000 0.250000
vt 0.750000 0.250000
vt 0.750000 0.250000
vt 0.750000 0.250000
vt 0.750000 0.250000
vt 0.750000 0.250000
vn -0.789492 -0.409796 -0.456912
vn -0.789493 -0.409796 -0.456912
vn -0.789493 -0.409796 -0.456912
vn -0.789492 -0.409796 -0.456913
vn -0.789492 -0.409796 -0.456913
vn -0.789492 -0.409796 -0.456913
vn -0.046104 -0.973643 0.223370
vn -0.046104 -0.973643 0.223370
vn -0.046104 -0.973643 0.223370
vn -0.046105 -0.973643 0.223370
vn -0.046105 -0.973643 0.223370
vn -0.046105 -0.973643 0.223370
vn -0.092847 -0.110958 0.989479
vn -0.092847 -0.110958 0.989479
vn -0.092847 -0.110958 0.989479
vn -0.092847 -0.110957 0.989479
vn -0.092847 -0.110957 0.989479
vn -0.092847 -0.110957 0.989479
vn -0.836235 0.452889 0.309196
vn -0.836235 0.452889 0.309196
vn -0.836235 0.452889 0.309196
vn -0.836235 0.452889 0.309196
vn -0.836235 0.452889 0.309196
vn -0.836235 0.452889 0.309196
vn -0.092847 -0.110957 0.989479
vn -0.092847 -0.110957 0.989479
vn -0.092847 -0.110957 0.989479
vn -0.092847 -0.110958 0.989479
vn -0.092847 -0.110958 0.989479
vn -0.092847 -0.110958 0.989479
vn -0.836235 0.452889 0.309196
vn -0.836235 0.452889 0.309196
vn -0.836235 0.452889 0.309196
vn -0.836235 0.452889 0.309196
vn -0.836235 0.452889 0.309196
vn -0.836235 0.452889 0.309196
vn -0.789492 -0.409796 -0.456912
vn -0.789492 -0.409796 -0.456912
vn -0.789492 -0.409796 -0.456912
vn -0.789493 -0.409796 -0.456912
vn -0.789493 -0.409796 -0.456912
vn -0.789493 -0.409796 -0.456912
vn -0.046105 -0.973643 0.223370
vn -0.046105 -0.973643 0.223370
vn -0.046104 -0.973643 0.223370
vn -0.046104 -0.973643 0.223370
vn -0.046104 -0.973643 0.223370
vn -0.046104 -0.973643 0.223370
vn 0.789492 0.409796 0.456913
vn 0.789492 0.409796 0.456913
vn 0.789492 0.409796 0.456913
vn 0.789492 0.409796 0.456912
vn 0.789493 0.409796 0.456912
vn 0.789492 0.409796 0.456912
vn 0.046105 0.973643 -0.223370
vn 0.046105 0.973643 -0.223370
vn 0.046105 0.973643 -0.223370
vn 0.046105 0.973643 -0.223370
vn 0.046105 0.973643 -0.223370
vn 0.046105 0.973643 -0.223370
vn 0.092847 0.110957 -0.989479
vn 0.092847 0.110957 -0.989479
vn 0.092847 0.110957 -0.989479
vn 0.092848 0.110958 -0.989478
vn 0.092848 0.110958 -0.989478
vn 0.092848 0.110958 -0.989478
vn 0.836235 -0.452889 -0.309196
vn 0.836235 -0.452889 -0.309196
vn 0.836235 -0.452889 -0.309196
vn 0.836235 -0.452890 -0.309196
vn 0.836235 -0.452890 -0.309196
vn 0.836235 -0.452890 -0.309196
vn 0.092847 0.110958 -0.989479
vn 0.092847 0.110958 -0.989479
vn 0.092847 0.110958 -0.989479
vn 0.092847 0.110957 -0.989479
vn 0.092847 0.110957 -0.989479
vn 0.092847 0.110957 -0.989479
vn 0.836235 -0.452890 -0.309196
vn 0.836235 -0.452890 -0.309196
vn 0.836235 -0.452890 -0.309196
vn 0.836235 -0.452889 -0.309196
vn 0.836235 -0.452889 -0.309196
vn 0.836235 -0.452889 -0.309196
vn 0.789492 0.409796 0.456912
vn 0.789492 0.409796 0.456912
vn 0.789492 0.409796 0.456912
vn 0.789492 0.409796 0.456912
vn 0.789492 0.409796 0.456912
vn 0.789492 0.409796 0.456912
vn 0.046105 0.973643 -0.223370
vn 0.046105 0.973643 -0.223370
vn 0.046105 0.973643 -0.223370
vn 0.046105 0.973643 -0.223370
vn 0.046105 0.973643 -0.223370
vn 0.046105 0.973643 -0.223370
f 23/23/1 20/20/2 44/43/3
f 45/44/4 19/19/5 38/37/6
f 28/28/7 25/25/8 49/48/9
f 50/49/10 24/24/11 43/42/12
f 33/33/13 30/30/14 54/53/15
f 55/54/16 29/29/17 48/47/18
f 18/18/19 35/35/20 39/38/21
f 40/39/22 34/34/23 53/52/24
f 46/46/25 5/1/26 64/63/27
f 65/64/28 37/40/29 58/57/30
f 51/51/31 6/2/32 69/68/33
f 70/69/34 42/45/35 63/62/36
f 56/56/37 7/3/38 74/73/39
f 75/74/40 47/50/41 68/67/42
f 41/41/43 8/4/44 59/58/45
f 60/59/46 52/55/47 73/72/48
f 66/66/49 9/5/50 84/83/51
f 85/84/52 57/60/53 78/77/54
f 71/71/55 10/6/56 89/88/57
f 90/89/58 62/65/59 83/82/60
f 76/76/61 11/7/62 94/93/63
f 95/94/64 67/70/65 88/87/66
f 61/61/67 12/8/68 79/78/69
f 80/79/70 72/75/71 93/92/72
f 86/86/73 13/9/74 2/13/75
f 22/22/76 77/80/77 21/21/78
f 91/91/79 14/10/80 3/14/81
f 27/27/82 82/85/83 26/26/84
f 96/96/85 15/11/86 4/15/87
f 32/32/88 87/90/89 31/31/90
f 81/81/91 16/12/92 1/16/93
f 17/17/94 92/95/95 36/36/96
