# This file uses centimeters as units for non-parametric coordinates.

v 0.450270 -0.809017 -0.377821
v 0.102068 -0.809017 -0.578856
v -0.293893 -0.809017 -0.509037
v -0.552337 -0.809017 -0.201034
v -0.552338 -0.809017 0.201034
v -0.293893 -0.809017 0.509037
v 0.102068 -0.809017 0.578856
v 0.450270 -0.809017 0.377821
v 0.587785 -0.809017 0.000000
v 0.728552 -0.309017 -0.611327
v 0.165149 -0.309017 -0.936608
v -0.475528 -0.309017 -0.823639
v -0.893701 -0.309017 -0.325281
v -0.893701 -0.309017 0.325280
v -0.475528 -0.309017 0.823639
v 0.165149 -0.309017 0.936608
v 0.728552 -0.309017 0.611327
v 0.951057 -0.309017 0.000000
v 0.728552 0.309017 -0.611327
v 0.165149 0.309017 -0.936608
v -0.475528 0.309017 -0.823639
v -0.893701 0.309017 -0.325281
v -0.893701 0.309017 0.325280
v -0.475528 0.309017 0.823639
v 0.165149 0.309017 0.936608
v 0.728552 0.309017 0.611327
v 0.951057 0.309017 0.000000
v 0.450270 0.809017 -0.377821
v 0.102068 0.809017 -0.578856
v -0.293893 0.809017 -0.509037
v -0.552337 0.809017 -0.201034
v -0.552338 0.809017 0.201034
v -0.293893 0.809017 0.509037
v 0.102068 0.809017 0.578856
v 0.450270 0.809017 0.377821
v 0.587785 0.809017 0.000000
v 0.000000 -1.000000 0.000000
v 0.000000 1.000000 0.000000
v 0.450270 -0.809017 -0.377821
v 0.450270 -0.809017 -0.377821
v 0.450270 -0.809017 -0.377821
v 0.450270 -0.809017 -0.377821
v 0.102068 -0.809017 -0.578856
v 0.102068 -0.809017 -0.578856
v 0.102068 -0.809017 -0.578856
v 0.102068 -0.809017 -0.578856
v -0.293893 -0.809017 -0.509037
v -0.293893 -0.809017 -0.509037
v -0.293893 -0.809017 -0.509037
v -0.293893 -0.809017 -0.509037
v -0.552337 -0.809017 -0.201034
v -0.552337 -0.809017 -0.201034
v -0.552337 -0.809017 -0.201034
v -0.552337 -0.809017 -0.201034
v -0.552338 -0.809017 0.201034
v -0.552338 -0.809017 0.201034
v -0.552338 -0.809017 0.201034
v -0.552338 -0.809017 0.201034
v -0.293893 -0.809017 0.509037
v -0.293893 -0.809017 0.509037
v -0.293893 -0.809017 0.509037
v -0.293893 -0.809017 0.509037
v 0.102068 -0.809017 0.578856
v 0.102068 -0.809017 0.578856
v 0.102068 -0.809017 0.578856
v 0.102068 -0.809017 0.578856
v 0.450270 -0.809017 0.377821
v 0.450270 -0.809017 0.377821
v 0.450270 -0.809017 0.377821
v 0.450270 -0.809017 0.377821
v 0.587785 -0.809017 0.000000
v 0.587785 -0.809017 0.000000
v 0.587785 -0.809017 0.000000
v 0.587785 -0.809017 0.000000
v 0.728552 -0.309017 -0.611327
v 0.728552 -0.309017 -0.611327
v 0.728552 -0.309017 -0.611327
v 0.728552 -0.309017 -0.611327
v 0.728552 -0.309017 -0.611327
v 0.165149 -0.309017 -0.936608
v 0.165149 -0.309017 -0.936608
v 0.165149 -0.309017 -0.936608
v 0.165149 -0.309017 -0.936608
v 0.165149 -0.309017 -0.936608
v -0.475528 -0.309017 -0.823639
v -0.475528 -0.309017 -0.823639
v -0.475528 -0.309017 -0.823639
v -0.475528 -0.309017 -0.823639
v -0.475528 -0.309017 -0.823639
v -0.893701 -0.309017 -0.325281
v -0.893701 -0.309017 -0.325281
v -0.893701 -0.309017 -0.325281
v -0.893701 -0.309017 -0.325281
v -0.893701 -0.309017 -0.325281
v -0.893701 -0.309017 0.325280
v -0.893701 -0.309017 0.325280
v -0.893701 -0.309017 0.325280
v -0.893701 -0.309017 0.325280
v -0.893701 -0.309017 0.325280
v -0.475528 -0.309017 0.823639
v -0.475528 -0.309017 0.823639
v -0.475528 -0.309017 0.823639
v -0.475528 -0.309017 0.823639
v -0.475528 -0.309017 0.823639
v 0.165149 -0.309017 0.936608
v 0.165149 -0.309017 0.936608
v 0.165149 -0.309017 0.936608
v 0.165149 -0.309017 0.936608
v 0.165149 -0.309017 0.936608
v 0.728552 -0.309017 0.611327
v 0.728552 -0.309017 0.611327
v 0.728552 -0.309017 0.611327
v 0.728552 -0.309017 0.611327
v 0.728552 -0.309017 0.611327
v 0.951057 -0.309017 0.000000
v 0.951057 -0.309017 0.000000
v 0.951057 -0.309017 0.000000
v 0.951057 -0.309017 0.000000
v 0.951057 -0.309017 0.000000
v 0.728552 0.309017 -0.611327
v 0.728552 0.309017 -0.611327
v 0.728552 0.309017 -0.611327
v 0.728552 0.309017 -0.611327
v 0.728552 0.309017 -0.611327
v 0.165149 0.309017 -0.936608
v 0.165149 0.309017 -0.936608
v 0.165149 0.309017 -0.936608
v 0.165149 0.309017 -0.936608
v 0.165149 0.309017 -0.936608
v -0.475528 0.309017 -0.823639
v -0.475528 0.309017 -0.823639
v -0.475528 0.309017 -0.823639
v -0.475528 0.309017 -0.823639
v -0.475528 0.309017 -0.823639
v -0.893701 0.309017 -0.325281
v -0.893701 0.309017 -0.325281
v -0.893701 0.309017 -0.325281
v -0.893701 0.309017 -0.325281
v -0.893701 0.309017 -0.325281
v -0.893701 0.309017 0.325280
v -0.893701 0.309017 0.325280
v -0.893701 0.309017 0.325280
v -0.893701 0.309017 0.325280
v -0.893701 0.309017 0.325280
v -0.475528 0.309017 0.823639
v -0.475528 0.309017 0.823639
v -0.475528 0.309017 0.823639
v -0.475528 0.309017 0.823639
v -0.475528 0.309017 0.823639
v 0.165149 0.309017 0.936608
v 0.165149 0.309017 0.936608
v 0.165149 0.309017 0.936608
v 0.165149 0.309017 0.936608
v 0.165149 0.309017 0.936608
v 0.728552 0.309017 0.611327
v 0.728552 0.309017 0.611327
v 0.728552 0.309017 0.611327
v 0.728552 0.309017 0.611327
v 0.728552 0.309017 0.611327
v 0.951057 0.309017 0.000000
v 0.951057 0.309017 0.000000
v 0.951057 0.309017 0.000000
v 0.951057 0.309017 0.000000
v 0.951057 0.309017 0.000000
v 0.450270 0.809017 -0.377821
v 0.450270 0.809017 -0.377821
v 0.450270 0.809017 -0.377821
v 0.450270 0.809017 -0.377821
v 0.102068 0.809017 -0.578856
v 0.102068 0.809017 -0.578856
v 0.102068 0.809017 -0.578856
v 0.102068 0.809017 -0.578856
v -0.293893 0.809017 -0.509037
v -0.293893 0.809017 -0.509037
v -0.293893 0.809017 -0.509037
v -0.293893 0.809017 -0.509037
v -0.552337 0.809017 -0.201034
v -0.552337 0.809017 -0.201034
v -0.552337 0.809017 -0.201034
v -0.552337 0.809017 -0.201034
v -0.552338 0.809017 0.201034
v -0.552338 0.809017 0.201034
v -0.552338 0.809017 0.201034
v -0.552338 0.809017 0.201034
v -0.293893 0.809017 0.509037
v -0.293893 0.809017 0.509037
v -0.293893 0.809017 0.509037
v -0.293893 0.809017 0.509037
v 0.102068 0.809017 0.578856
v 0.102068 0.809017 0.578856
v 0.102068 0.809017 0.578856
v 0.102068 0.809017 0.578856
v 0.450270 0.809017 0.377821
v 0.450270 0.809017 0.377821
v 0.450270 0.809017 0.377821
v 0.450270 0.809017 0.377821
v 0.587785 0.809017 0.000000
v 0.587785 0.809017 0.000000
v 0.587785 0.809017 0.000000
v 0.587785 0.809017 0.000000
v 0.000000 -1.000000 0.000000
v 0.000000 -1.000000 0.000000
v 0.000000 -1.000000 0.000000
v 0.000000 -1.000000 0.000000
v 0.000000 -1.000000 0.000000
v 0.000000 -1.000000 0.000000
v 0.000000 -1.000000 0.000000
v 0.000000 -1.000000 0.000000
v 0.000000 1.000000 0.000000
v 0.000000 1.000000 0.000000
v 0.000000 1.000000 0.000000
v 0.000000 1.000000 0.000000
v 0.000000 1.000000 0.000000
v 0.000000 1.000000 0.000000
v 0.000000 1.000000 0.000000
v 0.000000 1.000000 0.000000
vt 0.111111 0.200000
vt 0.222222 0.200000
vt 0.333333 0.200000
vt 0.444444 0.200000
vt 0.555556 0.200000
vt 0.666667 0.200000
vt 0.777778 0.200000
vt 0.888889 0.200000
vt 1.000000 0.200000
vt 0.111111 0.400000
vt 0.222222 0.400000
vt 0.333333 0.400000
vt 0.444444 0.400000
vt 0.555556 0.400000
vt 0.666667 0.400000
vt 0.777778 0.400000
vt 0.888889 0.400000
vt 1.000000 0.400000
vt 0.111111 0.600000
vt 0.222222 0.600000
vt 0.333333 0.600000
vt 0.444444 0.600000
vt 0.555556 0.600000
vt 0.666667 0.600000
vt 0.777778 0.600000
vt 0.888889 0.600000
vt 1.000000 0.600000
vt 0.000000 0.800000
vt 0.111111 0.800000
vt 0.222222 0.800000
vt 0.333333 0.800000
vt 0.444444 0.800000
vt 0.555556 0.800000
vt 0.666667 0.800000
vt 0.777778 0.800000
vt 0.888889 0.800000
vt 0.833333 0.000000
vt 0.833333 1.000000
vt 1.000000 0.200000
vt 0.000000 0.200000
vt 1.000000 0.200000
vt 0.000000 0.200000
vt 0.111111 0.200000
vt 0.111111 0.200000
vt 0.111111 0.200000
vt 0.111111 0.200000
vt 0.222222 0.200000
vt 0.222222 0.200000
vt 0.222222 0.200000
vt 0.222222 0.200000
vt 0.333333 0.200000
vt 0.333333 0.200000
vt 0.333333 0.200000
vt 0.333333 0.200000
vt 0.444444 0.200000
vt 0.444444 0.200000
vt 0.444444 0.200000
vt 0.444444 0.200000
vt 0.555556 0.200000
vt 0.555556 0.200000
vt 0.555556 0.200000
vt 0.555556 0.200000
vt 0.666667 0.200000
vt 0.666667 0.200000
vt 0.666667 0.200000
vt 0.666667 0.200000
vt 0.777778 0.200000
vt 0.777778 0.200000
vt 0.777778 0.200000
vt 0.777778 0.200000
vt 0.888889 0.200000
vt 0.888889 0.200000
vt 0.888889 0.200000
vt 0.888889 0.200000
vt 1.000000 0.400000
vt 0.000000 0.400000
vt 0.000000 0.400000
vt 1.000000 0.400000
vt 0.000000 0.400000
vt 0.111111 0.400000
vt 0.111111 0.400000
vt 0.111111 0.400000
vt 0.111111 0.400000
vt 0.111111 0.400000
vt 0.222222 0.400000
vt 0.222222 0.400000
vt 0.222222 0.400000
vt 0.222222 0.400000
vt 0.222222 0.400000
vt 0.333333 0.400000
vt 0.333333 0.400000
vt 0.333333 0.400000
vt 0.333333 0.400000
vt 0.333333 0.400000
vt 0.444444 0.400000
vt 0.444444 0.400000
vt 0.444444 0.400000
vt 0.444444 0.400000
vt 0.444444 0.400000
vt 0.555556 0.400000
vt 0.555556 0.400000
vt 0.555556 0.400000
vt 0.555556 0.400000
vt 0.555556 0.400000
vt 0.666667 0.400000
vt 0.666667 0.400000
vt 0.666667 0.400000
vt 0.666667 0.400000
vt 0.666667 0.400000
vt 0.777778 0.400000
vt 0.777778 0.400000
vt 0.777778 0.400000
vt 0.777778 0.400000
vt 0.777778 0.400000
vt 0.888889 0.400000
vt 0.888889 0.400000
vt 0.888889 0.400000
vt 0.888889 0.400000
vt 0.888889 0.400000
vt 1.000000 0.600000
vt 0.000000 0.600000
vt 0.000000 0.600000
vt 1.000000 0.600000
vt 0.000000 0.600000
vt 0.111111 0.600000
vt 0.111111 0.600000
vt 0.111111 0.600000
vt 0.111111 0.600000
vt 0.111111 0.600000
vt 0.222222 0.600000
vt 0.222222 0.600000
vt 0.222222 0.600000
vt 0.222222 0.600000
vt 0.222222 0.600000
vt 0.333333 0.600000
vt 0.333333 0.600000
vt 0.333333 0.600000
vt 0.333333 0.600000
vt 0.333333 0.600000
vt 0.444444 0.600000
vt 0.444444 0.600000
vt 0.444444 0.600000
vt 0.444444 0.600000
vt 0.444444 0.600000
vt 0.555556 0.600000
vt 0.555556 0.600000
vt 0.555556 0.600000
vt 0.555556 0.600000
vt 0.555556 0.600000
vt 0.666667 0.600000
vt 0.666667 0.600000
vt 0.666667 0.600000
vt 0.666667 0.600000
vt 0.666667 0.600000
vt 0.777778 0.600000
vt 0.777778 0.600000
vt 0.777778 0.600000
vt 0.777778 0.600000
vt 0.777778 0.600000
vt 0.888889 0.600000
vt 0.888889 0.600000
vt 0.888889 0.600000
vt 0.888889 0.600000
vt 0.888889 0.600000
vt 0.000000 0.800000
vt 0.000000 0.800000
vt 1.000000 0.800000
vt 1.000000 0.800000
vt 0.111111 0.800000
vt 0.111111 0.800000
vt 0.111111 0.800000
vt 0.111111 0.800000
vt 0.222222 0.800000
vt 0.222222 0.800000
vt 0.222222 0.800000
vt 0.222222 0.800000
vt 0.333333 0.800000
vt 0.333333 0.800000
vt 0.333333 0.800000
vt 0.333333 0.800000
vt 0.444444 0.800000
vt 0.444444 0.800000
vt 0.444444 0.800000
vt 0.444444 0.800000
vt 0.555556 0.800000
vt 0.555556 0.800000
vt 0.555556 0.800000
vt 0.555556 0.800000
vt 0.666667 0.800000
vt 0.666667 0.800000
vt 0.666667 0.800000
vt 0.666667 0.800000
vt 0.777778 0.800000
vt 0.777778 0.800000
vt 0.777778 0.800000
vt 0.777778 0.800000
vt 0.888889 0.800000
vt 0.888889 0.800000
vt 0.888889 0.800000
vt 0.888889 0.800000
vt 0.722222 0.000000
vt 0.611111 0.000000
vt 0.500000 0.000000
vt 0.388889 0.000000
vt 0.277778 0.000000
vt 0.166667 0.000000
vt 0.944444 0.000000
vt 0.055556 0.000000
vt 0.944444 1.000000
vt 0.055556 1.000000
vt 0.166667 1.000000
vt 0.277778 1.000000
vt 0.388889 1.000000
vt 0.500000 1.000000
vt 0.611111 1.000000
vt 0.722222 1.000000
vn 0.412939 -0.563849 -0.715231
vn 0.412939 -0.563849 -0.715231
vn 0.412939 -0.563849 -0.715231
vn 0.412939 -0.563849 -0.715231
vn 0.412939 -0.563849 -0.715231
vn 0.412939 -0.563849 -0.715231
vn -0.143412 -0.563849 -0.813331
vn -0.143412 -0.563849 -0.813331
vn -0.143412 -0.563849 -0.813331
vn -0.143412 -0.563849 -0.813331
vn -0.143412 -0.563849 -0.813331
vn -0.143412 -0.563849 -0.813331
vn -0.632659 -0.563849 -0.530864
vn -0.632659 -0.563849 -0.530864
vn -0.632659 -0.563849 -0.530864
vn -0.632659 -0.563849 -0.530864
vn -0.632659 -0.563849 -0.530864
vn -0.632659 -0.563849 -0.530864
vn -0.825878 -0.563849 -0.000000
vn -0.825878 -0.563849 -0.000000
vn -0.825878 -0.563849 -0.000000
vn -0.825878 -0.563849 -0.000000
vn -0.825878 -0.563849 -0.000000
vn -0.825878 -0.563849 -0.000000
vn -0.632659 -0.563849 0.530864
vn -0.632659 -0.563849 0.530864
vn -0.632659 -0.563849 0.530864
vn -0.632659 -0.563849 0.530864
vn -0.632659 -0.563849 0.530864
vn -0.632659 -0.563849 0.530864
vn -0.143412 -0.563849 0.813331
vn -0.143412 -0.563849 0.813331
vn -0.143412 -0.563849 0.813331
vn -0.143412 -0.563849 0.813331
vn -0.143412 -0.563849 0.813331
vn -0.143412 -0.563849 0.813331
vn 0.412939 -0.563849 0.715231
vn 0.412939 -0.563849 0.715231
vn 0.412939 -0.563849 0.715231
vn 0.412939 -0.563849 0.715231
vn 0.412939 -0.563849 0.715231
vn 0.412939 -0.563849 0.715231
vn 0.776071 -0.563849 0.282467
vn 0.776071 -0.563849 0.282467
vn 0.776071 -0.563849 0.282467
vn 0.776071 -0.563849 0.282467
vn 0.776071 -0.563849 0.282467
vn 0.776072 -0.563849 0.282467
vn 0.776071 -0.563849 -0.282467
vn 0.776071 -0.563849 -0.282467
vn 0.776071 -0.563849 -0.282467
vn 0.776072 -0.563849 -0.282467
vn 0.776072 -0.563849 -0.282467
vn 0.776072 -0.563849 -0.282467
vn 0.500000 0.000000 -0.866025
vn 0.500000 0.000000 -0.866025
vn 0.500000 0.000000 -0.866025
vn 0.500000 0.000000 -0.866025
vn 0.500000 0.000000 -0.866025
vn 0.500000 0.000000 -0.866025
vn -0.173648 0.000000 -0.984808
vn -0.173648 0.000000 -0.984808
vn -0.173648 0.000000 -0.984808
vn -0.173648 0.000000 -0.984808
vn -0.173648 0.000000 -0.984808
vn -0.173648 0.000000 -0.984808
vn -0.766044 0.000000 -0.642788
vn -0.766044 0.000000 -0.642788
vn -0.766044 0.000000 -0.642788
vn -0.766044 0.000000 -0.642788
vn -0.766044 0.000000 -0.642788
vn -0.766044 0.000000 -0.642788
vn -1.000000 0.000000 -0.000000
vn -1.000000 0.000000 -0.000000
vn -1.000000 0.000000 -0.000000
vn -1.000000 0.000000 -0.000000
vn -1.000000 0.000000 -0.000000
vn -1.000000 0.000000 -0.000000
vn -0.766044 0.000000 0.642788
vn -0.766044 0.000000 0.642788
vn -0.766045 0.000000 0.642788
vn -0.766044 0.000000 0.642788
vn -0.766044 0.000000 0.642788
vn -0.766044 0.000000 0.642788
vn -0.173648 0.000000 0.984808
vn -0.173648 0.000000 0.984808
vn -0.173648 0.000000 0.984808
vn -0.173648 0.000000 0.984808
vn -0.173648 0.000000 0.984808
vn -0.173648 0.000000 0.984808
vn 0.500000 0.000000 0.866025
vn 0.500000 0.000000 0.866026
vn 0.500000 0.000000 0.866026
vn 0.500000 0.000000 0.866026
vn 0.500000 0.000000 0.866026
vn 0.500000 0.000000 0.866025
vn 0.939693 0.000000 0.342020
vn 0.939693 0.000000 0.342020
vn 0.939693 0.000000 0.342020
vn 0.939693 0.000000 0.342020
vn 0.939693 0.000000 0.342020
vn 0.939693 0.000000 0.342020
vn 0.939693 0.000000 -0.342020
vn 0.939693 0.000000 -0.342020
vn 0.939693 0.000000 -0.342020
vn 0.939693 0.000000 -0.342020
vn 0.939693 0.000000 -0.342020
vn 0.939693 0.000000 -0.342020
vn 0.412939 0.563849 -0.715231
vn 0.412939 0.563849 -0.715231
vn 0.412939 0.563849 -0.715231
vn 0.412939 0.563849 -0.715231
vn 0.412939 0.563849 -0.715231
vn 0.412939 0.563849 -0.715231
vn -0.143412 0.563849 -0.813331
vn -0.143412 0.563849 -0.813331
vn -0.143412 0.563849 -0.813331
vn -0.143412 0.563849 -0.813331
vn -0.143412 0.563849 -0.813331
vn -0.143412 0.563849 -0.813331
vn -0.632659 0.563849 -0.530864
vn -0.632659 0.563849 -0.530864
vn -0.632659 0.563849 -0.530864
vn -0.632659 0.563849 -0.530864
vn -0.632659 0.563849 -0.530864
vn -0.632659 0.563849 -0.530864
vn -0.825878 0.563849 -0.000000
vn -0.825878 0.563849 -0.000000
vn -0.825878 0.563849 -0.000000
vn -0.825878 0.563849 -0.000000
vn -0.825878 0.563849 -0.000000
vn -0.825878 0.563849 -0.000000
vn -0.632659 0.563849 0.530864
vn -0.632659 0.563849 0.530864
vn -0.632659 0.563849 0.530864
vn -0.632659 0.563849 0.530864
vn -0.632659 0.563849 0.530864
vn -0.632659 0.563849 0.530864
vn -0.143412 0.563849 0.813331
vn -0.143412 0.563849 0.813331
vn -0.143412 0.563849 0.813331
vn -0.143412 0.563849 0.813331
vn -0.143412 0.563849 0.813331
vn -0.143412 0.563849 0.813331
vn 0.412939 0.563849 0.715231
vn 0.412939 0.563849 0.715231
vn 0.412939 0.563849 0.715231
vn 0.412939 0.563849 0.715231
vn 0.412939 0.563849 0.715231
vn 0.412939 0.563849 0.715231
vn 0.776071 0.563849 0.282467
vn 0.776071 0.563849 0.282467
vn 0.776071 0.563849 0.282467
vn 0.776071 0.563849 0.282467
vn 0.776071 0.563849 0.282467
vn 0.776071 0.563849 0.282467
vn 0.776072 0.563849 -0.282467
vn 0.776072 0.563849 -0.282467
vn 0.776072 0.563849 -0.282467
vn 0.776071 0.563849 -0.282467
vn 0.776071 0.563849 -0.282467
vn 0.776071 0.563849 -0.282467
vn 0.163394 -0.945098 -0.283007
vn 0.163394 -0.945098 -0.283007
vn 0.163394 -0.945098 -0.283007
vn -0.056746 -0.945098 -0.321824
vn -0.056746 -0.945098 -0.321824
vn -0.056746 -0.945098 -0.321824
vn -0.250335 -0.945098 -0.210055
vn -0.250335 -0.945098 -0.210056
vn -0.250335 -0.945098 -0.210056
vn -0.326788 -0.945098 0.000000
vn -0.326788 -0.945098 0.000000
vn -0.326788 -0.945098 0.000000
vn -0.250335 -0.945098 0.210056
vn -0.250335 -0.945098 0.210056
vn -0.250335 -0.945098 0.210056
vn -0.056746 -0.945098 0.321824
vn -0.056746 -0.945098 0.321824
vn -0.056746 -0.945098 0.321824
vn 0.163394 -0.945098 0.283007
vn 0.163394 -0.945098 0.283007
vn 0.163394 -0.945098 0.283007
vn 0.307081 -0.945098 0.111769
vn 0.307081 -0.945098 0.111769
vn 0.307081 -0.945097 0.111769
vn 0.307081 -0.945098 -0.111768
vn 0.307081 -0.945098 -0.111768
vn 0.307081 -0.945097 -0.111768
vn 0.163394 0.945098 -0.283007
vn 0.163394 0.945098 -0.283007
vn 0.163394 0.945098 -0.283007
vn -0.056746 0.945098 -0.321824
vn -0.056746 0.945098 -0.321824
vn -0.056746 0.945098 -0.321824
vn -0.250335 0.945098 -0.210056
vn -0.250335 0.945098 -0.210056
vn -0.250335 0.945098 -0.210056
vn -0.326788 0.945098 0.000000
vn -0.326788 0.945098 0.000000
vn -0.326788 0.945098 0.000000
vn -0.250335 0.945098 0.210056
vn -0.250335 0.945098 0.210056
vn -0.250335 0.945098 0.210056
vn -0.056746 0.945098 0.321824
vn -0.056746 0.945098 0.321824
vn -0.056746 0.945098 0.321824
vn 0.163394 0.945098 0.283007
vn 0.163394 0.945098 0.283007
vn 0.163394 0.945098 0.283007
vn 0.307081 0.945098 0.111768
vn 0.307081 0.945098 0.111768
vn 0.307081 0.945098 0.111768
vn 0.307081 0.945098 -0.111768
vn 0.307081 0.945098 -0.111768
vn 0.307081 0.945097 -0.111768
f 42/42/1 2/1/2 77/76/3
f 78/77/4 43/45/5 81/80/6
f 46/46/7 3/2/8 82/81/9
f 83/82/10 47/49/11 86/85/12
f 50/50/13 4/3/14 87/86/15
f 88/87/16 51/53/17 91/90/18
f 54/54/19 5/4/20 92/91/21
f 93/92/22 55/57/23 96/95/24
f 58/58/25 6/5/26 97/96/27
f 98/97/28 59/61/29 101/100/30
f 62/62/31 7/6/32 102/101/33
f 103/102/34 63/65/35 106/105/36
f 66/66/37 8/7/38 107/106/39
f 108/107/40 67/69/41 111/110/42
f 70/70/43 9/8/44 112/111/45
f 113/112/46 71/73/47 116/115/48
f 74/74/49 1/9/50 117/116/51
f 118/117/52 39/41/53 76/75/54
f 79/79/55 11/10/56 122/121/57
f 123/122/58 80/83/59 126/125/60
f 84/84/61 12/11/62 127/126/63
f 128/127/64 85/88/65 131/130/66
f 89/89/67 13/12/68 132/131/69
f 133/132/70 90/93/71 136/135/72
f 94/94/73 14/13/74 137/136/75
f 138/137/76 95/98/77 141/140/78
f 99/99/79 15/14/80 142/141/81
f 143/142/82 100/103/83 146/145/84
f 104/104/85 16/15/86 147/146/87
f 148/147/88 105/108/89 151/150/90
f 109/109/91 17/16/92 152/151/93
f 153/152/94 110/113/95 156/155/96
f 114/114/97 18/17/98 157/156/99
f 158/157/100 115/118/101 161/160/102
f 119/119/103 10/18/104 162/161/105
f 163/162/106 75/78/107 121/120/108
f 124/124/109 20/19/110 28/28/111
f 165/165/112 125/128/113 172/172/114
f 129/129/115 21/20/116 29/29/117
f 169/169/118 130/133/119 176/176/120
f 134/134/121 22/21/122 30/30/123
f 173/173/124 135/138/125 180/180/126
f 139/139/127 23/22/128 31/31/129
f 177/177/130 140/143/131 184/184/132
f 144/144/133 24/23/134 32/32/135
f 181/181/136 145/148/137 188/188/138
f 149/149/139 25/24/140 33/33/141
f 185/185/142 150/153/143 192/192/144
f 154/154/145 26/25/146 34/34/147
f 189/189/148 155/158/149 196/196/150
f 159/159/151 27/26/152 35/35/153
f 193/193/154 160/163/155 200/200/156
f 164/164/157 19/27/158 36/36/159
f 197/197/160 120/123/161 168/168/162
f 44/43/163 41/40/164 208/208/165
f 48/47/166 45/44/167 207/206/168
f 52/51/169 49/48/170 206/205/171
f 56/55/172 53/52/173 205/204/174
f 60/59/175 57/56/176 204/203/177
f 64/63/178 61/60/179 203/202/180
f 68/67/181 65/64/182 202/201/183
f 72/71/184 69/68/185 37/37/186
f 40/39/187 73/72/188 201/207/189
f 166/166/190 171/171/191 210/210/192
f 170/170/193 175/175/194 211/211/195
f 174/174/196 179/179/197 212/212/198
f 178/178/199 183/183/200 213/213/201
f 182/182/202 187/187/203 214/214/204
f 186/186/205 191/191/206 215/215/207
f 190/190/208 195/195/209 216/216/210
f 194/194/211 199/199/212 38/38/213
f 198/198/214 167/167/215 209/209/216
