# This file uses centimeters as units for non-parametric coordinates.

v 0.222616 3.234513 -1.459104
v -0.582816 3.234513 -0.901776
v -0.582816 3.234513 0.901776
v 0.222616 3.234513 1.459104
v 0.720401 3.234513 0.000000
v 0.192791 3.734513 -1.263621
v -0.504734 3.734513 -0.780961
v -0.504734 3.734513 0.780961
v 0.192791 3.734513 1.263621
v 0.623885 3.734513 0.000000
v 0.111308 4.100539 -0.729552
v -0.291408 4.100539 -0.450888
v -0.291408 4.100539 0.450888
v 0.111308 4.100539 0.729552
v 0.360200 4.100539 0.000000
v 0.000000 4.234513 0.000000
v 0.222616 3.234513 -1.459104
v -0.582816 3.234513 -0.901776
v -0.582816 3.234513 -0.901776
v -0.582816 3.234513 0.901776
v -0.582816 3.234513 0.901776
v -0.582816 3.234513 0.901776
v 0.222616 3.234513 1.459104
v 0.720401 3.234513 0.000000
v 0.720401 3.234513 0.000000
v 0.720401 3.234513 0.000000
v 0.192791 3.734513 -1.263621
v 0.192791 3.734513 -1.263621
v 0.192791 3.734513 -1.263621
v 0.192791 3.734513 -1.263621
v 0.192791 3.734513 -1.263621
v -0.504734 3.734513 -0.780961
v -0.504734 3.734513 -0.780961
v -0.504734 3.734513 -0.780961
v -0.504734 3.734513 -0.780961
v -0.504734 3.734513 -0.780961
v -0.504734 3.734513 0.780961
v -0.504734 3.734513 0.780961
v -0.504734 3.734513 0.780961
v -0.504734 3.734513 0.780961
v -0.504734 3.734513 0.780961
v 0.192791 3.734513 1.263621
v 0.192791 3.734513 1.263621
v 0.192791 3.734513 1.263621
v 0.192791 3.734513 1.263621
v 0.192791 3.734513 1.263621
v 0.623885 3.734513 0.000000
v 0.623885 3.734513 0.000000
v 0.623885 3.734513 0.000000
v 0.623885 3.734513 0.000000
v 0.623885 3.734513 0.000000
v 0.111308 4.100539 -0.729552
v 0.111308 4.100539 -0.729552
v 0.111308 4.100539 -0.729552
v 0.111308 4.100539 -0.729552
v 0.111308 4.100539 -0.729552
v -0.291408 4.100539 -0.450888
v -0.291408 4.100539 -0.450888
v -0.291408 4.100539 -0.450888
v -0.291408 4.100539 -0.450888
v -0.291408 4.100539 0.450888
v -0.291408 4.100539 0.450888
v -0.291408 4.100539 0.450888
v 0.111308 4.100539 0.729552
v 0.111308 4.100539 0.729552
v 0.111308 4.100539 0.729552
v 0.111308 4.100539 0.729552
v 0.111308 4.100539 0.729552
v 0.360200 4.100539 0.000000
v 0.360200 4.100539 0.000000
v 0.360200 4.100539 0.000000
v 0.000000 4.234513 0.000000
v 0.000000 4.234513 0.000000
v 0.000000 4.234513 0.000000
v 0.000000 4.234513 0.000000
vt 0.000000 0.500000
vt 0.200000 0.500000
vt 0.200000 0.666667
vt 0.400000 0.500000
vt 0.400000 0.666667
vt 0.600000 0.500000
vt 0.600000 0.666667
vt 0.800000 0.500000
vt 0.800000 0.666667
vt 1.000000 0.666667
vt 0.200000 0.833333
vt 0.400000 0.833333
vt 0.600000 0.833333
vt 0.800000 0.833333
vt 1.000000 0.833333
vt 0.700000 1.000000
vt 1.000000 0.500000
vt 0.200000 0.500000
vt 0.200000 0.500000
vt 0.400000 0.500000
vt 0.400000 0.500000
vt 0.400000 0.500000
vt 0.600000 0.500000
vt 0.800000 0.500000
vt 0.800000 0.500000
vt 0.800000 0.500000
vt 0.000000 0.666667
vt 0.000000 0.666667
vt 0.000000 0.666667
vt 1.000000 0.666667
vt 1.000000 0.666667
vt 0.200000 0.666667
vt 0.200000 0.666667
vt 0.200000 0.666667
vt 0.200000 0.666667
vt 0.200000 0.666667
vt 0.400000 0.666667
vt 0.400000 0.666667
vt 0.400000 0.666667
vt 0.400000 0.666667
vt 0.400000 0.666667
vt 0.600000 0.666667
vt 0.600000 0.666667
vt 0.600000 0.666667
vt 0.600000 0.666667
vt 0.600000 0.666667
vt 0.800000 0.666667
vt 0.800000 0.666667
vt 0.800000 0.666667
vt 0.800000 0.666667
vt 0.800000 0.666667
vt 0.000000 0.833333
vt 0.000000 0.833333
vt 0.000000 0.833333
vt 1.000000 0.833333
vt 1.000000 0.833333
vt 0.200000 0.833333
vt 0.200000 0.833333
vt 0.200000 0.833333
vt 0.200000 0.833333
vt 0.400000 0.833333
vt 0.400000 0.833333
vt 0.400000 0.833333
vt 0.600000 0.833333
vt 0.600000 0.833333
vt 0.600000 0.833333
vt 0.600000 0.833333
vt 0.600000 0.833333
vt 0.800000 0.833333
vt 0.800000 0.833333
vt 0.800000 0.833333
vt 0.900000 1.000000
vt 0.100000 1.000000
vt 0.300000 1.000000
vt 0.500000 1.000000
vn -0.546857 0.276360 -0.790299
vn -0.546857 0.276360 -0.790299
vn -0.546857 0.276360 -0.790299
vn -0.546857 0.276360 -0.790299
vn -0.546857 0.276360 -0.790299
vn -0.546857 0.276360 -0.790299
vn -0.988025 0.154295 -0.000000
vn -0.988025 0.154295 -0.000000
vn -0.988025 0.154295 -0.000000
vn -0.988025 0.154295 -0.000000
vn -0.988025 0.154295 -0.000000
vn -0.988025 0.154295 -0.000000
vn -0.546857 0.276360 0.790299
vn -0.546857 0.276360 0.790299
vn -0.546857 0.276360 0.790299
vn -0.546857 0.276360 0.790299
vn -0.546857 0.276360 0.790299
vn -0.546857 0.276360 0.790299
vn 0.931029 0.179717 0.317628
vn 0.931029 0.179717 0.317628
vn 0.931029 0.179717 0.317628
vn 0.931029 0.179717 0.317628
vn 0.931029 0.179717 0.317628
vn 0.931029 0.179717 0.317628
vn 0.931029 0.179717 -0.317628
vn 0.931029 0.179717 -0.317627
vn 0.931029 0.179717 -0.317628
vn 0.931029 0.179717 -0.317628
vn 0.931029 0.179717 -0.317627
vn 0.931029 0.179717 -0.317627
vn -0.387911 0.731613 -0.560596
vn -0.387911 0.731613 -0.560596
vn -0.387911 0.731613 -0.560596
vn -0.387911 0.731613 -0.560596
vn -0.387911 0.731613 -0.560596
vn -0.387911 0.731613 -0.560596
vn -0.863973 0.503538 -0.000000
vn -0.863973 0.503538 -0.000000
vn -0.863973 0.503538 -0.000000
vn -0.863973 0.503538 -0.000000
vn -0.863973 0.503538 -0.000000
vn -0.863973 0.503538 -0.000000
vn -0.387911 0.731613 0.560596
vn -0.387911 0.731613 0.560596
vn -0.387911 0.731613 0.560596
vn -0.387911 0.731613 0.560596
vn -0.387911 0.731613 0.560596
vn -0.387911 0.731613 0.560596
vn 0.781974 0.563335 0.266777
vn 0.781974 0.563335 0.266777
vn 0.781975 0.563335 0.266777
vn 0.781975 0.563335 0.266777
vn 0.781974 0.563335 0.266777
vn 0.781975 0.563335 0.266777
vn 0.781974 0.563335 -0.266777
vn 0.781974 0.563335 -0.266777
vn 0.781974 0.563335 -0.266777
vn 0.781974 0.563335 -0.266777
vn 0.781974 0.563335 -0.266777
vn 0.781974 0.563335 -0.266776
vn -0.137839 0.970216 -0.199200
vn -0.137839 0.970216 -0.199200
vn -0.137839 0.970216 -0.199200
vn -0.417717 0.908577 0.000000
vn -0.417717 0.908577 0.000000
vn -0.417717 0.908577 0.000000
vn -0.137839 0.970216 0.199201
vn -0.137839 0.970216 0.199201
vn -0.137839 0.970216 0.199200
vn 0.346172 0.930708 0.118099
vn 0.346172 0.930708 0.118099
vn 0.346172 0.930708 0.118099
vn 0.346172 0.930708 -0.118099
vn 0.346172 0.930708 -0.118099
vn 0.346172 0.930708 -0.118099
f 1/1/1 19/19/2 28/27/3
f 29/28/4 18/18/5 33/32/6
f 2/2/7 22/22/8 34/33/9
f 35/34/10 21/21/11 40/40/12
f 23/23/13 46/46/14 3/4/15
f 20/20/16 45/45/17 41/41/18
f 4/6/19 26/26/20 9/7/21
f 42/42/22 25/25/23 50/50/24
f 17/17/25 6/10/26 5/8/27
f 24/24/28 27/30/29 51/51/30
f 30/29/31 7/3/32 53/52/33
f 54/53/34 32/35/35 60/60/36
f 36/36/37 39/39/38 12/11/39
f 57/57/40 38/38/41 62/61/42
f 44/44/43 68/68/44 8/5/45
f 37/37/46 67/67/47 63/62/48
f 43/43/49 49/49/50 14/13/51
f 64/64/52 48/48/53 70/69/54
f 31/31/55 11/15/56 10/9/57
f 47/47/58 52/55/59 71/70/60
f 55/54/61 59/59/62 73/73/63
f 58/58/64 13/12/65 74/74/66
f 61/63/67 66/66/68 75/75/69
f 65/65/70 15/14/71 16/16/72
f 69/71/73 56/56/74 72/72/75
