# This file uses centimeters as units for non-parametric coordinates.

v 0.152886 0.171755 -0.517104
v -0.152886 0.171755 -0.517104
v -0.305772 0.171755 0.000000
v -0.152886 0.171755 0.517104
v 0.152886 0.171755 0.517104
v 0.305772 0.171755 0.000000
v 0.152886 3.253122 -0.517104
v -0.152886 3.253122 -0.517104
v -0.305772 3.253122 0.000000
v -0.152886 3.253122 0.517104
v 0.152886 3.253122 0.517104
v 0.305772 3.253122 0.000000
v 0.000000 0.171755 0.000000
v 0.000000 3.253122 0.000000
v -0.482441 2.019456 0.517104
v -0.635327 2.019456 0.000000
v -0.482441 2.019456 -0.517104
v -0.176669 2.019456 -0.517104
v -0.023783 2.019456 0.000000
v -0.176669 2.019456 0.517104
v -0.168588 1.543446 0.517104
v -0.321474 1.543446 0.000000
v -0.168587 1.543446 -0.517104
v 0.137185 1.543446 -0.517104
v 0.290071 1.543446 0.000000
v 0.137185 1.543446 0.517104
v 0.152886 0.171755 -0.517104
v 0.152886 0.171755 -0.517104
v 0.152886 0.171755 -0.517104
v 0.152886 0.171755 -0.517104
v -0.152886 0.171755 -0.517104
v -0.152886 0.171755 -0.517104
v -0.152886 0.171755 -0.517104
v -0.152886 0.171755 -0.517104
v -0.305772 0.171755 0.000000
v -0.305772 0.171755 0.000000
v -0.305772 0.171755 0.000000
v -0.305772 0.171755 0.000000
v -0.305772 0.171755 0.000000
v -0.152886 0.171755 0.517104
v -0.152886 0.171755 0.517104
v -0.152886 0.171755 0.517104
v -0.152886 0.171755 0.517104
v 0.152886 0.171755 0.517104
v 0.152886 0.171755 0.517104
v 0.152886 0.171755 0.517104
v 0.152886 0.171755 0.517104
v 0.305772 0.171755 0.000000
v 0.305772 0.171755 0.000000
v 0.305772 0.171755 0.000000
v 0.152886 3.253122 -0.517104
v 0.152886 3.253122 -0.517104
v 0.152886 3.253122 -0.517104
v 0.152886 3.253122 -0.517104
v -0.152886 3.253122 -0.517104
v -0.152886 3.253122 -0.517104
v -0.152886 3.253122 -0.517104
v -0.152886 3.253122 -0.517104
v -0.305772 3.253122 0.000000
v -0.305772 3.253122 0.000000
v -0.305772 3.253122 0.000000
v -0.305772 3.253122 0.000000
v -0.305772 3.253122 0.000000
v -0.152886 3.253122 0.517104
v -0.152886 3.253122 0.517104
v -0.152886 3.253122 0.517104
v -0.152886 3.253122 0.517104
v 0.152886 3.253122 0.517104
v 0.152886 3.253122 0.517104
v 0.152886 3.253122 0.517104
v 0.152886 3.253122 0.517104
v 0.305772 3.253122 0.000000
v 0.305772 3.253122 0.000000
v 0.305772 3.253122 0.000000
v 0.000000 0.171755 0.000000
v 0.000000 0.171755 0.000000
v 0.000000 0.171755 0.000000
v 0.000000 0.171755 0.000000
v 0.000000 0.171755 0.000000
v 0.000000 3.253122 0.000000
v 0.000000 3.253122 0.000000
v 0.000000 3.253122 0.000000
v 0.000000 3.253122 0.000000
v 0.000000 3.253122 0.000000
v -0.482441 2.019456 0.517104
v -0.482441 2.019456 0.517104
v -0.482441 2.019456 0.517104
v -0.482441 2.019456 0.517104
v -0.482441 2.019456 0.517104
v -0.635327 2.019456 0.000000
v -0.635327 2.019456 0.000000
v -0.635327 2.019456 0.000000
v -0.482441 2.019456 -0.517104
v -0.482441 2.019456 -0.517104
v -0.482441 2.019456 -0.517104
v -0.482441 2.019456 -0.517104
v -0.482441 2.019456 -0.517104
v -0.176669 2.019456 -0.517104
v -0.176669 2.019456 -0.517104
v -0.176669 2.019456 -0.517104
v -0.176669 2.019456 -0.517104
v -0.176669 2.019456 -0.517104
v -0.023783 2.019456 0.000000
v -0.023783 2.019456 0.000000
v -0.023783 2.019456 0.000000
v -0.023783 2.019456 0.000000
v -0.023783 2.019456 0.000000
v -0.023783 2.019456 0.000000
v -0.023783 2.019456 0.000000
v -0.176669 2.019456 0.517104
v -0.176669 2.019456 0.517104
v -0.176669 2.019456 0.517104
v -0.176669 2.019456 0.517104
v -0.176669 2.019456 0.517104
v -0.168588 1.543446 0.517104
v -0.168588 1.543446 0.517104
v -0.168588 1.543446 0.517104
v -0.168588 1.543446 0.517104
v -0.168588 1.543446 0.517104
v -0.321474 1.543446 0.000000
v -0.321474 1.543446 0.000000
v -0.321474 1.543446 0.000000
v -0.321474 1.543446 0.000000
v -0.321474 1.543446 0.000000
v -0.168587 1.543446 -0.517104
v -0.168587 1.543446 -0.517104
v -0.168587 1.543446 -0.517104
v -0.168587 1.543446 -0.517104
v -0.168587 1.543446 -0.517104
v 0.137185 1.543446 -0.517104
v 0.137185 1.543446 -0.517104
v 0.137185 1.543446 -0.517104
v 0.137185 1.543446 -0.517104
v 0.137185 1.543446 -0.517104
v 0.290071 1.543446 0.000000
v 0.290071 1.543446 0.000000
v 0.290071 1.543446 0.000000
v 0.290071 1.543446 0.000000
v 0.290071 1.543446 0.000000
v 0.137185 1.543446 0.517104
v 0.137185 1.543446 0.517104
v 0.137185 1.543446 0.517104
v 0.137185 1.543446 0.517104
v 0.137185 1.543446 0.517104
vt 0.416667 0.312500
vt 0.416667 0.479852
vt 0.458333 0.312500
vt 0.458333 0.479852
vt 0.500000 0.312500
vt 0.500000 0.479852
vt 0.541667 0.312500
vt 0.541667 0.479852
vt 0.583333 0.479852
vt 0.625000 0.312500
vt 0.625000 0.479852
vt 0.500000 0.150000
vt 0.656250 0.156250
vt 0.500000 0.837500
vt 0.458333 0.537927
vt 0.500000 0.537927
vt 0.500000 0.688440
vt 0.458333 0.688440
vt 0.416667 0.537927
vt 0.416667 0.688440
vt 0.375000 0.537927
vt 0.583333 0.537927
vt 0.625000 0.688440
vt 0.583333 0.688440
vt 0.541667 0.537927
vt 0.541667 0.688440
vt 0.578125 0.020934
vt 0.578125 0.020934
vt 0.375000 0.312500
vt 0.625000 0.312500
vt 0.421875 0.020934
vt 0.421875 0.020934
vt 0.416667 0.312500
vt 0.416667 0.312500
vt 0.458333 0.312500
vt 0.458333 0.312500
vt 0.458333 0.312500
vt 0.343750 0.156250
vt 0.343750 0.156250
vt 0.500000 0.312500
vt 0.500000 0.312500
vt 0.421875 0.291566
vt 0.421875 0.291566
vt 0.541667 0.312500
vt 0.541667 0.312500
vt 0.578125 0.291566
vt 0.578125 0.291566
vt 0.656250 0.156250
vt 0.583333 0.312500
vt 0.583333 0.312500
vt 0.375000 0.688440
vt 0.578125 0.979066
vt 0.578125 0.979066
vt 0.625000 0.688440
vt 0.416667 0.688440
vt 0.421875 0.979066
vt 0.421875 0.979066
vt 0.416667 0.688440
vt 0.458333 0.688440
vt 0.458333 0.688440
vt 0.343750 0.843750
vt 0.343750 0.843750
vt 0.458333 0.688440
vt 0.500000 0.688440
vt 0.421875 0.708434
vt 0.421875 0.708434
vt 0.500000 0.688440
vt 0.541667 0.688440
vt 0.578125 0.708434
vt 0.578125 0.708434
vt 0.541667 0.688440
vt 0.656250 0.843750
vt 0.656250 0.843750
vt 0.583333 0.688440
vt 0.500000 0.150000
vt 0.500000 0.150000
vt 0.500000 0.150000
vt 0.500000 0.150000
vt 0.500000 0.150000
vt 0.500000 0.837500
vt 0.500000 0.837500
vt 0.500000 0.837500
vt 0.500000 0.837500
vt 0.500000 0.837500
vt 0.500000 0.537927
vt 0.500000 0.537927
vt 0.500000 0.537927
vt 0.500000 0.537927
vt 0.500000 0.537927
vt 0.458333 0.537927
vt 0.458333 0.537927
vt 0.458333 0.537927
vt 0.416667 0.537927
vt 0.416667 0.537927
vt 0.416667 0.537927
vt 0.416667 0.537927
vt 0.416667 0.537927
vt 0.375000 0.537927
vt 0.375000 0.537927
vt 0.375000 0.537927
vt 0.625000 0.537927
vt 0.625000 0.537927
vt 0.583333 0.537927
vt 0.583333 0.537927
vt 0.583333 0.537927
vt 0.583333 0.537927
vt 0.583333 0.537927
vt 0.583333 0.537927
vt 0.583333 0.537927
vt 0.541667 0.537927
vt 0.541667 0.537927
vt 0.541667 0.537927
vt 0.541667 0.537927
vt 0.541667 0.537927
vt 0.500000 0.479852
vt 0.500000 0.479852
vt 0.500000 0.479852
vt 0.500000 0.479852
vt 0.500000 0.479852
vt 0.458333 0.479852
vt 0.458333 0.479852
vt 0.458333 0.479852
vt 0.458333 0.479852
vt 0.458333 0.479852
vt 0.416667 0.479852
vt 0.416667 0.479852
vt 0.416667 0.479852
vt 0.416667 0.479852
vt 0.416667 0.479852
vt 0.625000 0.479852
vt 0.375000 0.479852
vt 0.375000 0.479852
vt 0.375000 0.479852
vt 0.625000 0.479852
vt 0.583333 0.479852
vt 0.583333 0.479852
vt 0.583333 0.479852
vt 0.583333 0.479852
vt 0.583333 0.479852
vt 0.541667 0.479852
vt 0.541667 0.479852
vt 0.541667 0.479852
vt 0.541667 0.479852
vt 0.541667 0.479852
vn 0.000000 0.000000 -1.000000
vn 0.000000 0.000000 -1.000000
vn 0.000000 0.000000 -1.000000
vn 0.000000 0.000000 -1.000000
vn 0.000000 0.000000 -1.000000
vn 0.000000 0.000000 -1.000000
vn -0.958907 -0.010976 -0.283509
vn -0.958907 -0.010976 -0.283509
vn -0.951184 -0.127127 -0.281226
vn -0.951184 -0.127127 -0.281226
vn -0.958907 -0.010976 -0.283509
vn -0.938789 -0.204048 -0.277561
vn -0.958907 -0.010976 0.283509
vn -0.951184 -0.127127 0.281225
vn -0.958907 -0.010976 0.283509
vn -0.958907 -0.010976 0.283509
vn -0.951184 -0.127127 0.281225
vn -0.938789 -0.204048 0.277561
vn 0.000000 0.000000 1.000000
vn 0.000000 0.000000 1.000000
vn 0.000000 0.000000 1.000000
vn 0.000000 0.000000 1.000000
vn 0.000000 0.000000 1.000000
vn 0.000000 0.000000 1.000000
vn 0.958907 0.010976 0.283509
vn 0.951184 0.127127 0.281225
vn 0.958907 0.010976 0.283509
vn 0.958907 0.010976 0.283509
vn 0.951184 0.127127 0.281225
vn 0.938789 0.204048 0.277561
vn 0.958907 0.010976 -0.283509
vn 0.958907 0.010976 -0.283509
vn 0.951184 0.127127 -0.281225
vn 0.951184 0.127127 -0.281225
vn 0.958907 0.010976 -0.283509
vn 0.938789 0.204048 -0.277561
vn 0.000000 -1.000000 0.000000
vn 0.000000 -1.000000 0.000000
vn 0.000000 -1.000000 0.000000
vn 0.000000 -1.000000 0.000000
vn 0.000000 -1.000000 0.000000
vn 0.000000 -1.000000 0.000000
vn 0.000000 -1.000000 0.000000
vn 0.000000 -1.000000 0.000000
vn 0.000000 -1.000000 0.000000
vn 0.000000 -1.000000 0.000000
vn 0.000000 -1.000000 0.000000
vn 0.000000 -1.000000 0.000000
vn 0.000000 -1.000000 0.000000
vn 0.000000 -1.000000 0.000000
vn 0.000000 -1.000000 0.000000
vn 0.000000 -1.000000 0.000000
vn 0.000000 -1.000000 0.000000
vn 0.000000 -1.000000 0.000000
vn 0.000000 1.000000 0.000000
vn 0.000000 1.000000 0.000000
vn 0.000000 1.000000 0.000000
vn 0.000000 1.000000 0.000000
vn 0.000000 1.000000 0.000000
vn 0.000000 1.000000 0.000000
vn 0.000000 1.000000 0.000000
vn 0.000000 1.000000 0.000000
vn 0.000000 1.000000 0.000000
vn 0.000000 1.000000 0.000000
vn 0.000000 1.000000 0.000000
vn 0.000000 1.000000 0.000000
vn 0.000000 1.000000 0.000000
vn 0.000000 1.000000 0.000000
vn 0.000000 1.000000 0.000000
vn 0.000000 1.000000 0.000000
vn 0.000000 1.000000 0.000000
vn 0.000000 1.000000 0.000000
vn -0.958724 0.022383 0.283455
vn -0.958964 0.001138 0.283526
vn -0.928968 0.248159 0.274657
vn -0.928968 0.248159 0.274657
vn -0.958964 0.001138 0.283526
vn -0.928968 0.248159 0.274657
vn -0.958724 0.022383 -0.283455
vn -0.928968 0.248159 -0.274657
vn -0.958964 0.001138 -0.283526
vn -0.958964 0.001138 -0.283526
vn -0.928968 0.248159 -0.274657
vn -0.928968 0.248159 -0.274657
vn 0.000001 0.000000 -1.000000
vn 0.000001 0.000000 -1.000000
vn 0.000001 0.000000 -1.000000
vn 0.000001 0.000000 -1.000000
vn 0.000001 0.000000 -1.000000
vn 0.000001 0.000000 -1.000000
vn 0.958724 -0.022383 -0.283455
vn 0.928968 -0.248159 -0.274657
vn 0.958964 -0.001138 -0.283526
vn 0.958964 -0.001138 -0.283526
vn 0.928968 -0.248159 -0.274657
vn 0.928968 -0.248159 -0.274657
vn 0.958724 -0.022383 0.283455
vn 0.958964 -0.001138 0.283526
vn 0.928968 -0.248159 0.274657
vn 0.928968 -0.248159 0.274657
vn 0.958964 -0.001138 0.283526
vn 0.928968 -0.248159 0.274657
vn 0.000000 0.000000 1.000000
vn 0.000000 0.000000 1.000000
vn 0.000000 0.000000 1.000000
vn 0.000000 0.000000 1.000000
vn 0.000000 0.000000 1.000000
vn 0.000000 0.000000 1.000000
vn -0.951184 -0.127127 0.281225
vn -0.958964 0.001138 0.283526
vn -0.938789 -0.204048 0.277561
vn -0.938789 -0.204048 0.277561
vn -0.958964 0.001138 0.283526
vn -0.958724 0.022383 0.283455
vn -0.951184 -0.127127 -0.281226
vn -0.938789 -0.204048 -0.277561
vn -0.958964 0.001138 -0.283526
vn -0.958964 0.001138 -0.283526
vn -0.938789 -0.204048 -0.277561
vn -0.958724 0.022383 -0.283455
vn 0.000000 0.000000 -1.000000
vn 0.000000 0.000000 -1.000000
vn 0.000001 0.000000 -1.000000
vn 0.000001 0.000000 -1.000000
vn 0.000000 0.000000 -1.000000
vn 0.000001 0.000000 -1.000000
vn 0.951184 0.127127 -0.281225
vn 0.938789 0.204048 -0.277561
vn 0.958964 -0.001138 -0.283526
vn 0.958964 -0.001138 -0.283526
vn 0.938789 0.204048 -0.277561
vn 0.958724 -0.022383 -0.283455
vn 0.951184 0.127127 0.281225
vn 0.958964 -0.001138 0.283526
vn 0.938789 0.204048 0.277561
vn 0.938789 0.204048 0.277561
vn 0.958964 -0.001138 0.283526
vn 0.958724 -0.022383 0.283455
vn 0.000000 0.000000 1.000000
vn 0.000000 0.000000 1.000000
vn 0.000000 0.000000 1.000000
vn 0.000000 0.000000 1.000000
vn 0.000000 0.000000 1.000000
vn 0.000000 0.000000 1.000000
f 30/29/1 2/1/2 132/131/3
f 133/132/4 31/33/5 126/125/6
f 34/34/7 37/37/8 127/126/9
f 128/127/10 36/36/11 121/120/12
f 41/41/13 118/118/14 3/3/15
f 35/35/16 117/117/17 122/121/18
f 45/45/19 143/143/20 4/5/21
f 40/40/22 142/142/23 119/119/24
f 50/50/25 139/139/26 5/7/27
f 44/44/28 138/138/29 144/144/30
f 49/49/31 1/10/32 25/9/33
f 135/135/34 27/30/35 131/130/36
f 32/31/37 29/28/38 79/78/39
f 38/38/40 33/32/41 78/77/42
f 42/42/43 39/39/44 77/76/45
f 46/46/46 43/43/47 76/75/48
f 6/13/49 47/47/50 13/12/51
f 28/27/52 48/48/53 75/79/54
f 53/52/55 58/57/56 81/81/57
f 57/56/58 63/62/59 82/82/60
f 62/61/61 66/66/62 83/83/63
f 65/65/64 70/70/65 84/84/66
f 69/69/67 74/73/68 14/14/69
f 73/72/70 54/53/71 80/80/72
f 91/90/73 89/88/74 60/59/75
f 61/60/76 88/87/77 67/67/78
f 92/91/79 9/18/80 94/94/81
f 95/95/82 59/63/83 56/55/84
f 96/96/85 8/20/86 99/99/87
f 100/100/88 55/58/89 52/51/90
f 101/101/91 7/23/92 106/105/93
f 107/106/94 51/54/95 12/24/96
f 112/111/97 109/108/98 11/26/99
f 68/68/100 108/107/101 72/74/102
f 87/86/103 114/113/104 10/17/105
f 64/64/106 113/112/107 71/71/108
f 116/116/109 15/16/110 123/122/111
f 124/123/112 85/89/113 16/15/114
f 129/128/115 22/4/116 17/19/117
f 93/93/118 120/124/119 90/92/120
f 134/133/121 23/2/122 18/21/123
f 98/98/124 125/129/125 97/97/126
f 136/136/127 24/11/128 104/103/129
f 105/104/130 130/134/131 102/102/132
f 137/137/133 19/22/134 26/8/135
f 140/140/136 103/109/137 111/110/138
f 141/141/139 20/25/140 21/6/141
f 115/115/142 110/114/143 86/85/144
