# This file uses centimeters as units for non-parametric coordinates.

v 0.127194 3.307324 -1.396485
v -0.375673 3.307324 -1.396485
v -0.627106 3.307324 -0.960990
v -0.375673 3.307324 -0.525495
v 0.127193 3.307324 -0.525495
v 0.378627 3.307324 -0.960990
v 0.189293 3.565224 -1.504044
v -0.437772 3.565224 -1.504044
v -0.751304 3.565224 -0.960990
v -0.437772 3.565224 -0.417936
v 0.189292 3.565224 -0.417936
v 0.502825 3.565224 -0.960990
v 0.189293 3.851471 -1.504044
v -0.437772 3.851471 -1.504044
v -0.751304 3.851471 -0.960990
v -0.437772 3.851471 -0.417936
v 0.189292 3.851471 -0.417936
v 0.502825 3.851471 -0.960990
v 0.127194 4.109370 -1.396485
v -0.375673 4.109370 -1.396485
v -0.627106 4.109370 -0.960990
v -0.375673 4.109370 -0.525495
v 0.127193 4.109370 -0.525495
v 0.378627 4.109370 -0.960990
v 0.015295 4.287842 -1.202672
v -0.263775 4.287842 -1.202672
v -0.403310 4.287842 -0.960990
v -0.263775 4.287842 -0.719308
v 0.015295 4.287842 -0.719308
v 0.154830 4.287842 -0.960990
v -0.124240 4.351538 -0.960990
v 1.020605 3.649062 -0.028136
v 0.105836 3.649062 -0.028136
v -0.351549 3.649062 0.764077
v 0.105836 3.649062 1.556290
v 1.020605 3.649062 1.556290
v 1.477989 3.649062 0.764077
v 1.210060 3.995578 -0.356282
v -0.083619 3.995578 -0.356282
v -0.730459 3.995578 0.764077
v -0.083619 3.995578 1.884436
v 1.210060 3.995578 1.884436
v 1.856899 3.995578 0.764077
v 1.020605 4.342095 -0.028136
v 0.105836 4.342095 -0.028136
v -0.351549 4.342095 0.764077
v 0.105836 4.342095 1.556290
v 1.020605 4.342095 1.556290
v 1.477989 4.342095 0.764077
v 0.563220 4.485627 0.764077
v 0.127194 3.307324 -1.396485
v 0.127194 3.307324 -1.396485
v -0.375673 3.307324 -1.396485
v -0.375673 3.307324 -1.396485
v -0.627106 3.307324 -0.960990
v -0.627106 3.307324 -0.960990
v -0.375673 3.307324 -0.525495
v -0.375673 3.307324 -0.525495
v 0.127193 3.307324 -0.525495
v 0.127193 3.307324 -0.525495
v 0.378627 3.307324 -0.960990
v 0.378627 3.307324 -0.960990
v 0.189293 3.565224 -1.504044
v 0.189293 3.565224 -1.504044
v 0.189293 3.565224 -1.504044
v 0.189293 3.565224 -1.504044
v 0.189293 3.565224 -1.504044
v -0.437772 3.565224 -1.504044
v -0.437772 3.565224 -1.504044
v -0.437772 3.565224 -1.504044
v -0.437772 3.565224 -1.504044
v -0.437772 3.565224 -1.504044
v -0.751304 3.565224 -0.960990
v -0.751304 3.565224 -0.960990
v -0.751304 3.565224 -0.960990
v -0.751304 3.565224 -0.960990
v -0.751304 3.565224 -0.960990
v -0.437772 3.565224 -0.417936
v -0.437772 3.565224 -0.417936
v -0.437772 3.565224 -0.417936
v -0.437772 3.565224 -0.417936
v -0.437772 3.565224 -0.417936
v 0.189292 3.565224 -0.417936
v 0.189292 3.565224 -0.417936
v 0.189292 3.565224 -0.417936
v 0.189292 3.565224 -0.417936
v 0.189292 3.565224 -0.417936
v 0.502825 3.565224 -0.960990
v 0.502825 3.565224 -0.960990
v 0.502825 3.565224 -0.960990
v 0.502825 3.565224 -0.960990
v 0.502825 3.565224 -0.960990
v 0.189293 3.851471 -1.504044
v 0.189293 3.851471 -1.504044
v 0.189293 3.851471 -1.504044
v 0.189293 3.851471 -1.504044
v 0.189293 3.851471 -1.504044
v -0.437772 3.851471 -1.504044
v -0.437772 3.851471 -1.504044
v -0.437772 3.851471 -1.504044
v -0.437772 3.851471 -1.504044
v -0.437772 3.851471 -1.504044
v -0.751304 3.851471 -0.960990
v -0.751304 3.851471 -0.960990
v -0.751304 3.851471 -0.960990
v -0.751304 3.851471 -0.960990
v -0.751304 3.851471 -0.960990
v -0.437772 3.851471 -0.417936
v -0.437772 3.851471 -0.417936
v -0.437772 3.851471 -0.417936
v -0.437772 3.851471 -0.417936
v -0.437772 3.851471 -0.417936
v 0.189292 3.851471 -0.417936
v 0.189292 3.851471 -0.417936
v 0.189292 3.851471 -0.417936
v 0.189292 3.851471 -0.417936
v 0.189292 3.851471 -0.417936
v 0.502825 3.851471 -0.960990
v 0.502825 3.851471 -0.960990
v 0.502825 3.851471 -0.960990
v 0.502825 3.851471 -0.960990
v 0.502825 3.851471 -0.960990
v 0.127194 4.109370 -1.396485
v 0.127194 4.109370 -1.396485
v 0.127194 4.109370 -1.396485
v 0.127194 4.109370 -1.396485
v 0.127194 4.109370 -1.396485
v -0.375673 4.109370 -1.396485
v -0.375673 4.109370 -1.396485
v -0.375673 4.109370 -1.396485
v -0.375673 4.109370 -1.396485
v -0.375673 4.109370 -1.396485
v -0.627106 4.109370 -0.960990
v -0.627106 4.109370 -0.960990
v -0.627106 4.109370 -0.960990
v -0.627106 4.109370 -0.960990
v -0.627106 4.109370 -0.960990
v -0.375673 4.109370 -0.525495
v -0.375673 4.109370 -0.525495
v -0.375673 4.109370 -0.525495
v -0.375673 4.109370 -0.525495
v -0.375673 4.109370 -0.525495
v 0.127193 4.109370 -0.525495
v 0.127193 4.109370 -0.525495
v 0.127193 4.109370 -0.525495
v 0.127193 4.109370 -0.525495
v 0.127193 4.109370 -0.525495
v 0.378627 4.109370 -0.960990
v 0.378627 4.109370 -0.960990
v 0.378627 4.109370 -0.960990
v 0.378627 4.109370 -0.960990
v 0.378627 4.109370 -0.960990
v 0.015295 4.287842 -1.202672
v 0.015295 4.287842 -1.202672
v 0.015295 4.287842 -1.202672
v 0.015295 4.287842 -1.202672
v -0.263775 4.287842 -1.202672
v -0.263775 4.287842 -1.202672
v -0.263775 4.287842 -1.202672
v -0.263775 4.287842 -1.202672
v -0.403310 4.287842 -0.960990
v -0.403310 4.287842 -0.960990
v -0.403310 4.287842 -0.960990
v -0.403310 4.287842 -0.960990
v -0.263775 4.287842 -0.719308
v -0.263775 4.287842 -0.719308
v -0.263775 4.287842 -0.719308
v -0.263775 4.287842 -0.719308
v 0.015295 4.287842 -0.719308
v 0.015295 4.287842 -0.719308
v 0.015295 4.287842 -0.719308
v 0.015295 4.287842 -0.719308
v 0.154830 4.287842 -0.960990
v 0.154830 4.287842 -0.960990
v 0.154830 4.287842 -0.960990
v 0.154830 4.287842 -0.960990
v -0.124240 4.351538 -0.960990
v -0.124240 4.351538 -0.960990
v -0.124240 4.351538 -0.960990
v -0.124240 4.351538 -0.960990
v -0.124240 4.351538 -0.960990
v 1.020605 3.649062 -0.028136
v 1.020605 3.649062 -0.028136
v 0.105836 3.649062 -0.028136
v 0.105836 3.649062 -0.028136
v -0.351549 3.649062 0.764077
v -0.351549 3.649062 0.764077
v 0.105836 3.649062 1.556290
v 0.105836 3.649062 1.556290
v 1.020605 3.649062 1.556290
v 1.020605 3.649062 1.556290
v 1.477989 3.649062 0.764077
v 1.477989 3.649062 0.764077
v 1.210060 3.995578 -0.356282
v 1.210060 3.995578 -0.356282
v 1.210060 3.995578 -0.356282
v 1.210060 3.995578 -0.356282
v 1.210060 3.995578 -0.356282
v -0.083619 3.995578 -0.356282
v -0.083619 3.995578 -0.356282
v -0.083619 3.995578 -0.356282
v -0.083619 3.995578 -0.356282
v -0.083619 3.995578 -0.356282
v -0.730459 3.995578 0.764077
v -0.730459 3.995578 0.764077
v -0.730459 3.995578 0.764077
v -0.730459 3.995578 0.764077
v -0.730459 3.995578 0.764077
v -0.083619 3.995578 1.884436
v -0.083619 3.995578 1.884436
v -0.083619 3.995578 1.884436
v -0.083619 3.995578 1.884436
v -0.083619 3.995578 1.884436
v 1.210060 3.995578 1.884436
v 1.210060 3.995578 1.884436
v 1.210060 3.995578 1.884436
v 1.210060 3.995578 1.884436
v 1.210060 3.995578 1.884436
v 1.856899 3.995578 0.764077
v 1.856899 3.995578 0.764077
v 1.856899 3.995578 0.764077
v 1.856899 3.995578 0.764077
v 1.856899 3.995578 0.764077
v 1.020605 4.342095 -0.028136
v 1.020605 4.342095 -0.028136
v 1.020605 4.342095 -0.028136
v 1.020605 4.342095 -0.028136
v 0.105836 4.342095 -0.028136
v 0.105836 4.342095 -0.028136
v 0.105836 4.342095 -0.028136
v 0.105836 4.342095 -0.028136
v -0.351549 4.342095 0.764077
v -0.351549 4.342095 0.764077
v -0.351549 4.342095 0.764077
v -0.351549 4.342095 0.764077
v 0.105836 4.342095 1.556290
v 0.105836 4.342095 1.556290
v 0.105836 4.342095 1.556290
v 0.105836 4.342095 1.556290
v 1.020605 4.342095 1.556290
v 1.020605 4.342095 1.556290
v 1.020605 4.342095 1.556290
v 1.020605 4.342095 1.556290
v 1.477989 4.342095 0.764077
v 1.477989 4.342095 0.764077
v 1.477989 4.342095 0.764077
v 1.477989 4.342095 0.764077
v 0.563220 4.485627 0.764077
v 0.563220 4.485627 0.764077
v 0.563220 4.485627 0.764077
v 0.563220 4.485627 0.764077
v 0.563220 4.485627 0.764077
vt 0.000000 0.285714
vt 0.166667 0.285714
vt 0.166667 0.428571
vt 0.333333 0.285714
vt 0.333333 0.428571
vt 0.500000 0.285714
vt 0.500000 0.428571
vt 0.666667 0.285714
vt 0.666667 0.428571
vt 0.833333 0.285714
vt 0.833333 0.428571
vt 1.000000 0.428571
vt 0.166667 0.571429
vt 0.333333 0.571429
vt 0.500000 0.571429
vt 0.666667 0.571429
vt 0.833333 0.571429
vt 1.000000 0.571429
vt 0.166667 0.714286
vt 0.333333 0.714286
vt 0.500000 0.714286
vt 0.666667 0.714286
vt 0.833333 0.714286
vt 1.000000 0.714286
vt 0.166667 0.857143
vt 0.000000 0.857143
vt 0.333333 0.857143
vt 0.500000 0.857143
vt 0.666667 0.857143
vt 0.833333 0.857143
vt 0.750000 1.000000
vt 0.000000 0.250000
vt 0.166667 0.250000
vt 0.166667 0.500000
vt 0.333333 0.250000
vt 0.333333 0.500000
vt 0.500000 0.250000
vt 0.500000 0.500000
vt 0.666667 0.250000
vt 0.666667 0.500000
vt 0.833333 0.250000
vt 0.833333 0.500000
vt 1.000000 0.500000
vt 0.166667 0.750000
vt 0.000000 0.750000
vt 0.333333 0.750000
vt 0.500000 0.750000
vt 0.666667 0.750000
vt 0.833333 0.750000
vt 0.750000 1.000000
vt 1.000000 0.285714
vt 1.000000 0.285714
vt 0.166667 0.285714
vt 0.166667 0.285714
vt 0.333333 0.285714
vt 0.333333 0.285714
vt 0.500000 0.285714
vt 0.500000 0.285714
vt 0.666667 0.285714
vt 0.666667 0.285714
vt 0.833333 0.285714
vt 0.833333 0.285714
vt 1.000000 0.428571
vt 0.000000 0.428571
vt 0.000000 0.428571
vt 0.000000 0.428571
vt 1.000000 0.428571
vt 0.166667 0.428571
vt 0.166667 0.428571
vt 0.166667 0.428571
vt 0.166667 0.428571
vt 0.166667 0.428571
vt 0.333333 0.428571
vt 0.333333 0.428571
vt 0.333333 0.428571
vt 0.333333 0.428571
vt 0.333333 0.428571
vt 0.500000 0.428571
vt 0.500000 0.428571
vt 0.500000 0.428571
vt 0.500000 0.428571
vt 0.500000 0.428571
vt 0.666667 0.428571
vt 0.666667 0.428571
vt 0.666667 0.428571
vt 0.666667 0.428571
vt 0.666667 0.428571
vt 0.833333 0.428571
vt 0.833333 0.428571
vt 0.833333 0.428571
vt 0.833333 0.428571
vt 0.833333 0.428571
vt 1.000000 0.571429
vt 0.000000 0.571429
vt 0.000000 0.571429
vt 0.000000 0.571429
vt 1.000000 0.571429
vt 0.166667 0.571429
vt 0.166667 0.571429
vt 0.166667 0.571429
vt 0.166667 0.571429
vt 0.166667 0.571429
vt 0.333333 0.571429
vt 0.333333 0.571429
vt 0.333333 0.571429
vt 0.333333 0.571429
vt 0.333333 0.571429
vt 0.500000 0.571429
vt 0.500000 0.571429
vt 0.500000 0.571429
vt 0.500000 0.571429
vt 0.500000 0.571429
vt 0.666667 0.571429
vt 0.666667 0.571429
vt 0.666667 0.571429
vt 0.666667 0.571429
vt 0.666667 0.571429
vt 0.833333 0.571429
vt 0.833333 0.571429
vt 0.833333 0.571429
vt 0.833333 0.571429
vt 0.833333 0.571429
vt 1.000000 0.714286
vt 0.000000 0.714286
vt 0.000000 0.714286
vt 0.000000 0.714286
vt 1.000000 0.714286
vt 0.166667 0.714286
vt 0.166667 0.714286
vt 0.166667 0.714286
vt 0.166667 0.714286
vt 0.166667 0.714286
vt 0.333333 0.714286
vt 0.333333 0.714286
vt 0.333333 0.714286
vt 0.333333 0.714286
vt 0.333333 0.714286
vt 0.500000 0.714286
vt 0.500000 0.714286
vt 0.500000 0.714286
vt 0.500000 0.714286
vt 0.500000 0.714286
vt 0.666667 0.714286
vt 0.666667 0.714286
vt 0.666667 0.714286
vt 0.666667 0.714286
vt 0.666667 0.714286
vt 0.833333 0.714286
vt 0.833333 0.714286
vt 0.833333 0.714286
vt 0.833333 0.714286
vt 0.833333 0.714286
vt 0.000000 0.857143
vt 0.000000 0.857143
vt 1.000000 0.857143
vt 1.000000 0.857143
vt 0.166667 0.857143
vt 0.166667 0.857143
vt 0.166667 0.857143
vt 0.166667 0.857143
vt 0.333333 0.857143
vt 0.333333 0.857143
vt 0.333333 0.857143
vt 0.333333 0.857143
vt 0.500000 0.857143
vt 0.500000 0.857143
vt 0.500000 0.857143
vt 0.500000 0.857143
vt 0.666667 0.857143
vt 0.666667 0.857143
vt 0.666667 0.857143
vt 0.666667 0.857143
vt 0.833333 0.857143
vt 0.833333 0.857143
vt 0.833333 0.857143
vt 0.833333 0.857143
vt 0.916667 1.000000
vt 0.083333 1.000000
vt 0.250000 1.000000
vt 0.416667 1.000000
vt 0.583333 1.000000
vt 1.000000 0.250000
vt 1.000000 0.250000
vt 0.166667 0.250000
vt 0.166667 0.250000
vt 0.333333 0.250000
vt 0.333333 0.250000
vt 0.500000 0.250000
vt 0.500000 0.250000
vt 0.666667 0.250000
vt 0.666667 0.250000
vt 0.833333 0.250000
vt 0.833333 0.250000
vt 1.000000 0.500000
vt 0.000000 0.500000
vt 0.000000 0.500000
vt 0.000000 0.500000
vt 1.000000 0.500000
vt 0.166667 0.500000
vt 0.166667 0.500000
vt 0.166667 0.500000
vt 0.166667 0.500000
vt 0.166667 0.500000
vt 0.333333 0.500000
vt 0.333333 0.500000
vt 0.333333 0.500000
vt 0.333333 0.500000
vt 0.333333 0.500000
vt 0.500000 0.500000
vt 0.500000 0.500000
vt 0.500000 0.500000
vt 0.500000 0.500000
vt 0.500000 0.500000
vt 0.666667 0.500000
vt 0.666667 0.500000
vt 0.666667 0.500000
vt 0.666667 0.500000
vt 0.666667 0.500000
vt 0.833333 0.500000
vt 0.833333 0.500000
vt 0.833333 0.500000
vt 0.833333 0.500000
vt 0.833333 0.500000
vt 0.000000 0.750000
vt 0.000000 0.750000
vt 1.000000 0.750000
vt 1.000000 0.750000
vt 0.166667 0.750000
vt 0.166667 0.750000
vt 0.166667 0.750000
vt 0.166667 0.750000
vt 0.333333 0.750000
vt 0.333333 0.750000
vt 0.333333 0.750000
vt 0.333333 0.750000
vt 0.500000 0.750000
vt 0.500000 0.750000
vt 0.500000 0.750000
vt 0.500000 0.750000
vt 0.666667 0.750000
vt 0.666667 0.750000
vt 0.666667 0.750000
vt 0.666667 0.750000
vt 0.833333 0.750000
vt 0.833333 0.750000
vt 0.833333 0.750000
vt 0.833333 0.750000
vt 0.916667 1.000000
vt 0.083333 1.000000
vt 0.250000 1.000000
vt 0.416667 1.000000
vt 0.583333 1.000000
vn 0.000000 -0.384921 -0.922949
vn 0.000000 -0.384921 -0.922949
vn 0.000000 -0.384921 -0.922949
vn 0.000000 -0.384921 -0.922949
vn 0.000000 -0.384921 -0.922949
vn 0.000000 -0.384921 -0.922949
vn -0.799298 -0.384921 -0.461475
vn -0.799298 -0.384921 -0.461475
vn -0.799298 -0.384921 -0.461475
vn -0.799298 -0.384921 -0.461475
vn -0.799298 -0.384921 -0.461475
vn -0.799298 -0.384921 -0.461475
vn -0.799298 -0.384921 0.461475
vn -0.799298 -0.384921 0.461475
vn -0.799298 -0.384921 0.461475
vn -0.799298 -0.384921 0.461475
vn -0.799298 -0.384921 0.461475
vn -0.799298 -0.384921 0.461475
vn 0.000000 -0.384921 0.922949
vn 0.000000 -0.384921 0.922949
vn 0.000000 -0.384921 0.922949
vn 0.000000 -0.384921 0.922949
vn 0.000000 -0.384921 0.922949
vn 0.000000 -0.384921 0.922950
vn 0.799298 -0.384921 0.461475
vn 0.799297 -0.384921 0.461475
vn 0.799298 -0.384921 0.461475
vn 0.799298 -0.384921 0.461475
vn 0.799297 -0.384921 0.461475
vn 0.799297 -0.384921 0.461475
vn 0.799298 -0.384921 -0.461475
vn 0.799298 -0.384921 -0.461475
vn 0.799298 -0.384921 -0.461475
vn 0.799298 -0.384921 -0.461475
vn 0.799298 -0.384921 -0.461475
vn 0.799298 -0.384921 -0.461475
vn 0.000000 0.000000 -1.000000
vn 0.000000 0.000000 -1.000000
vn 0.000000 0.000000 -1.000000
vn 0.000000 0.000000 -1.000000
vn 0.000000 0.000000 -1.000000
vn 0.000000 0.000000 -1.000000
vn -0.866026 0.000000 -0.500000
vn -0.866026 0.000000 -0.500000
vn -0.866026 0.000000 -0.500000
vn -0.866026 0.000000 -0.500000
vn -0.866026 0.000000 -0.500000
vn -0.866026 0.000000 -0.500000
vn -0.866026 0.000000 0.500000
vn -0.866026 0.000000 0.500000
vn -0.866026 0.000000 0.500000
vn -0.866026 0.000000 0.500000
vn -0.866026 0.000000 0.500000
vn -0.866026 0.000000 0.500000
vn 0.000000 0.000000 1.000000
vn 0.000000 0.000000 1.000000
vn 0.000000 0.000000 1.000000
vn 0.000000 0.000000 1.000000
vn 0.000000 0.000000 1.000000
vn 0.000000 0.000000 1.000000
vn 0.866026 0.000000 0.500000
vn 0.866026 0.000000 0.500000
vn 0.866026 0.000000 0.500000
vn 0.866026 0.000000 0.500000
vn 0.866026 0.000000 0.500000
vn 0.866026 0.000000 0.500000
vn 0.866026 0.000000 -0.500000
vn 0.866026 0.000000 -0.500000
vn 0.866026 0.000000 -0.500000
vn 0.866026 0.000000 -0.500000
vn 0.866026 0.000000 -0.500000
vn 0.866026 0.000000 -0.500000
vn 0.000000 0.384921 -0.922949
vn 0.000000 0.384921 -0.922949
vn 0.000000 0.384921 -0.922949
vn 0.000000 0.384921 -0.922949
vn 0.000000 0.384921 -0.922949
vn 0.000000 0.384921 -0.922949
vn -0.799298 0.384921 -0.461475
vn -0.799298 0.384921 -0.461475
vn -0.799298 0.384921 -0.461475
vn -0.799298 0.384921 -0.461475
vn -0.799298 0.384921 -0.461475
vn -0.799298 0.384921 -0.461475
vn -0.799298 0.384921 0.461475
vn -0.799298 0.384921 0.461475
vn -0.799298 0.384921 0.461475
vn -0.799298 0.384921 0.461475
vn -0.799298 0.384921 0.461475
vn -0.799298 0.384921 0.461475
vn 0.000000 0.384921 0.922949
vn 0.000000 0.384921 0.922949
vn 0.000000 0.384921 0.922949
vn 0.000000 0.384921 0.922949
vn 0.000000 0.384921 0.922949
vn 0.000000 0.384921 0.922949
vn 0.799298 0.384921 0.461475
vn 0.799298 0.384921 0.461475
vn 0.799298 0.384921 0.461475
vn 0.799298 0.384921 0.461475
vn 0.799298 0.384921 0.461475
vn 0.799298 0.384921 0.461475
vn 0.799298 0.384921 -0.461475
vn 0.799298 0.384921 -0.461475
vn 0.799298 0.384921 -0.461475
vn 0.799298 0.384921 -0.461475
vn 0.799298 0.384921 -0.461475
vn 0.799298 0.384921 -0.461475
vn 0.000000 0.735622 -0.677392
vn 0.000000 0.735622 -0.677392
vn 0.000000 0.735622 -0.677392
vn 0.000000 0.735622 -0.677392
vn 0.000000 0.735622 -0.677392
vn 0.000000 0.735622 -0.677392
vn -0.586638 0.735623 -0.338696
vn -0.586638 0.735623 -0.338696
vn -0.586638 0.735623 -0.338696
vn -0.586638 0.735623 -0.338696
vn -0.586638 0.735623 -0.338696
vn -0.586638 0.735623 -0.338696
vn -0.586638 0.735623 0.338695
vn -0.586638 0.735623 0.338695
vn -0.586638 0.735623 0.338695
vn -0.586638 0.735623 0.338695
vn -0.586638 0.735623 0.338695
vn -0.586638 0.735623 0.338695
vn 0.000000 0.735623 0.677391
vn 0.000000 0.735623 0.677391
vn 0.000000 0.735623 0.677391
vn 0.000000 0.735623 0.677391
vn 0.000000 0.735623 0.677391
vn 0.000000 0.735623 0.677391
vn 0.586638 0.735623 0.338695
vn 0.586638 0.735623 0.338695
vn 0.586638 0.735623 0.338695
vn 0.586638 0.735623 0.338695
vn 0.586638 0.735623 0.338695
vn 0.586638 0.735623 0.338695
vn 0.586638 0.735623 -0.338695
vn 0.586638 0.735623 -0.338695
vn 0.586638 0.735623 -0.338695
vn 0.586638 0.735623 -0.338695
vn 0.586638 0.735623 -0.338695
vn 0.586638 0.735623 -0.338695
vn 0.000000 0.966981 -0.254849
vn 0.000000 0.966981 -0.254849
vn 0.000000 0.966981 -0.254849
vn -0.220707 0.966981 -0.127425
vn -0.220707 0.966981 -0.127425
vn -0.220707 0.966981 -0.127425
vn -0.220707 0.966981 0.127425
vn -0.220707 0.966981 0.127425
vn -0.220707 0.966981 0.127425
vn 0.000000 0.966981 0.254849
vn 0.000000 0.966981 0.254849
vn 0.000000 0.966981 0.254849
vn 0.220707 0.966980 0.127426
vn 0.220707 0.966980 0.127426
vn 0.220707 0.966980 0.127426
vn 0.220707 0.966981 -0.127425
vn 0.220707 0.966981 -0.127425
vn 0.220707 0.966981 -0.127425
vn 0.000000 -0.687597 -0.726093
vn 0.000000 -0.687597 -0.726093
vn 0.000000 -0.687597 -0.726093
vn 0.000000 -0.687597 -0.726093
vn 0.000000 -0.687597 -0.726093
vn 0.000000 -0.687597 -0.726093
vn -0.628814 -0.687597 -0.363046
vn -0.628814 -0.687597 -0.363046
vn -0.628814 -0.687597 -0.363046
vn -0.628814 -0.687597 -0.363046
vn -0.628814 -0.687597 -0.363046
vn -0.628814 -0.687597 -0.363046
vn -0.628814 -0.687597 0.363046
vn -0.628814 -0.687597 0.363046
vn -0.628814 -0.687597 0.363046
vn -0.628814 -0.687597 0.363046
vn -0.628814 -0.687597 0.363046
vn -0.628814 -0.687597 0.363046
vn 0.000000 -0.687597 0.726093
vn 0.000000 -0.687597 0.726093
vn 0.000000 -0.687597 0.726093
vn 0.000000 -0.687597 0.726093
vn 0.000000 -0.687597 0.726093
vn 0.000000 -0.687597 0.726093
vn 0.628814 -0.687597 0.363046
vn 0.628814 -0.687597 0.363046
vn 0.628814 -0.687597 0.363046
vn 0.628814 -0.687597 0.363046
vn 0.628814 -0.687597 0.363046
vn 0.628814 -0.687597 0.363046
vn 0.628814 -0.687597 -0.363046
vn 0.628814 -0.687597 -0.363046
vn 0.628814 -0.687597 -0.363046
vn 0.628814 -0.687597 -0.363046
vn 0.628814 -0.687597 -0.363046
vn 0.628814 -0.687597 -0.363046
vn 0.000000 0.687598 -0.726092
vn 0.000000 0.687598 -0.726092
vn 0.000000 0.687598 -0.726092
vn 0.000000 0.687598 -0.726092
vn 0.000000 0.687598 -0.726092
vn 0.000000 0.687597 -0.726092
vn -0.628814 0.687597 -0.363046
vn -0.628814 0.687597 -0.363046
vn -0.628814 0.687597 -0.363046
vn -0.628814 0.687597 -0.363046
vn -0.628814 0.687597 -0.363046
vn -0.628814 0.687597 -0.363046
vn -0.628815 0.687597 0.363046
vn -0.628815 0.687597 0.363046
vn -0.628815 0.687597 0.363046
vn -0.628815 0.687597 0.363046
vn -0.628815 0.687597 0.363046
vn -0.628815 0.687597 0.363046
vn 0.000000 0.687597 0.726092
vn 0.000000 0.687597 0.726092
vn 0.000000 0.687597 0.726092
vn 0.000000 0.687597 0.726092
vn 0.000000 0.687597 0.726092
vn 0.000000 0.687597 0.726092
vn 0.628814 0.687597 0.363046
vn 0.628814 0.687597 0.363046
vn 0.628814 0.687597 0.363046
vn 0.628814 0.687597 0.363046
vn 0.628814 0.687597 0.363046
vn 0.628814 0.687597 0.363046
vn 0.628815 0.687597 -0.363046
vn 0.628815 0.687597 -0.363046
vn 0.628814 0.687597 -0.363046
vn 0.628814 0.687597 -0.363046
vn 0.628815 0.687597 -0.363046
vn 0.628815 0.687597 -0.363046
vn 0.000000 0.983981 -0.178275
vn 0.000000 0.983981 -0.178275
vn 0.000000 0.983981 -0.178275
vn -0.154391 0.983981 -0.089138
vn -0.154391 0.983981 -0.089138
vn -0.154391 0.983981 -0.089138
vn -0.154391 0.983981 0.089138
vn -0.154391 0.983981 0.089138
vn -0.154391 0.983981 0.089138
vn 0.000000 0.983981 0.178276
vn 0.000000 0.983981 0.178276
vn 0.000000 0.983981 0.178276
vn 0.154391 0.983981 0.089138
vn 0.154391 0.983981 0.089138
vn 0.154391 0.983981 0.089138
vn 0.154391 0.983981 -0.089138
vn 0.154391 0.983981 -0.089138
vn 0.154391 0.983981 -0.089138
f 1/1/1 54/54/2 65/64/3
f 66/65/4 53/53/5 69/68/6
f 2/2/7 56/56/8 70/69/9
f 71/70/10 55/55/11 74/73/12
f 3/4/13 58/58/14 75/74/15
f 76/75/16 57/57/17 79/78/18
f 4/6/19 60/60/20 80/79/21
f 81/80/22 59/59/23 84/83/24
f 5/8/25 62/62/26 85/84/27
f 86/85/28 61/61/29 89/88/30
f 6/10/31 52/52/32 90/89/33
f 91/90/34 51/51/35 64/63/36
f 67/66/37 8/3/38 95/94/39
f 96/95/40 68/71/41 99/98/42
f 72/72/43 9/5/44 100/99/45
f 101/100/46 73/76/47 104/103/48
f 77/77/49 10/7/50 105/104/51
f 106/105/52 78/81/53 109/108/54
f 82/82/55 11/9/56 110/109/57
f 111/110/58 83/86/59 114/113/60
f 87/87/61 12/11/62 115/114/63
f 116/115/64 88/91/65 119/118/66
f 92/92/67 7/12/68 120/119/69
f 121/120/70 63/67/71 94/93/72
f 97/96/73 14/13/74 125/124/75
f 126/125/76 98/101/77 129/128/78
f 102/102/79 15/14/80 130/129/81
f 131/130/82 103/106/83 134/133/84
f 107/107/85 16/15/86 135/134/87
f 136/135/88 108/111/89 139/138/90
f 112/112/91 17/16/92 140/139/93
f 141/140/94 113/116/95 144/143/96
f 117/117/97 18/17/98 145/144/99
f 146/145/100 118/121/101 149/148/102
f 122/122/103 13/18/104 150/149/105
f 151/150/106 93/97/107 124/123/108
f 127/126/109 20/19/110 25/26/111
f 153/153/112 128/131/113 160/160/114
f 132/132/115 21/20/116 26/25/117
f 157/157/118 133/136/119 164/164/120
f 137/137/121 22/21/122 27/27/123
f 161/161/124 138/141/125 168/168/126
f 142/142/127 23/22/128 28/28/129
f 165/165/130 143/146/131 172/172/132
f 147/147/133 24/23/134 29/29/135
f 169/169/136 148/151/137 176/176/138
f 152/152/139 19/24/140 30/30/141
f 173/173/142 123/127/143 156/156/144
f 154/154/145 159/159/146 178/178/147
f 158/158/148 163/163/149 179/179/150
f 162/162/151 167/167/152 180/180/153
f 166/166/154 171/171/155 181/181/156
f 170/170/157 175/175/158 31/31/159
f 174/174/160 155/155/161 177/177/162
f 32/32/163 185/185/164 196/195/165
f 197/196/166 184/184/167 200/199/168
f 33/33/169 187/187/170 201/200/171
f 202/201/172 186/186/173 205/204/174
f 34/35/175 189/189/176 206/205/177
f 207/206/178 188/188/179 210/209/180
f 35/37/181 191/191/182 211/210/183
f 212/211/184 190/190/185 215/214/186
f 36/39/187 193/193/188 216/215/189
f 217/216/190 192/192/191 220/219/192
f 37/41/193 183/183/194 221/220/195
f 222/221/196 182/182/197 195/194/198
f 198/197/199 39/34/200 44/45/201
f 224/224/202 199/202/203 231/231/204
f 203/203/205 40/36/206 45/44/207
f 228/228/208 204/207/209 235/235/210
f 208/208/211 41/38/212 46/46/213
f 232/232/214 209/212/215 239/239/216
f 213/213/217 42/40/218 47/47/219
f 236/236/220 214/217/221 243/243/222
f 218/218/223 43/42/224 48/48/225
f 240/240/226 219/222/227 247/247/228
f 223/223/229 38/43/230 49/49/231
f 244/244/232 194/198/233 227/227/234
f 225/225/235 230/230/236 249/249/237
f 229/229/238 234/234/239 250/250/240
f 233/233/241 238/238/242 251/251/243
f 237/237/244 242/242/245 252/252/246
f 241/241/247 246/246/248 50/50/249
f 245/245/250 226/226/251 248/248/252
