# This file uses centimeters as units for non-parametric coordinates.

v 0.192276 0.135667 -0.333031
v -0.192276 0.135667 -0.333031
v -0.384551 0.135667 0.000000
v -0.192276 0.135667 0.333031
v 0.192276 0.135667 0.333031
v 0.384551 0.135667 0.000000
v 0.757370 3.650173 0.430481
v 0.372818 3.650173 0.430481
v 0.180542 3.650173 0.763512
v 0.372818 3.650173 1.096543
v 0.757369 3.650173 1.096543
v 0.949645 3.650173 0.763512
v -0.002018 1.576394 0.503888
v 0.190257 1.576394 0.170857
v 0.574809 1.576394 0.170857
v 0.767084 1.576394 0.503888
v 0.574809 1.576394 0.836919
v 0.190257 1.576394 0.836919
v 0.188994 0.127848 -0.327347
v -0.188994 0.127848 -0.327347
v -0.377988 0.127848 0.000000
v -0.188994 0.127848 0.327347
v 0.188994 0.127848 0.327347
v 0.377988 0.127848 0.000000
v 0.078294 3.321643 -1.258806
v -0.299694 3.321643 -1.258806
v -0.488688 3.321643 -0.931459
v -0.299694 3.321643 -0.604111
v 0.078294 3.321643 -0.604111
v 0.267288 3.321643 -0.931459
v 0.357377 2.138517 -1.381940
v 0.168383 2.138517 -1.054593
v -0.209605 2.138517 -1.054593
v -0.398599 2.138517 -1.381940
v -0.209605 2.138517 -1.709287
v 0.168383 2.138517 -1.709287
v 0.120014 3.321643 -1.186544
v 0.210104 2.138517 -1.637025
v 0.230715 0.127848 -0.255085
v 0.192276 0.135667 -0.333031
v 0.192276 0.135667 -0.333031
v -0.192276 0.135667 -0.333031
v -0.384551 0.135667 0.000000
v -0.384551 0.135667 0.000000
v -0.192276 0.135667 0.333031
v -0.192276 0.135667 0.333031
v 0.192276 0.135667 0.333031
v 0.192276 0.135667 0.333031
v 0.192276 0.135667 0.333031
v 0.384551 0.135667 0.000000
v 0.384551 0.135667 0.000000
v 0.757370 3.650173 0.430481
v 0.757370 3.650173 0.430481
v 0.372818 3.650173 0.430481
v 0.372818 3.650173 0.430481
v 0.372818 3.650173 0.430481
v 0.180542 3.650173 0.763512
v 0.180542 3.650173 0.763512
v 0.372818 3.650173 1.096543
v 0.372818 3.650173 1.096543
v 0.757369 3.650173 1.096543
v 0.949645 3.650173 0.763512
v 0.949645 3.650173 0.763512
v -0.002018 1.576394 0.503888
v -0.002018 1.576394 0.503888
v -0.002018 1.576394 0.503888
v -0.002018 1.576394 0.503888
v -0.002018 1.576394 0.503888
v 0.190257 1.576394 0.170857
v 0.190257 1.576394 0.170857
v 0.190257 1.576394 0.170857
v 0.190257 1.576394 0.170857
v 0.190257 1.576394 0.170857
v 0.574809 1.576394 0.170857
v 0.574809 1.576394 0.170857
v 0.574809 1.576394 0.170857
v 0.574809 1.576394 0.170857
v 0.574809 1.576394 0.170857
v 0.767084 1.576394 0.503888
v 0.767084 1.576394 0.503888
v 0.767084 1.576394 0.503888
v 0.767084 1.576394 0.503888
v 0.767084 1.576394 0.503888
v 0.574809 1.576394 0.836919
v 0.574809 1.576394 0.836919
v 0.574809 1.576394 0.836919
v 0.574809 1.576394 0.836919
v 0.574809 1.576394 0.836919
v 0.190257 1.576394 0.836919
v 0.190257 1.576394 0.836919
v 0.190257 1.576394 0.836919
v 0.190257 1.576394 0.836919
v 0.190257 1.576394 0.836919
v 0.188994 0.127848 -0.327347
v 0.188994 0.127848 -0.327347
v -0.188994 0.127848 -0.327347
v -0.188994 0.127848 -0.327347
v -0.188994 0.127848 -0.327347
v -0.377988 0.127848 0.000000
v -0.377988 0.127848 0.000000
v -0.188994 0.127848 0.327347
v -0.188994 0.127848 0.327347
v 0.188994 0.127848 0.327347
v 0.377988 0.127848 0.000000
v 0.377988 0.127848 0.000000
v 0.078294 3.321643 -1.258806
v 0.078294 3.321643 -1.258806
v 0.078294 3.321643 -1.258806
v -0.299694 3.321643 -1.258806
v -0.299694 3.321643 -1.258806
v -0.488688 3.321643 -0.931459
v -0.488688 3.321643 -0.931459
v -0.299694 3.321643 -0.604111
v 0.078294 3.321643 -0.604111
v 0.078294 3.321643 -0.604111
v 0.267288 3.321643 -0.931459
v 0.267288 3.321643 -0.931459
v 0.357377 2.138517 -1.381940
v 0.357377 2.138517 -1.381940
v 0.357377 2.138517 -1.381940
v 0.357377 2.138517 -1.381940
v 0.357377 2.138517 -1.381940
v 0.168383 2.138517 -1.054593
v 0.168383 2.138517 -1.054593
v 0.168383 2.138517 -1.054593
v 0.168383 2.138517 -1.054593
v 0.168383 2.138517 -1.054593
v 0.168383 2.138517 -1.054593
v -0.209605 2.138517 -1.054593
v -0.209605 2.138517 -1.054593
v -0.209605 2.138517 -1.054593
v -0.209605 2.138517 -1.054593
v -0.209605 2.138517 -1.054593
v -0.209605 2.138517 -1.054593
v -0.398599 2.138517 -1.381940
v -0.398599 2.138517 -1.381940
v -0.398599 2.138517 -1.381940
v -0.398599 2.138517 -1.381940
v -0.398599 2.138517 -1.381940
v -0.209605 2.138517 -1.709287
v -0.209605 2.138517 -1.709287
v -0.209605 2.138517 -1.709287
v -0.209605 2.138517 -1.709287
v 0.168383 2.138517 -1.709287
v 0.168383 2.138517 -1.709287
v 0.168383 2.138517 -1.709287
v 0.168383 2.138517 -1.709287
v 0.120014 3.321643 -1.186544
v 0.120014 3.321643 -1.186544
v 0.210104 2.138517 -1.637025
v 0.210104 2.138517 -1.637025
v 0.210104 2.138517 -1.637025
v 0.210104 2.138517 -1.637025
v 0.210104 2.138517 -1.637025
v 0.230715 0.127848 -0.255085
v 0.230715 0.127848 -0.255085
vt 0.375000 0.312500
vt 0.416667 0.312500
vt 0.416667 0.480213
vt 0.375000 0.480213
vt 0.458333 0.312500
vt 0.458333 0.480213
vt 0.500000 0.312500
vt 0.500000 0.480213
vt 0.541667 0.312500
vt 0.541667 0.480213
vt 0.583333 0.312500
vt 0.583333 0.480213
vt 0.458333 0.688440
vt 0.416667 0.688440
vt 0.625000 0.688440
vt 0.583333 0.688440
vt 0.541667 0.688440
vt 0.500000 0.688440
vt 0.375000 0.312500
vt 0.416667 0.312500
vt 0.416667 0.469967
vt 0.375000 0.469967
vt 0.458333 0.312500
vt 0.458333 0.469967
vt 0.500000 0.312500
vt 0.500000 0.469967
vt 0.541667 0.312500
vt 0.541667 0.469967
vt 0.583333 0.312500
vt 0.583333 0.469967
vt 0.615802 0.312500
vt 0.615802 0.469967
vt 0.583333 0.688440
vt 0.541667 0.688440
vt 0.500000 0.688440
vt 0.458333 0.688440
vt 0.416667 0.688440
vt 0.625000 0.688440
vt 0.615802 0.688440
vt 0.375000 0.312500
vt 0.625000 0.312500
vt 0.416667 0.312500
vt 0.458333 0.312500
vt 0.458333 0.312500
vt 0.500000 0.312500
vt 0.500000 0.312500
vt 0.541667 0.312500
vt 0.541667 0.312500
vt 0.541667 0.312500
vt 0.583333 0.312500
vt 0.583333 0.312500
vt 0.625000 0.688440
vt 0.375000 0.688440
vt 0.416667 0.688440
vt 0.416667 0.688440
vt 0.416667 0.688440
vt 0.458333 0.688440
vt 0.458333 0.688440
vt 0.500000 0.688440
vt 0.500000 0.688440
vt 0.541667 0.688440
vt 0.583333 0.688440
vt 0.583333 0.688440
vt 0.458333 0.480213
vt 0.458333 0.480213
vt 0.458333 0.480213
vt 0.458333 0.480213
vt 0.458333 0.480213
vt 0.416667 0.480213
vt 0.416667 0.480213
vt 0.416667 0.480213
vt 0.416667 0.480213
vt 0.416667 0.480213
vt 0.375000 0.480213
vt 0.625000 0.480213
vt 0.625000 0.480213
vt 0.625000 0.480213
vt 0.375000 0.480213
vt 0.583333 0.480213
vt 0.583333 0.480213
vt 0.583333 0.480213
vt 0.583333 0.480213
vt 0.583333 0.480213
vt 0.541667 0.480213
vt 0.541667 0.480213
vt 0.541667 0.480213
vt 0.541667 0.480213
vt 0.541667 0.480213
vt 0.500000 0.480213
vt 0.500000 0.480213
vt 0.500000 0.480213
vt 0.500000 0.480213
vt 0.500000 0.480213
vt 0.625000 0.312500
vt 0.625000 0.312500
vt 0.416667 0.312500
vt 0.416667 0.312500
vt 0.416667 0.312500
vt 0.458333 0.312500
vt 0.458333 0.312500
vt 0.500000 0.312500
vt 0.500000 0.312500
vt 0.541667 0.312500
vt 0.583333 0.312500
vt 0.583333 0.312500
vt 0.625000 0.688440
vt 0.375000 0.688440
vt 0.375000 0.688440
vt 0.416667 0.688440
vt 0.416667 0.688440
vt 0.458333 0.688440
vt 0.458333 0.688440
vt 0.500000 0.688440
vt 0.541667 0.688440
vt 0.541667 0.688440
vt 0.583333 0.688440
vt 0.583333 0.688440
vt 0.583333 0.469967
vt 0.583333 0.469967
vt 0.583333 0.469967
vt 0.583333 0.469967
vt 0.583333 0.469967
vt 0.541667 0.469967
vt 0.541667 0.469967
vt 0.541667 0.469967
vt 0.541667 0.469967
vt 0.541667 0.469967
vt 0.541667 0.469967
vt 0.500000 0.469967
vt 0.500000 0.469967
vt 0.500000 0.469967
vt 0.500000 0.469967
vt 0.500000 0.469967
vt 0.500000 0.469967
vt 0.458333 0.469967
vt 0.458333 0.469967
vt 0.458333 0.469967
vt 0.458333 0.469967
vt 0.458333 0.469967
vt 0.416667 0.469967
vt 0.416667 0.469967
vt 0.416667 0.469967
vt 0.416667 0.469967
vt 0.375000 0.469967
vt 0.375000 0.469967
vt 0.625000 0.469967
vt 0.625000 0.469967
vt 0.615802 0.688440
vt 0.615802 0.688440
vt 0.615802 0.469967
vt 0.615802 0.469967
vt 0.615802 0.469967
vt 0.615802 0.469967
vt 0.615802 0.469967
vt 0.615802 0.312500
vt 0.615802 0.312500
vn 0.000000 0.330137 -0.943933
vn 0.000000 0.222666 -0.974895
vn 0.000000 0.330137 -0.943933
vn 0.000000 0.330137 -0.943933
vn 0.000000 0.222666 -0.974895
vn 0.000000 0.201171 -0.979556
vn -0.802745 0.375235 -0.463465
vn -0.802745 0.375235 -0.463465
vn -0.838822 0.248672 -0.484294
vn -0.838822 0.248672 -0.484294
vn -0.802745 0.375235 -0.463465
vn -0.842360 0.232177 -0.486337
vn -0.864715 0.054986 0.499243
vn -0.864715 0.054986 0.499243
vn -0.865524 0.034016 0.499711
vn -0.865524 0.034016 0.499711
vn -0.864715 0.054986 0.499243
vn -0.865713 0.026843 0.499820
vn 0.000000 -0.330137 0.943933
vn 0.000000 -0.330137 0.943933
vn 0.000000 -0.222666 0.974895
vn 0.000000 -0.222666 0.974895
vn 0.000000 -0.330137 0.943933
vn 0.000000 -0.201171 0.979556
vn 0.802745 -0.375235 0.463465
vn 0.838822 -0.248672 0.484294
vn 0.802745 -0.375235 0.463465
vn 0.802745 -0.375235 0.463465
vn 0.838822 -0.248672 0.484294
vn 0.842360 -0.232177 0.486337
vn 0.864715 -0.054986 -0.499243
vn 0.865524 -0.034016 -0.499711
vn 0.864715 -0.054986 -0.499243
vn 0.864715 -0.054986 -0.499243
vn 0.865524 -0.034016 -0.499711
vn 0.865713 -0.026843 -0.499820
vn -0.838822 0.248672 -0.484294
vn -0.842360 0.232177 -0.486337
vn -0.857798 0.137517 -0.495250
vn -0.857798 0.137517 -0.495250
vn -0.842360 0.232177 -0.486337
vn -0.857798 0.137517 -0.495250
vn 0.000000 0.222666 -0.974895
vn 0.000000 0.124224 -0.992254
vn 0.000000 0.201171 -0.979556
vn 0.000000 0.201171 -0.979556
vn 0.000000 0.124224 -0.992254
vn 0.000000 0.124224 -0.992254
vn 0.865524 -0.034016 -0.499711
vn 0.865945 -0.013641 -0.499953
vn 0.865713 -0.026843 -0.499820
vn 0.865713 -0.026843 -0.499820
vn 0.865945 -0.013641 -0.499953
vn 0.865945 -0.013641 -0.499953
vn 0.838822 -0.248672 0.484294
vn 0.857798 -0.137517 0.495250
vn 0.842360 -0.232177 0.486337
vn 0.842360 -0.232177 0.486337
vn 0.857798 -0.137517 0.495250
vn 0.857798 -0.137517 0.495250
vn 0.000000 -0.222666 0.974895
vn 0.000000 -0.201171 0.979556
vn 0.000000 -0.124224 0.992254
vn 0.000000 -0.124224 0.992254
vn 0.000000 -0.201171 0.979556
vn 0.000000 -0.124224 0.992254
vn -0.865524 0.034016 0.499711
vn -0.865713 0.026843 0.499820
vn -0.865945 0.013641 0.499953
vn -0.865945 0.013641 0.499953
vn -0.865713 0.026843 0.499820
vn -0.865945 0.013641 0.499953
vn 0.000000 -0.566419 -0.824118
vn 0.000000 -0.566419 -0.824118
vn 0.000000 -0.291227 -0.956654
vn 0.000000 -0.291227 -0.956654
vn 0.000000 -0.566419 -0.824118
vn 0.000000 -0.268922 -0.963162
vn -0.816759 -0.332475 -0.471556
vn -0.851647 -0.181469 -0.491698
vn -0.816759 -0.332475 -0.471556
vn -0.816759 -0.332475 -0.471556
vn -0.851647 -0.181469 -0.491698
vn -0.855124 -0.158166 -0.493706
vn -0.821228 0.317457 0.474136
vn -0.858521 0.131361 0.495667
vn -0.821228 0.317457 0.474136
vn -0.821228 0.317457 0.474136
vn -0.858521 0.131361 0.495667
vn -0.862796 0.086274 0.498136
vn 0.000000 0.566419 0.824118
vn 0.000000 0.291227 0.956654
vn 0.000000 0.566419 0.824118
vn 0.000000 0.566419 0.824118
vn 0.000000 0.291227 0.956654
vn 0.000000 0.268922 0.963162
vn 0.816759 0.332475 0.471556
vn 0.816759 0.332475 0.471556
vn 0.851647 0.181469 0.491698
vn 0.851647 0.181469 0.491698
vn 0.816759 0.332475 0.471556
vn 0.855124 0.158166 0.493706
vn 0.821228 -0.317457 -0.474136
vn 0.821228 -0.317457 -0.474136
vn 0.861572 -0.101283 -0.497429
vn 0.861572 -0.101283 -0.497429
vn 0.821228 -0.317457 -0.474136
vn 0.862796 -0.086275 -0.498136
vn 0.855124 0.158166 0.493706
vn 0.859398 -0.123481 0.496174
vn 0.851647 0.181469 0.491698
vn 0.851647 0.181469 0.491698
vn 0.859398 -0.123481 0.496174
vn 0.859398 -0.123481 0.496174
vn 0.000000 0.291227 0.956654
vn 0.000000 -0.355834 0.934549
vn 0.000000 0.268922 0.963162
vn 0.000000 0.268922 0.963162
vn 0.000000 -0.355834 0.934549
vn 0.000000 -0.355834 0.934549
vn -0.862796 0.086274 0.498136
vn -0.858521 0.131361 0.495667
vn -0.838906 -0.248294 0.484342
vn -0.838906 -0.248294 0.484342
vn -0.858521 0.131361 0.495667
vn -0.838906 -0.248294 0.484342
vn -0.855124 -0.158166 -0.493706
vn -0.851647 -0.181469 -0.491698
vn -0.859398 0.123481 -0.496174
vn -0.859398 0.123481 -0.496174
vn -0.851647 -0.181469 -0.491698
vn -0.859398 0.123481 -0.496174
vn 0.000000 -0.291227 -0.956654
vn 0.000000 -0.268922 -0.963162
vn 0.000000 0.355834 -0.934549
vn 0.000000 0.355834 -0.934549
vn 0.000000 -0.268922 -0.963162
vn 0.000000 0.355834 -0.934549
vn 0.862796 -0.086275 -0.498136
vn 0.838906 0.248294 -0.484342
vn 0.861572 -0.101283 -0.497429
vn 0.861572 -0.101283 -0.497429
vn 0.838906 0.248294 -0.484342
vn 0.838906 0.248294 -0.484342
vn 0.861572 -0.101283 -0.497429
vn 0.838906 0.248294 -0.484342
vn 0.858521 -0.131361 -0.495667
vn 0.858521 -0.131361 -0.495667
vn 0.838906 0.248294 -0.484342
vn 0.838906 0.248294 -0.484342
vn 0.821228 -0.317457 -0.474136
vn 0.821228 -0.317457 -0.474136
vn 0.858521 -0.131361 -0.495667
vn 0.858521 -0.131361 -0.495667
vn 0.821228 -0.317457 -0.474136
vn 0.861572 -0.101283 -0.497429
f 42/42/1 73/73/2 1/1/3
f 40/40/4 72/72/5 78/78/6
f 2/2/7 44/44/8 14/3/9
f 69/69/10 43/43/11 65/64/12
f 3/5/13 46/46/14 66/65/15
f 67/66/16 45/45/17 90/89/18
f 4/7/19 49/49/20 91/90/21
f 92/91/22 48/48/23 85/84/24
f 51/51/25 82/82/26 5/9/27
f 47/47/28 81/81/29 86/85/30
f 41/41/31 77/77/32 6/11/33
f 50/50/34 76/76/35 83/83/36
f 70/70/37 13/6/38 55/55/39
f 56/56/40 64/67/41 9/13/42
f 71/71/43 54/54/44 15/4/45
f 74/74/46 8/14/47 53/53/48
f 75/75/49 52/52/50 16/12/51
f 79/79/52 7/15/53 63/63/54
f 80/80/55 62/62/56 87/86/57
f 88/87/58 12/16/59 61/61/60
f 93/92/61 17/10/62 59/59/63
f 60/60/64 84/88/65 11/17/66
f 68/68/67 18/8/68 57/57/69
f 58/58/70 89/93/71 10/18/72
f 19/19/73 98/98/74 36/22/75
f 144/144/76 97/97/77 141/140/78
f 100/100/79 137/136/80 20/20/81
f 96/96/82 136/135/83 142/141/84
f 102/102/85 131/130/86 21/23/87
f 99/99/88 130/129/89 138/137/90
f 103/103/91 126/126/92 22/25/93
f 101/101/94 125/125/95 132/131/96
f 23/27/97 105/105/98 127/127/99
f 128/128/100 104/104/101 122/122/102
f 39/31/103 95/95/104 153/153/105
f 154/154/106 94/94/107 147/147/108
f 121/121/109 116/116/110 32/28/111
f 123/123/112 30/33/113 115/115/114
f 124/124/115 114/114/116 133/132/117
f 134/133/118 29/34/119 113/113/120
f 139/138/121 33/26/122 111/111/123
f 112/112/124 129/134/125 28/35/126
f 143/142/127 34/24/128 109/109/129
f 110/110/130 135/139/131 27/36/132
f 145/145/133 35/21/134 107/107/135
f 108/108/136 140/143/137 26/37/138
f 146/146/139 106/106/140 38/32/141
f 150/150/142 25/38/143 149/149/144
f 151/151/145 148/148/146 119/119/147
f 120/120/148 37/39/149 117/117/150
f 24/29/151 156/156/152 31/30/153
f 118/118/154 155/155/155 152/152/156
