# This file uses centimeters as units for non-parametric coordinates.

v -0.325101 0.990026 0.325101
v 0.325101 0.990026 0.325101
v -0.325101 1.640228 0.325101
v 0.325101 1.640228 0.325101
v -0.325101 1.640228 -0.325101
v 0.325101 1.640228 -0.325101
v -0.325101 0.990026 -0.325101
v 0.325101 0.990026 -0.325101
v -0.325101 0.990026 0.325101
v -0.325101 0.990026 0.325101
v -0.325101 0.990026 0.325101
v -0.325101 0.990026 0.325101
v 0.325101 0.990026 0.325101
v 0.325101 0.990026 0.325101
v 0.325101 0.990026 0.325101
v -0.325101 1.640228 0.325101
v -0.325101 1.640228 0.325101
v -0.325101 1.640228 0.325101
v 0.325101 1.640228 0.325101
v 0.325101 1.640228 0.325101
v 0.325101 1.640228 0.325101
v 0.325101 1.640228 0.325101
v -0.325101 1.640228 -0.325101
v -0.325101 1.640228 -0.325101
v -0.325101 1.640228 -0.325101
v -0.325101 1.640228 -0.325101
v 0.325101 1.640228 -0.325101
v 0.325101 1.640228 -0.325101
v 0.325101 1.640228 -0.325101
v -0.325101 0.990026 -0.325101
v -0.325101 0.990026 -0.325101
v -0.325101 0.990026 -0.325101
v 0.325101 0.990026 -0.325101
v 0.325101 0.990026 -0.325101
v 0.325101 0.990026 -0.325101
v 0.325101 0.990026 -0.325101
v -0.500000 0.000000 0.500000
v 0.500000 0.000000 0.500000
v -0.500000 1.000000 0.500000
v 0.500000 1.000000 0.500000
v -0.500000 1.000000 -0.500000
v 0.500000 1.000000 -0.500000
v -0.500000 0.000000 -0.500000
v 0.500000 0.000000 -0.500000
v -0.500000 0.000000 0.500000
v -0.500000 0.000000 0.500000
v -0.500000 0.000000 0.500000
v -0.500000 0.000000 0.500000
v 0.500000 0.000000 0.500000
v 0.500000 0.000000 0.500000
v 0.500000 0.000000 0.500000
v -0.500000 1.000000 0.500000
v -0.500000 1.000000 0.500000
v -0.500000 1.000000 0.500000
v 0.500000 1.000000 0.500000
v 0.500000 1.000000 0.500000
v 0.500000 1.000000 0.500000
v 0.500000 1.000000 0.500000
v -0.500000 1.000000 -0.500000
v -0.500000 1.000000 -0.500000
v -0.500000 1.000000 -0.500000
v -0.500000 1.000000 -0.500000
v 0.500000 1.000000 -0.500000
v 0.500000 1.000000 -0.500000
v 0.500000 1.000000 -0.500000
v -0.500000 0.000000 -0.500000
v -0.500000 0.000000 -0.500000
v -0.500000 0.000000 -0.500000
v 0.500000 0.000000 -0.500000
v 0.500000 0.000000 -0.500000
v 0.500000 0.000000 -0.500000
v 0.500000 0.000000 -0.500000
v -0.222498 1.618131 0.222498
v 0.222498 1.618131 0.222498
v -0.222498 2.063126 0.222498
v 0.222498 2.063126 0.222498
v -0.222498 2.063126 -0.222498
v 0.222498 2.063126 -0.222498
v -0.222498 1.618131 -0.222498
v 0.222498 1.618131 -0.222498
v -0.222498 1.618131 0.222498
v -0.222498 1.618131 0.222498
v -0.222498 1.618131 0.222498
v -0.222498 1.618131 0.222498
v 0.222498 1.618131 0.222498
v 0.222498 1.618131 0.222498
v 0.222498 1.618131 0.222498
v -0.222498 2.063126 0.222498
v -0.222498 2.063126 0.222498
v -0.222498 2.063126 0.222498
v 0.222498 2.063126 0.222498
v 0.222498 2.063126 0.222498
v 0.222498 2.063126 0.222498
v 0.222498 2.063126 0.222498
v -0.222498 2.063126 -0.222498
v -0.222498 2.063126 -0.222498
v -0.222498 2.063126 -0.222498
v -0.222498 2.063126 -0.222498
v 0.222498 2.063126 -0.222498
v 0.222498 2.063126 -0.222498
v 0.222498 2.063126 -0.222498
v -0.222498 1.618131 -0.222498
v -0.222498 1.618131 -0.222498
v -0.222498 1.618131 -0.222498
v 0.222498 1.618131 -0.222498
v 0.222498 1.618131 -0.222498
v 0.222498 1.618131 -0.222498
v 0.222498 1.618131 -0.222498
vt 0.375000 0.000000
vt 0.625000 0.000000
vt 0.375000 0.250000
vt 0.625000 0.250000
vt 0.625000 0.500000
vt 0.375000 0.750000
vt 0.875000 0.000000
vt 0.125000 0.250000
vt 0.375000 1.000000
vt 0.375000 1.000000
vt 0.375000 0.000000
vt 0.375000 0.000000
vt 0.625000 1.000000
vt 0.625000 0.000000
vt 0.625000 0.000000
vt 0.375000 0.250000
vt 0.375000 0.250000
vt 0.375000 0.250000
vt 0.625000 0.250000
vt 0.625000 0.250000
vt 0.625000 0.250000
vt 0.625000 0.250000
vt 0.125000 0.250000
vt 0.375000 0.500000
vt 0.375000 0.500000
vt 0.375000 0.500000
vt 0.625000 0.500000
vt 0.625000 0.500000
vt 0.875000 0.250000
vt 0.375000 0.750000
vt 0.375000 0.750000
vt 0.125000 0.000000
vt 0.625000 0.750000
vt 0.625000 0.750000
vt 0.625000 0.750000
vt 0.875000 0.000000
vt 0.375000 0.000000
vt 0.625000 0.000000
vt 0.375000 0.250000
vt 0.375000 0.250000
vt 0.625000 0.000000
vt 0.625000 0.250000
vt 0.375000 0.250000
vt 0.625000 0.250000
vt 0.375000 0.500000
vt 0.375000 0.500000
vt 0.625000 0.250000
vt 0.625000 0.500000
vt 0.375000 0.500000
vt 0.625000 0.500000
vt 0.375000 0.750000
vt 0.375000 0.750000
vt 0.625000 0.500000
vt 0.625000 0.750000
vt 0.375000 0.750000
vt 0.625000 0.750000
vt 0.375000 1.000000
vt 0.375000 1.000000
vt 0.625000 0.750000
vt 0.625000 1.000000
vt 0.625000 0.000000
vt 0.875000 0.000000
vt 0.625000 0.250000
vt 0.625000 0.250000
vt 0.875000 0.000000
vt 0.875000 0.250000
vt 0.125000 0.000000
vt 0.375000 0.000000
vt 0.125000 0.250000
vt 0.125000 0.250000
vt 0.375000 0.000000
vt 0.375000 0.250000
vt 0.375000 0.000000
vt 0.625000 0.000000
vt 0.375000 0.250000
vt 0.375000 0.250000
vt 0.625000 0.000000
vt 0.625000 0.250000
vt 0.375000 0.250000
vt 0.625000 0.250000
vt 0.375000 0.500000
vt 0.375000 0.500000
vt 0.625000 0.250000
vt 0.625000 0.500000
vt 0.375000 0.500000
vt 0.625000 0.500000
vt 0.375000 0.750000
vt 0.375000 0.750000
vt 0.625000 0.500000
vt 0.625000 0.750000
vt 0.375000 0.750000
vt 0.625000 0.750000
vt 0.375000 1.000000
vt 0.375000 1.000000
vt 0.625000 0.750000
vt 0.625000 1.000000
vt 0.625000 0.000000
vt 0.875000 0.000000
vt 0.625000 0.250000
vt 0.625000 0.250000
vt 0.875000 0.000000
vt 0.875000 0.250000
vt 0.125000 0.000000
vt 0.375000 0.000000
vt 0.125000 0.250000
vt 0.125000 0.250000
vt 0.375000 0.000000
vt 0.375000 0.250000
vn 0.000000 0.000000 1.000000
vn 0.000000 0.000000 1.000000
vn 0.000000 0.000000 1.000000
vn 0.000000 0.000000 1.000000
vn 0.000000 0.000000 1.000000
vn 0.000000 0.000000 1.000000
vn 0.000000 1.000000 0.000000
vn 0.000000 1.000000 0.000000
vn 0.000000 1.000000 0.000000
vn 0.000000 1.000000 0.000000
vn 0.000000 1.000000 0.000000
vn 0.000000 1.000000 0.000000
vn 0.000000 0.000000 -1.000000
vn 0.000000 0.000000 -1.000000
vn 0.000000 0.000000 -1.000000
vn 0.000000 0.000000 -1.000000
vn 0.000000 0.000000 -1.000000
vn 0.000000 0.000000 -1.000000
vn 0.000000 -1.000000 0.000000
vn 0.000000 -1.000000 0.000000
vn 0.000000 -1.000000 0.000000
vn 0.000000 -1.000000 0.000000
vn 0.000000 -1.000000 0.000000
vn 0.000000 -1.000000 0.000000
vn 1.000000 0.000000 0.000000
vn 1.000000 0.000000 0.000000
vn 1.000000 0.000000 0.000000
vn 1.000000 0.000000 0.000000
vn 1.000000 0.000000 0.000000
vn 1.000000 0.000000 0.000000
vn -1.000000 0.000000 0.000000
vn -1.000000 0.000000 0.000000
vn -1.000000 0.000000 0.000000
vn -1.000000 0.000000 0.000000
vn -1.000000 0.000000 0.000000
vn -1.000000 0.000000 0.000000
vn 0.000000 0.000000 1.000000
vn 0.000000 0.000000 1.000000
vn 0.000000 0.000000 1.000000
vn 0.000000 0.000000 1.000000
vn 0.000000 0.000000 1.000000
vn 0.000000 0.000000 1.000000
vn 0.000000 1.000000 0.000000
vn 0.000000 1.000000 0.000000
vn 0.000000 1.000000 0.000000
vn 0.000000 1.000000 0.000000
vn 0.000000 1.000000 0.000000
vn 0.000000 1.000000 0.000000
vn 0.000000 0.000000 -1.000000
vn 0.000000 0.000000 -1.000000
vn 0.000000 0.000000 -1.000000
vn 0.000000 0.000000 -1.000000
vn 0.000000 0.000000 -1.000000
vn 0.000000 0.000000 -1.000000
vn 0.000000 -1.000000 0.000000
vn 0.000000 -1.000000 0.000000
vn 0.000000 -1.000000 0.000000
vn 0.000000 -1.000000 0.000000
vn 0.000000 -1.000000 0.000000
vn 0.000000 -1.000000 0.000000
vn 1.000000 0.000000 0.000000
vn 1.000000 0.000000 0.000000
vn 1.000000 0.000000 0.000000
vn 1.000000 0.000000 0.000000
vn 1.000000 0.000000 0.000000
vn 1.000000 0.000000 0.000000
vn -1.000000 0.000000 0.000000
vn -1.000000 0.000000 0.000000
vn -1.000000 0.000000 0.000000
vn -1.000000 0.000000 0.000000
vn -1.000000 0.000000 0.000000
vn -1.000000 0.000000 0.000000
vn 0.000000 0.000000 1.000000
vn 0.000000 0.000000 1.000000
vn 0.000000 0.000000 1.000000
vn 0.000000 0.000000 1.000000
vn 0.000000 0.000000 1.000000
vn 0.000000 0.000000 1.000000
vn 0.000000 1.000000 0.000000
vn 0.000000 1.000000 0.000000
vn 0.000000 1.000000 0.000000
vn 0.000000 1.000000 0.000000
vn 0.000000 1.000000 0.000000
vn 0.000000 1.000000 0.000000
vn 0.000000 0.000000 -1.000000
vn 0.000000 0.000000 -1.000000
vn 0.000000 0.000000 -1.000000
vn 0.000000 0.000000 -1.000000
vn 0.000000 0.000000 -1.000000
vn 0.000000 0.000000 -1.000000
vn 0.000000 -1.000000 0.000000
vn 0.000000 -1.000000 0.000000
vn 0.000000 -1.000000 0.000000
vn 0.000000 -1.000000 0.000000
vn 0.000000 -1.000000 0.000000
vn 0.000000 -1.000000 0.000000
vn 1.000000 0.000000 0.000000
vn 1.000000 0.000000 0.000000
vn 1.000000 0.000000 0.000000
vn 1.000000 0.000000 0.000000
vn 1.000000 0.000000 0.000000
vn 1.000000 0.000000 0.000000
vn -1.000000 0.000000 0.000000
vn -1.000000 0.000000 0.000000
vn -1.000000 0.000000 0.000000
vn -1.000000 0.000000 0.000000
vn -1.000000 0.000000 0.000000
vn -1.000000 0.000000 0.000000
f 12/12/1 2/2/2 3/3/3
f 16/16/4 13/14/5 22/22/6
f 17/17/7 21/21/8 24/24/9
f 25/25/10 20/20/11 28/27/12
f 26/26/13 6/5/14 7/6/15
f 30/30/16 27/28/17 36/35/18
f 31/31/19 35/34/20 10/9/21
f 11/10/22 34/33/23 14/13/24
f 15/15/25 8/7/26 4/4/27
f 19/19/28 33/36/29 29/29/30
f 32/32/31 1/1/32 5/8/33
f 23/23/34 9/11/35 18/18/36
f 48/37/37 38/38/38 39/39/39
f 52/40/40 49/41/41 58/42/42
f 53/43/43 57/44/44 60/45/45
f 61/46/46 56/47/47 64/48/48
f 62/49/49 42/50/50 43/51/51
f 66/52/52 63/53/53 72/54/54
f 67/55/55 71/56/56 46/57/57
f 47/58/58 70/59/59 50/60/60
f 51/61/61 44/62/62 40/63/63
f 55/64/64 69/65/65 65/66/66
f 68/67/67 37/68/68 41/69/69
f 59/70/70 45/71/71 54/72/72
f 84/73/73 74/74/74 75/75/75
f 88/76/76 85/77/77 94/78/78
f 89/79/79 93/80/80 96/81/81
f 97/82/82 92/83/83 100/84/84
f 98/85/85 78/86/86 79/87/87
f 102/88/88 99/89/89 108/90/90
f 103/91/91 107/92/92 82/93/93
f 83/94/94 106/95/95 86/96/96
f 87/97/97 80/98/98 76/99/99
f 91/100/100 105/101/101 101/102/102
f 104/103/103 73/104/104 77/105/105
f 95/106/106 81/107/107 90/108/108
