# This file uses centimeters as units for non-parametric coordinates.

v 0.072001 -0.016247 -0.124710
v -0.072001 -0.016247 -0.124710
v -0.144003 -0.016247 0.000000
v -0.072001 -0.016247 0.124710
v 0.072001 -0.016247 0.124710
v 0.144003 -0.016247 0.000000
v 0.072001 1.794845 -0.124710
v -0.072001 1.794845 -0.124710
v -0.144003 1.794845 0.000000
v -0.072001 1.794845 0.124710
v 0.072001 1.794845 0.124710
v 0.144003 1.794845 0.000000
v 0.072001 -0.016247 -0.124710
v 0.072001 -0.016247 -0.124710
v 0.072001 -0.016247 -0.124710
v -0.072001 -0.016247 -0.124710
v -0.072001 -0.016247 -0.124710
v -0.072001 -0.016247 -0.124710
v -0.072001 -0.016247 -0.124710
v -0.072001 -0.016247 -0.124710
v -0.072001 -0.016247 -0.124710
v -0.144003 -0.016247 0.000000
v -0.144003 -0.016247 0.000000
v -0.144003 -0.016247 0.000000
v -0.072001 -0.016247 0.124710
v -0.072001 -0.016247 0.124710
v -0.072001 -0.016247 0.124710
v -0.072001 -0.016247 0.124710
v 0.072001 -0.016247 0.124710
v 0.072001 -0.016247 0.124710
v 0.072001 -0.016247 0.124710
v 0.072001 -0.016247 0.124710
v 0.144003 -0.016247 0.000000
v 0.144003 -0.016247 0.000000
v 0.144003 -0.016247 0.000000
v 0.144003 -0.016247 0.000000
v 0.072001 1.794845 -0.124710
v 0.072001 1.794845 -0.124710
v 0.072001 1.794845 -0.124710
v -0.072001 1.794845 -0.124710
v -0.072001 1.794845 -0.124710
v -0.072001 1.794845 -0.124710
v -0.072001 1.794845 -0.124710
v -0.144003 1.794845 0.000000
v -0.144003 1.794845 0.000000
v -0.144003 1.794845 0.000000
v -0.144003 1.794845 0.000000
v -0.072001 1.794845 0.124710
v -0.072001 1.794845 0.124710
v -0.072001 1.794845 0.124710
v -0.072001 1.794845 0.124710
v 0.072001 1.794845 0.124710
v 0.072001 1.794845 0.124710
v 0.072001 1.794845 0.124710
v 0.144003 1.794845 0.000000
v 0.144003 1.794845 0.000000
v 0.144003 1.794845 0.000000
v 0.144003 1.794845 0.000000
v 0.144003 1.794845 0.000000
v 0.144003 1.794845 0.000000
vt 0.375000 0.312500
vt 0.416667 0.312500
vt 0.375000 0.688440
vt 0.375000 0.688440
vt 0.416667 0.312500
vt 0.416667 0.688440
vt 0.416667 0.312500
vt 0.458333 0.312500
vt 0.416667 0.688440
vt 0.416667 0.688440
vt 0.458333 0.312500
vt 0.458333 0.688440
vt 0.458333 0.312500
vt 0.500000 0.312500
vt 0.458333 0.688440
vt 0.458333 0.688440
vt 0.500000 0.312500
vt 0.500000 0.688440
vt 0.500000 0.312500
vt 0.541667 0.312500
vt 0.500000 0.688440
vt 0.500000 0.688440
vt 0.541667 0.312500
vt 0.541667 0.688440
vt 0.541667 0.312500
vt 0.583333 0.312500
vt 0.541667 0.688440
vt 0.541667 0.688440
vt 0.583333 0.312500
vt 0.583333 0.688440
vt 0.583333 0.312500
vt 0.625000 0.312500
vt 0.583333 0.688440
vt 0.583333 0.688440
vt 0.625000 0.312500
vt 0.625000 0.688440
vt 0.578125 0.020934
vt 0.656250 0.156250
vt 0.421875 0.020934
vt 0.656250 0.156250
vt 0.578125 0.291566
vt 0.421875 0.020934
vt 0.578125 0.291566
vt 0.421875 0.291566
vt 0.421875 0.020934
vt 0.421875 0.291566
vt 0.343750 0.156250
vt 0.421875 0.020934
vt 0.578125 0.979066
vt 0.421875 0.979066
vt 0.656250 0.843750
vt 0.421875 0.979066
vt 0.343750 0.843750
vt 0.656250 0.843750
vt 0.343750 0.843750
vt 0.421875 0.708434
vt 0.656250 0.843750
vt 0.421875 0.708434
vt 0.578125 0.708434
vt 0.656250 0.843750
vn 0.000000 0.000000 -1.000000
vn 0.000000 0.000000 -1.000000
vn 0.000000 0.000000 -1.000000
vn 0.000000 0.000000 -1.000000
vn 0.000000 0.000000 -1.000000
vn 0.000000 0.000000 -1.000000
vn -0.866025 0.000000 -0.500000
vn -0.866025 0.000000 -0.500000
vn -0.866025 0.000000 -0.500000
vn -0.866025 0.000000 -0.500000
vn -0.866025 0.000000 -0.500000
vn -0.866025 0.000000 -0.500000
vn -0.866026 0.000000 0.500000
vn -0.866026 0.000000 0.500000
vn -0.866025 0.000000 0.500000
vn -0.866025 0.000000 0.500000
vn -0.866026 0.000000 0.500000
vn -0.866026 0.000000 0.500000
vn 0.000000 0.000000 1.000000
vn 0.000000 0.000000 1.000000
vn 0.000000 0.000000 1.000000
vn 0.000000 0.000000 1.000000
vn 0.000000 0.000000 1.000000
vn 0.000000 0.000000 1.000000
vn 0.866025 0.000000 0.500000
vn 0.866025 0.000000 0.500000
vn 0.866025 0.000000 0.500000
vn 0.866025 0.000000 0.500000
vn 0.866025 0.000000 0.500000
vn 0.866025 0.000000 0.500000
vn 0.866026 0.000000 -0.500000
vn 0.866026 0.000000 -0.500000
vn 0.866026 0.000000 -0.500000
vn 0.866026 0.000000 -0.500000
vn 0.866026 0.000000 -0.500000
vn 0.866026 0.000000 -0.500000
vn 0.000000 -1.000000 0.000000
vn 0.000000 -1.000000 0.000000
vn 0.000000 -1.000000 0.000000
vn 0.000000 -1.000000 0.000001
vn 0.000000 -1.000000 0.000001
vn 0.000000 -1.000000 0.000001
vn 0.000000 -1.000000 0.000000
vn 0.000000 -1.000000 0.000000
vn 0.000000 -1.000000 0.000000
vn 0.000000 -1.000000 0.000000
vn 0.000000 -1.000000 0.000000
vn 0.000000 -1.000000 0.000000
vn 0.000000 1.000000 0.000000
vn 0.000000 1.000000 0.000000
vn 0.000000 1.000000 0.000000
vn 0.000000 1.000000 0.000000
vn 0.000000 1.000000 0.000000
vn 0.000000 1.000000 0.000000
vn 0.000000 1.000000 0.000000
vn 0.000000 1.000000 0.000000
vn 0.000000 1.000000 0.000000
vn 0.000000 1.000000 0.000000
vn 0.000000 1.000000 0.000000
vn 0.000000 1.000000 0.000000
f 15/1/1 19/2/2 7/3/3
f 37/4/4 18/5/5 41/6/6
f 17/7/7 3/8/8 42/9/9
f 43/10/10 22/11/11 45/12/12
f 24/13/13 28/14/14 46/15/15
f 47/16/16 27/17/17 49/18/18
f 26/19/19 32/20/20 50/21/21
f 51/22/22 31/23/23 54/24/24
f 30/25/25 36/26/26 11/27/27
f 52/28/28 35/29/29 56/30/30
f 34/31/31 1/32/32 57/33/33
f 58/34/34 13/35/35 39/36/36
f 14/37/37 6/38/38 20/39/39
f 33/40/40 5/41/41 21/42/42
f 29/43/43 4/44/44 2/45/45
f 25/46/46 23/47/47 16/48/48
f 38/49/49 8/50/50 59/51/51
f 40/52/52 9/53/53 60/54/54
f 44/55/55 10/56/56 12/57/57
f 48/58/58 53/59/59 55/60/60
