# This file uses centimeters as units for non-parametric coordinates.

v 0.000000 2.818195 -0.338937
v 0.125325 2.996385 -0.151577
v -0.047870 3.106513 -0.151577
v -0.154910 2.818195 -0.151577
v -0.047870 2.529878 -0.151577
v 0.125325 2.640006 -0.151577
v 0.154910 2.818195 0.151577
v 0.047870 3.106513 0.151577
v -0.125325 2.996385 0.151577
v -0.125325 2.640006 0.151577
v 0.047870 2.529878 0.151577
v 0.000000 2.818195 0.338937
v 0.000000 2.818195 -0.338937
v 0.000000 2.818195 -0.338937
v 0.000000 2.818195 -0.338937
v 0.000000 2.818195 -0.338937
v 0.125325 2.996385 -0.151577
v 0.125325 2.996385 -0.151577
v 0.125325 2.996385 -0.151577
v 0.125325 2.996385 -0.151577
v -0.047870 3.106513 -0.151577
v -0.047870 3.106513 -0.151577
v -0.047870 3.106513 -0.151577
v -0.047870 3.106513 -0.151577
v -0.154910 2.818195 -0.151577
v -0.154910 2.818195 -0.151577
v -0.154910 2.818195 -0.151577
v -0.154910 2.818195 -0.151577
v -0.047870 2.529878 -0.151577
v -0.047870 2.529878 -0.151577
v -0.047870 2.529878 -0.151577
v -0.047870 2.529878 -0.151577
v 0.125325 2.640006 -0.151577
v 0.125325 2.640006 -0.151577
v 0.125325 2.640006 -0.151577
v 0.125325 2.640006 -0.151577
v 0.154910 2.818195 0.151577
v 0.154910 2.818195 0.151577
v 0.154910 2.818195 0.151577
v 0.154910 2.818195 0.151577
v 0.047870 3.106513 0.151577
v 0.047870 3.106513 0.151577
v 0.047870 3.106513 0.151577
v 0.047870 3.106513 0.151577
v -0.125325 2.996385 0.151577
v -0.125325 2.996385 0.151577
v -0.125325 2.996385 0.151577
v -0.125325 2.996385 0.151577
v -0.125325 2.640006 0.151577
v -0.125325 2.640006 0.151577
v -0.125325 2.640006 0.151577
v -0.125325 2.640006 0.151577
v 0.047870 2.529878 0.151577
v 0.047870 2.529878 0.151577
v 0.047870 2.529878 0.151577
v 0.047870 2.529878 0.151577
v 0.000000 2.818195 0.338937
v 0.000000 2.818195 0.338937
v 0.000000 2.818195 0.338937
v 0.000000 2.818195 0.338937
vt 1.000000 0.500000
vt 0.838104 0.676208
vt 0.088104 0.823792
vt 0.176208 0.500000
vt 0.838104 0.323792
vt 0.676208 0.500000
vt 0.588104 0.823792
vt 0.338104 0.676208
vt 0.338104 0.323792
vt 0.588104 0.176208
vt 0.500000 0.500000
vt 1.088104 0.176208
vt 1.000000 0.500000
vt 1.000000 0.500000
vt 1.000000 0.500000
vt 1.000000 0.500000
vt 0.838104 0.676208
vt 0.838104 0.676208
vt 0.838104 0.676208
vt 0.838104 0.676208
vt 0.088104 0.823792
vt 1.088104 0.823792
vt 1.088104 0.823792
vt 1.088104 0.823792
vt 0.176208 0.500000
vt 0.176208 0.500000
vt 1.176208 0.500000
vt 1.176208 0.500000
vt 0.088104 0.176208
vt 0.088104 0.176208
vt 1.088104 0.176208
vt 1.088104 0.176208
vt 0.838104 0.323792
vt 0.838104 0.323792
vt 0.838104 0.323792
vt 0.838104 0.323792
vt 0.676208 0.500000
vt 0.676208 0.500000
vt 0.676208 0.500000
vt 0.676208 0.500000
vt 0.588104 0.823792
vt 0.588104 0.823792
vt 0.588104 0.823792
vt 0.588104 0.823792
vt 0.338104 0.676208
vt 0.338104 0.676208
vt 0.338104 0.676208
vt 0.338104 0.676208
vt 0.338104 0.323792
vt 0.338104 0.323792
vt 0.338104 0.323792
vt 0.338104 0.323792
vt 0.588104 0.176208
vt 0.588104 0.176208
vt 0.588104 0.176208
vt 0.588104 0.176208
vt 0.500000 0.500000
vt 0.500000 0.500000
vt 0.500000 0.500000
vt 0.500000 0.500000
vn 0.350097 0.550586 -0.757817
vn 0.350097 0.550586 -0.757817
vn 0.350097 0.550586 -0.757817
vn -0.740958 0.275086 -0.612625
vn -0.740958 0.275086 -0.612625
vn -0.740958 0.275086 -0.612625
vn -0.740957 -0.275086 -0.612625
vn -0.740957 -0.275086 -0.612625
vn -0.740957 -0.275086 -0.612625
vn 0.350096 -0.550587 -0.757817
vn 0.350096 -0.550587 -0.757817
vn 0.350096 -0.550587 -0.757817
vn 0.831194 -0.000000 -0.555983
vn 0.831194 -0.000000 -0.555983
vn 0.831194 -0.000000 -0.555983
vn 0.529032 0.831993 -0.167074
vn 0.529032 0.831993 -0.167074
vn 0.529032 0.831993 -0.167074
vn -0.931540 0.345841 -0.112371
vn -0.931540 0.345841 -0.112371
vn -0.931540 0.345841 -0.112371
vn -0.931540 -0.345841 -0.112371
vn -0.931540 -0.345841 -0.112371
vn -0.931540 -0.345841 -0.112371
vn 0.529032 -0.831993 -0.167074
vn 0.529031 -0.831993 -0.167074
vn 0.529032 -0.831993 -0.167074
vn 0.995272 0.000000 -0.097129
vn 0.995272 0.000000 -0.097129
vn 0.995272 0.000000 -0.097129
vn 0.931540 0.345841 0.112371
vn 0.931540 0.345841 0.112371
vn 0.931540 0.345841 0.112371
vn -0.529032 0.831993 0.167074
vn -0.529032 0.831993 0.167074
vn -0.529032 0.831993 0.167074
vn -0.995272 0.000000 0.097129
vn -0.995272 0.000000 0.097129
vn -0.995272 0.000000 0.097129
vn -0.529031 -0.831993 0.167074
vn -0.529031 -0.831993 0.167074
vn -0.529031 -0.831993 0.167074
vn 0.931540 -0.345841 0.112370
vn 0.931540 -0.345841 0.112370
vn 0.931540 -0.345841 0.112370
vn 0.740957 0.275086 0.612625
vn 0.740957 0.275086 0.612625
vn 0.740957 0.275086 0.612625
vn -0.350096 0.550587 0.757817
vn -0.350096 0.550587 0.757817
vn -0.350096 0.550587 0.757817
vn -0.831194 -0.000000 0.555983
vn -0.831194 -0.000000 0.555983
vn -0.831194 -0.000000 0.555983
vn -0.350096 -0.550586 0.757817
vn -0.350096 -0.550587 0.757817
vn -0.350096 -0.550586 0.757817
vn 0.740957 -0.275086 0.612625
vn 0.740957 -0.275086 0.612625
vn 0.740957 -0.275086 0.612625
f 16/15/1 23/23/2 19/18/3
f 15/14/4 27/27/5 24/24/6
f 14/13/7 31/31/8 28/28/9
f 1/1/10 35/35/11 32/32/12
f 13/16/13 18/17/14 36/36/15
f 20/19/16 22/22/17 43/42/18
f 3/3/19 26/26/20 47/46/21
f 4/4/22 30/30/23 51/50/24
f 5/12/25 34/34/26 55/54/27
f 6/5/28 2/2/29 39/39/30
f 17/20/31 42/41/32 40/40/33
f 21/21/34 46/45/35 44/43/36
f 25/25/37 50/49/38 48/47/39
f 29/29/40 54/53/41 52/51/42
f 33/33/43 38/38/44 56/55/45
f 7/6/46 8/7/47 58/58/48
f 41/44/49 9/8/50 59/59/51
f 45/48/52 10/9/53 60/60/54
f 49/52/55 11/10/56 12/11/57
f 53/56/58 37/37/59 57/57/60
