# This file uses centimeters as units for non-parametric coordinates.

v 0.890237 0.731448 -0.756708
v -0.210210 0.731448 -1.149323
v -1.100448 0.731448 -0.392614
v -0.890237 0.731448 0.756708
v 0.210210 0.731448 1.149323
v 1.100448 0.731448 0.392614
v 0.000000 3.068223 0.000000
v 0.223614 1.675619 -0.852140
v -0.626169 1.675619 -0.619725
v -0.849782 1.675619 0.232415
v -0.223614 1.675619 0.852140
v 0.626169 1.675619 0.619725
v 0.849782 1.675619 -0.232415
v 0.000000 3.437602 0.000000
v 0.305064 2.484191 -0.528386
v -0.305064 2.484191 -0.528386
v -0.610128 2.484191 0.000000
v -0.305064 2.484191 0.528386
v 0.305064 2.484191 0.528386
v 0.610128 2.484191 0.000000
v 0.000000 3.704446 0.000000
v 0.890237 0.731448 -0.756708
v -0.210210 0.731448 -1.149323
v -1.100448 0.731448 -0.392614
v -0.890237 0.731448 0.756708
v 0.210210 0.731448 1.149323
v 1.100448 0.731448 0.392614
v 0.000000 3.068223 0.000000
v 0.000000 3.068223 0.000000
v 0.000000 3.068223 0.000000
v 0.000000 3.068223 0.000000
v 0.000000 3.068223 0.000000
v 0.223614 1.675619 -0.852140
v -0.626169 1.675619 -0.619725
v -0.849782 1.675619 0.232415
v -0.223614 1.675619 0.852140
v 0.626169 1.675619 0.619725
v 0.849782 1.675619 -0.232415
v 0.000000 3.437602 0.000000
v 0.000000 3.437602 0.000000
v 0.000000 3.437602 0.000000
v 0.000000 3.437602 0.000000
v 0.000000 3.437602 0.000000
v 0.305064 2.484191 -0.528386
v -0.305064 2.484191 -0.528386
v -0.610128 2.484191 0.000000
v -0.305064 2.484191 0.528386
v 0.305064 2.484191 0.528386
v 0.610128 2.484191 0.000000
v 0.000000 3.704446 0.000000
v 0.000000 3.704446 0.000000
v 0.000000 3.704446 0.000000
v 0.000000 3.704446 0.000000
v 0.000000 3.704446 0.000000
vt 0.250000 0.500000
vt 0.333333 0.500000
vt 0.500000 1.000000
vt 0.333333 0.500000
vt 0.416667 0.500000
vt 0.500000 1.000000
vt 0.416667 0.500000
vt 0.500000 0.500000
vt 0.500000 1.000000
vt 0.500000 0.500000
vt 0.583333 0.500000
vt 0.500000 1.000000
vt 0.583333 0.500000
vt 0.666667 0.500000
vt 0.500000 1.000000
vt 0.666667 0.500000
vt 0.750000 0.500000
vt 0.500000 1.000000
vt 0.250000 0.500000
vt 0.333333 0.500000
vt 0.500000 1.000000
vt 0.333333 0.500000
vt 0.416667 0.500000
vt 0.500000 1.000000
vt 0.416667 0.500000
vt 0.500000 0.500000
vt 0.500000 1.000000
vt 0.500000 0.500000
vt 0.583333 0.500000
vt 0.500000 1.000000
vt 0.583333 0.500000
vt 0.666667 0.500000
vt 0.500000 1.000000
vt 0.666667 0.500000
vt 0.750000 0.500000
vt 0.500000 1.000000
vt 0.250000 0.500000
vt 0.333333 0.500000
vt 0.500000 1.000000
vt 0.333333 0.500000
vt 0.416667 0.500000
vt 0.500000 1.000000
vt 0.416667 0.500000
vt 0.500000 0.500000
vt 0.500000 1.000000
vt 0.500000 0.500000
vt 0.583333 0.500000
vt 0.500000 1.000000
vt 0.583333 0.500000
vt 0.666667 0.500000
vt 0.500000 1.000000
vt 0.666667 0.500000
vt 0.750000 0.500000
vt 0.500000 1.000000
vn 0.000000 0.397360 -0.917663
vn 0.000000 0.397360 -0.917663
vn 0.000000 0.397360 -0.917663
vn -0.794719 0.397360 -0.458832
vn -0.794719 0.397360 -0.458832
vn -0.794719 0.397360 -0.458832
vn -0.794719 0.397360 0.458831
vn -0.794719 0.397360 0.458831
vn -0.794720 0.397360 0.458831
vn 0.000000 0.397360 0.917663
vn 0.000000 0.397360 0.917663
vn 0.000000 0.397360 0.917663
vn 0.794719 0.397360 0.458831
vn 0.794719 0.397360 0.458831
vn 0.794719 0.397360 0.458831
vn 0.794720 0.397360 -0.458831
vn 0.794720 0.397360 -0.458831
vn 0.794720 0.397360 -0.458831
vn 0.000000 0.397360 -0.917663
vn 0.000000 0.397360 -0.917663
vn 0.000000 0.397360 -0.917663
vn -0.794719 0.397360 -0.458831
vn -0.794719 0.397360 -0.458831
vn -0.794719 0.397360 -0.458831
vn -0.794720 0.397360 0.458831
vn -0.794720 0.397360 0.458831
vn -0.794720 0.397360 0.458831
vn 0.000000 0.397360 0.917663
vn 0.000000 0.397360 0.917663
vn 0.000000 0.397360 0.917663
vn 0.794719 0.397360 0.458831
vn 0.794719 0.397360 0.458831
vn 0.794719 0.397360 0.458831
vn 0.794720 0.397360 -0.458831
vn 0.794720 0.397360 -0.458831
vn 0.794720 0.397360 -0.458831
vn 0.000000 0.397360 -0.917663
vn 0.000000 0.397360 -0.917663
vn 0.000000 0.397360 -0.917663
vn -0.794719 0.397360 -0.458832
vn -0.794719 0.397360 -0.458832
vn -0.794719 0.397360 -0.458832
vn -0.794719 0.397360 0.458831
vn -0.794719 0.397360 0.458831
vn -0.794719 0.397360 0.458831
vn 0.000000 0.397360 0.917663
vn 0.000000 0.397360 0.917663
vn 0.000000 0.397360 0.917663
vn 0.794720 0.397360 0.458831
vn 0.794720 0.397360 0.458831
vn 0.794720 0.397360 0.458831
vn 0.794720 0.397360 -0.458831
vn 0.794719 0.397360 -0.458831
vn 0.794720 0.397360 -0.458831
f 1/1/1 23/2/2 29/3/3
f 2/4/4 24/5/5 30/6/6
f 3/7/7 25/8/8 31/9/9
f 4/10/10 26/11/11 32/12/12
f 5/13/13 27/14/14 7/15/15
f 6/16/16 22/17/17 28/18/18
f 8/19/19 34/20/20 40/21/21
f 9/22/22 35/23/23 41/24/24
f 10/25/25 36/26/26 42/27/27
f 11/28/28 37/29/29 43/30/30
f 12/31/31 38/32/32 14/33/33
f 13/34/34 33/35/35 39/36/36
f 15/37/37 45/38/38 51/39/39
f 16/40/40 46/41/41 52/42/42
f 17/43/43 47/44/44 53/45/45
f 18/46/46 48/47/47 54/48/48
f 19/49/49 49/50/50 21/51/51
f 20/52/52 44/53/53 50/54/54
