# This file uses centimeters as units for non-parametric coordinates.

v 0.110428 -0.012216 -0.086019
v 0.000000 -0.012216 -0.121649
v -0.110428 -0.012216 -0.086019
v -0.156169 -0.012216 0.000000
v -0.110428 -0.012216 0.086019
v 0.000000 -0.012216 0.121649
v 0.110428 -0.012216 0.086019
v 0.156169 -0.012216 0.000000
v 0.110428 0.914648 -0.086019
v 0.000000 0.914648 -0.121649
v -0.110428 0.914648 -0.086019
v -0.156169 0.914648 0.000000
v -0.110428 0.914648 0.086019
v 0.000000 0.914648 0.121649
v 0.110428 0.914648 0.086019
v 0.156169 0.914648 0.000000
v 0.110428 -0.012216 -0.086019
v 0.110428 -0.012216 -0.086019
v 0.000000 -0.012216 -0.121649
v 0.000000 -0.012216 -0.121649
v -0.110428 -0.012216 -0.086019
v -0.110428 -0.012216 -0.086019
v -0.156169 -0.012216 0.000000
v -0.156169 -0.012216 0.000000
v -0.110428 -0.012216 0.086019
v -0.110428 -0.012216 0.086019
v 0.000000 -0.012216 0.121649
v 0.000000 -0.012216 0.121649
v 0.110428 -0.012216 0.086019
v 0.110428 -0.012216 0.086019
v 0.156169 -0.012216 0.000000
v 0.156169 -0.012216 0.000000
v 0.110428 0.914648 -0.086019
v 0.110428 0.914648 -0.086019
v 0.000000 0.914648 -0.121649
v 0.000000 0.914648 -0.121649
v -0.110428 0.914648 -0.086019
v -0.110428 0.914648 -0.086019
v -0.156169 0.914648 0.000000
v -0.156169 0.914648 0.000000
v -0.110428 0.914648 0.086019
v -0.110428 0.914648 0.086019
v 0.000000 0.914648 0.121649
v 0.000000 0.914648 0.121649
v 0.110428 0.914648 0.086019
v 0.110428 0.914648 0.086019
v 0.156169 0.914648 0.000000
v 0.156169 0.914648 0.000000
vt 0.375000 0.312500
vt 0.406250 0.312500
vt 0.406250 0.688440
vt 0.437500 0.312500
vt 0.437500 0.688440
vt 0.468750 0.312500
vt 0.468750 0.688440
vt 0.500000 0.312500
vt 0.500000 0.688440
vt 0.531250 0.312500
vt 0.531250 0.688440
vt 0.562500 0.312500
vt 0.562500 0.688440
vt 0.593750 0.312500
vt 0.593750 0.688440
vt 0.625000 0.688440
vt 0.625000 0.312500
vt 0.625000 0.312500
vt 0.406250 0.312500
vt 0.406250 0.312500
vt 0.437500 0.312500
vt 0.437500 0.312500
vt 0.468750 0.312500
vt 0.468750 0.312500
vt 0.500000 0.312500
vt 0.500000 0.312500
vt 0.531250 0.312500
vt 0.531250 0.312500
vt 0.562500 0.312500
vt 0.562500 0.312500
vt 0.593750 0.312500
vt 0.593750 0.312500
vt 0.375000 0.688440
vt 0.375000 0.688440
vt 0.406250 0.688440
vt 0.406250 0.688440
vt 0.437500 0.688440
vt 0.437500 0.688440
vt 0.468750 0.688440
vt 0.468750 0.688440
vt 0.500000 0.688440
vt 0.500000 0.688440
vt 0.531250 0.688440
vt 0.531250 0.688440
vt 0.562500 0.688440
vt 0.562500 0.688440
vt 0.593750 0.688440
vt 0.593750 0.688440
vn 0.307066 0.000000 -0.951688
vn 0.307066 0.000000 -0.951688
vn 0.307066 0.000000 -0.951688
vn 0.307066 0.000000 -0.951688
vn 0.307066 0.000000 -0.951688
vn 0.307066 0.000000 -0.951688
vn -0.307066 0.000000 -0.951688
vn -0.307066 0.000000 -0.951688
vn -0.307066 0.000000 -0.951688
vn -0.307066 0.000000 -0.951688
vn -0.307066 0.000000 -0.951688
vn -0.307066 0.000000 -0.951688
vn -0.882931 0.000000 -0.469503
vn -0.882931 0.000000 -0.469503
vn -0.882931 0.000000 -0.469503
vn -0.882931 0.000000 -0.469503
vn -0.882931 0.000000 -0.469503
vn -0.882931 0.000000 -0.469503
vn -0.882931 0.000000 0.469503
vn -0.882931 0.000000 0.469503
vn -0.882931 0.000000 0.469503
vn -0.882931 0.000000 0.469503
vn -0.882931 0.000000 0.469503
vn -0.882931 0.000000 0.469503
vn -0.307066 0.000000 0.951688
vn -0.307066 0.000000 0.951688
vn -0.307066 0.000000 0.951688
vn -0.307066 0.000000 0.951688
vn -0.307066 0.000000 0.951688
vn -0.307066 0.000000 0.951688
vn 0.307066 0.000000 0.951688
vn 0.307066 0.000000 0.951688
vn 0.307066 0.000000 0.951688
vn 0.307066 0.000000 0.951688
vn 0.307066 0.000000 0.951688
vn 0.307066 0.000000 0.951688
vn 0.882931 0.000000 0.469503
vn 0.882931 0.000000 0.469503
vn 0.882931 0.000000 0.469503
vn 0.882931 0.000000 0.469503
vn 0.882931 0.000000 0.469503
vn 0.882931 0.000000 0.469503
vn 0.882931 0.000000 -0.469503
vn 0.882931 0.000000 -0.469503
vn 0.882931 0.000000 -0.469503
vn 0.882931 0.000000 -0.469503
vn 0.882931 0.000000 -0.469503
vn 0.882931 0.000000 -0.469503
f 1/1/1 20/20/2 33/33/3
f 34/34/4 19/19/5 10/3/6
f 2/2/7 22/22/8 35/35/9
f 36/36/10 21/21/11 11/5/12
f 3/4/13 24/24/14 37/37/15
f 38/38/16 23/23/17 12/7/18
f 4/6/19 26/26/20 39/39/21
f 40/40/22 25/25/23 13/9/24
f 5/8/25 28/28/26 41/41/27
f 42/42/28 27/27/29 14/11/30
f 6/10/31 30/30/32 43/43/33
f 44/44/34 29/29/35 15/13/36
f 7/12/37 32/32/38 45/45/39
f 46/46/40 31/31/41 16/15/42
f 8/14/43 18/18/44 47/47/45
f 48/48/46 17/17/47 9/16/48
