# This file uses centimeters as units for non-parametric coordinates.

v 0.926583 3.328756 -2.881674
v -2.425824 3.328756 -1.792411
v -2.425824 3.328756 1.732517
v 0.926582 3.328756 2.821780
v 2.998483 3.328756 -0.029947
v 0.628391 3.951080 -1.474599
v -1.162664 3.951080 -0.922790
v -1.162664 3.951080 0.862896
v 0.628391 3.951080 1.414704
v 1.735323 3.951080 -0.029947
v 0.000000 3.402090 -0.029947
v 0.926583 3.328756 -2.881674
v 0.926583 3.328756 -2.881674
v -2.425824 3.328756 -1.792411
v -2.425824 3.328756 1.732517
v -2.425824 3.328756 1.732517
v 0.926582 3.328756 2.821780
v 0.926582 3.328756 2.821780
v 2.998483 3.328756 -0.029947
v 2.998483 3.328756 -0.029947
v 2.998483 3.328756 -0.029947
v 0.628391 3.951080 -1.474599
v 0.628391 3.951080 -1.474599
v 0.628391 3.951080 -1.474599
v 0.628391 3.951080 -1.474599
v -1.162664 3.951080 -0.922790
v -1.162664 3.951080 -0.922790
v -1.162664 3.951080 -0.922790
v -1.162664 3.951080 -0.922790
v -1.162664 3.951080 -0.922790
v -1.162664 3.951080 0.862896
v -1.162664 3.951080 0.862896
v -1.162664 3.951080 0.862896
v -1.162664 3.951080 0.862896
v 0.628391 3.951080 1.414704
v 0.628391 3.951080 1.414704
v 0.628391 3.951080 1.414704
v 0.628391 3.951080 1.414704
v 1.735323 3.951080 -0.029947
v 1.735323 3.951080 -0.029947
v 1.735323 3.951080 -0.029947
v 0.000000 3.402090 -0.029947
v 0.000000 3.402090 -0.029947
v 0.000000 3.402090 -0.029947
v 0.000000 3.402090 -0.029947
vt 0.000000 0.333333
vt 0.200000 0.333333
vt 0.200000 0.666667
vt 0.400000 0.333333
vt 0.400000 0.666667
vt 0.600000 0.333333
vt 0.600000 0.666667
vt 0.800000 0.333333
vt 0.800000 0.666667
vt 1.000000 0.666667
vt 0.700000 1.000000
vt 0.000000 0.333333
vt 1.000000 0.333333
vt 0.200000 0.333333
vt 0.400000 0.333333
vt 0.400000 0.333333
vt 0.600000 0.333333
vt 0.600000 0.333333
vt 0.800000 0.333333
vt 0.800000 0.333333
vt 0.800000 0.333333
vt 0.000000 0.666667
vt 0.000000 0.666667
vt 1.000000 0.666667
vt 1.000000 0.666667
vt 0.200000 0.666667
vt 0.200000 0.666667
vt 0.200000 0.666667
vt 0.200000 0.666667
vt 0.200000 0.666667
vt 0.400000 0.666667
vt 0.400000 0.666667
vt 0.400000 0.666667
vt 0.400000 0.666667
vt 0.600000 0.666667
vt 0.600000 0.666667
vt 0.600000 0.666667
vt 0.600000 0.666667
vt 0.800000 0.666667
vt 0.800000 0.666667
vt 0.800000 0.666667
vt 0.900000 1.000000
vt 0.100000 1.000000
vt 0.300000 1.000000
vt 0.500000 1.000000
vn -0.137125 0.892461 -0.429780
vn -0.137125 0.892461 -0.429780
vn -0.137125 0.892461 -0.429780
vn -0.137125 0.892461 -0.429780
vn -0.137125 0.892461 -0.429780
vn -0.137125 0.892461 -0.429780
vn -0.441947 0.897041 -0.000000
vn -0.441947 0.897041 -0.000000
vn -0.441947 0.897041 -0.000000
vn -0.441947 0.897041 -0.000000
vn -0.441947 0.897041 -0.000000
vn -0.441947 0.897041 -0.000000
vn -0.137125 0.892461 0.429779
vn -0.137125 0.892461 0.429779
vn -0.137125 0.892461 0.429780
vn -0.137125 0.892461 0.429780
vn -0.137125 0.892461 0.429779
vn -0.137125 0.892461 0.429779
vn 0.411023 0.859405 0.304110
vn 0.411023 0.859405 0.304110
vn 0.411023 0.859405 0.304110
vn 0.411023 0.859405 0.304110
vn 0.411023 0.859405 0.304110
vn 0.411023 0.859405 0.304110
vn 0.411023 0.859405 -0.304110
vn 0.411023 0.859405 -0.304110
vn 0.411023 0.859405 -0.304110
vn 0.411023 0.859405 -0.304110
vn 0.411023 0.859405 -0.304110
vn 0.411023 0.859405 -0.304110
vn 0.122864 0.908774 0.398790
vn 0.122864 0.908774 0.398790
vn 0.122864 0.908774 0.398790
vn 0.426976 0.904263 0.000000
vn 0.426976 0.904263 0.000000
vn 0.426976 0.904263 0.000000
vn 0.122864 0.908774 -0.398790
vn 0.122864 0.908774 -0.398790
vn 0.122864 0.908774 -0.398790
vn -0.293880 0.928940 -0.225179
vn -0.293880 0.928940 -0.225179
vn -0.293880 0.928940 -0.225179
vn -0.293880 0.928940 0.225179
vn -0.293880 0.928940 0.225179
vn -0.293880 0.928940 0.225179
f 14/14/1 30/30/2 1/1/3
f 12/12/4 29/29/5 23/22/6
f 2/2/7 16/16/8 7/3/9
f 26/26/10 15/15/11 34/34/12
f 3/4/13 18/18/14 8/5/15
f 31/31/16 17/17/17 38/38/18
f 4/6/19 21/21/20 9/7/21
f 35/35/22 20/20/23 40/39/24
f 13/13/25 6/10/26 5/8/27
f 19/19/28 22/24/29 41/40/30
f 24/23/31 28/28/32 43/43/33
f 27/27/34 33/33/35 44/44/36
f 32/32/37 37/37/38 45/45/39
f 36/36/40 10/9/41 11/11/42
f 39/41/43 25/25/44 42/42/45
